<svg width="33" height="26" viewBox="0 0 33 26" fill="none" xmlns="http://www.w3.org/2000/svg">
<path d="M0.79735 11.074C0.286781 11.5848 -5.99844e-07 12.2772 -5.68288e-07 12.9991C-5.36731e-07 13.721 0.286781 14.4134 0.79735 14.9242L11.0778 25.2018C11.5892 25.7129 12.2829 26 13.0063 26C13.7296 26 14.4233 25.7129 14.9347 25.2018C15.4462 24.6908 15.7335 23.9976 15.7335 23.2749C15.7335 22.5522 15.4462 21.859 14.9347 21.348L9.30741 15.7233L30.2736 15.7233C30.9967 15.7233 31.6901 15.4363 32.2014 14.9254C32.7127 14.4145 33 13.7216 33 12.9991C33 12.2766 32.7127 11.5837 32.2014 11.0728C31.6901 10.5619 30.9967 10.2749 30.2736 10.2749L9.30741 10.2749L14.9347 4.65204C15.188 4.39899 15.3889 4.09858 15.5259 3.76796C15.663 3.43733 15.7335 3.08297 15.7335 2.72511C15.7335 2.36724 15.663 2.01288 15.5259 1.68225C15.3889 1.35163 15.188 1.05121 14.9347 0.798164C14.6815 0.545116 14.3808 0.344388 14.0499 0.207439C13.7191 0.0704893 13.3644 1.32317e-06 13.0063 1.33883e-06C12.6481 1.35448e-06 12.2935 0.0704893 11.9626 0.207439C11.6317 0.344388 11.331 0.545116 11.0778 0.798164L0.79735 11.074Z" fill="white"/>
</svg>
