<svg width="25" height="26" viewBox="0 0 25 26" fill="none" xmlns="http://www.w3.org/2000/svg">
<path d="M20.8333 4.39507C19.7637 3.31465 18.4897 2.45802 17.0856 1.87513C15.6814 1.29224 14.1753 0.994773 12.655 1.00007C6.285 1.00007 1.09333 6.19174 1.09333 12.5617C1.09333 14.6034 1.63 16.5867 2.63333 18.3367L1 24.3334L7.125 22.7234C8.81667 23.6451 10.7183 24.1351 12.655 24.1351C19.025 24.1351 24.2167 18.9434 24.2167 12.5734C24.2167 9.48174 23.015 6.57674 20.8333 4.39507ZM12.655 22.1751C10.9283 22.1751 9.23667 21.7084 7.755 20.8334L7.405 20.6234L3.765 21.5801L4.73333 18.0334L4.5 17.6717C3.5407 16.1399 3.03133 14.3692 3.03 12.5617C3.03 7.26507 7.34667 2.9484 12.6433 2.9484C15.21 2.9484 17.625 3.95174 19.4333 5.77174C20.3287 6.66303 21.0383 7.72318 21.521 8.89073C22.0036 10.0583 22.2497 11.31 22.245 12.5734C22.2683 17.8701 17.9517 22.1751 12.655 22.1751ZM17.9283 14.9884C17.6367 14.8484 16.2133 14.1484 15.9567 14.0434C15.6883 13.9501 15.5017 13.9034 15.3033 14.1834C15.105 14.4751 14.5567 15.1284 14.3933 15.3151C14.23 15.5134 14.055 15.5367 13.7633 15.3851C13.4717 15.2451 12.5383 14.9301 11.4417 13.9501C10.5783 13.1801 10.0067 12.2351 9.83167 11.9434C9.66833 11.6517 9.80833 11.5001 9.96 11.3484C10.0883 11.2201 10.2517 11.0101 10.3917 10.8467C10.5317 10.6834 10.59 10.5551 10.6833 10.3684C10.7767 10.1701 10.73 10.0067 10.66 9.86674C10.59 9.72674 10.0067 8.3034 9.77333 7.72007C9.54 7.16007 9.295 7.23007 9.12 7.2184H8.56C8.36167 7.2184 8.05833 7.2884 7.79 7.58007C7.53333 7.87174 6.78667 8.57174 6.78667 9.99507C6.78667 11.4184 7.825 12.7951 7.965 12.9817C8.105 13.1801 10.0067 16.0967 12.9 17.3451C13.5883 17.6484 14.125 17.8234 14.545 17.9517C15.2333 18.1734 15.8633 18.1384 16.365 18.0684C16.925 17.9867 18.08 17.3684 18.3133 16.6917C18.5583 16.0151 18.5583 15.4434 18.4767 15.3151C18.395 15.1867 18.22 15.1284 17.9283 14.9884Z" fill="#7286D3" stroke="#7286D3"/>
</svg>
