<?xml version="1.0" encoding="utf-8"?>
<!-- Generator: Adobe Illustrator 28.0.0, SVG Export Plug-In . SVG Version: 6.00 Build 0)  -->
<svg version="1.1" id="Layer_1" xmlns="http://www.w3.org/2000/svg" xmlns:xlink="http://www.w3.org/1999/xlink" x="0px" y="0px"
	 viewBox="0 0 30 30" style="enable-background:new 0 0 30 30;" xml:space="preserve">
<style type="text/css">
	.st0{clip-path:url(#SVGID_00000008150608446532770140000011963037697743780265_);fill:#DCDCDC;}
</style>
<g>
	<defs>
		<rect id="SVGID_1_" width="30" height="30"/>
	</defs>
	<clipPath id="SVGID_00000036964100434742607880000001246881582304296088_">
		<use xlink:href="#SVGID_1_"  style="overflow:visible;"/>
	</clipPath>
	<path style="clip-path:url(#SVGID_00000036964100434742607880000001246881582304296088_);fill:#DCDCDC;" d="M18.7,3.4h7.1
		c0.6,0,1.1,0.2,1.5,0.6C27.7,4.4,28,4.9,28,5.5v9.9c0,0.6-0.2,1.1-0.6,1.5c-0.4,0.4-0.9,0.6-1.5,0.6h-7.1c-0.6,0-1.1-0.2-1.5-0.6
		c-0.4-0.4-0.6-0.9-0.6-1.5V5.5c0-0.6,0.2-1.1,0.6-1.5C17.6,3.6,18.2,3.4,18.7,3.4z M18.7,4.8c-0.2,0-0.4,0.1-0.5,0.2
		C18.1,5.1,18,5.3,18,5.5v9.9c0,0.2,0.1,0.4,0.2,0.5c0.1,0.1,0.3,0.2,0.5,0.2h7.1c0.2,0,0.4-0.1,0.5-0.2c0.1-0.1,0.2-0.3,0.2-0.5
		V5.5c0-0.2-0.1-0.4-0.2-0.5c-0.1-0.1-0.3-0.2-0.5-0.2H18.7z M20.2,5.5h4.3c0.2,0,0.4,0.1,0.5,0.2c0.1,0.1,0.2,0.3,0.2,0.5
		s-0.1,0.4-0.2,0.5c-0.1,0.1-0.3,0.2-0.5,0.2h-4.3c-0.2,0-0.4-0.1-0.5-0.2c-0.1-0.1-0.2-0.3-0.2-0.5s0.1-0.4,0.2-0.5
		C19.8,5.6,20,5.5,20.2,5.5z M20.2,14h1.4c0.2,0,0.4,0.1,0.5,0.2c0.1,0.1,0.2,0.3,0.2,0.5s-0.1,0.4-0.2,0.5
		c-0.1,0.1-0.3,0.2-0.5,0.2h-1.4c-0.2,0-0.4-0.1-0.5-0.2c-0.1-0.1-0.2-0.3-0.2-0.5s0.1-0.4,0.2-0.5C19.8,14.1,20,14,20.2,14z
		 M20.2,11.2h4.3c0.2,0,0.4,0.1,0.5,0.2c0.1,0.1,0.2,0.3,0.2,0.5c0,0.2-0.1,0.4-0.2,0.5c-0.1,0.1-0.3,0.2-0.5,0.2h-4.3
		c-0.2,0-0.4-0.1-0.5-0.2c-0.1-0.1-0.2-0.3-0.2-0.5c0-0.2,0.1-0.4,0.2-0.5C19.8,11.2,20,11.2,20.2,11.2z M20.2,8.3h4.3
		c0.2,0,0.4,0.1,0.5,0.2c0.1,0.1,0.2,0.3,0.2,0.5s-0.1,0.4-0.2,0.5c-0.1,0.1-0.3,0.2-0.5,0.2h-4.3c-0.2,0-0.4-0.1-0.5-0.2
		c-0.1-0.1-0.2-0.3-0.2-0.5s0.1-0.4,0.2-0.5C19.8,8.4,20,8.3,20.2,8.3z"/>
	<path style="clip-path:url(#SVGID_00000036964100434742607880000001246881582304296088_);fill:#DCDCDC;" d="M22.4,20.9h-2.2
		c0-1.3-0.8-2.5-2-2.9l-6.7-2.5H2.9v12h6.5v-1.6L17,28l8.7-2.7v-1.1C25.7,22.4,24.2,20.9,22.4,20.9z M7.2,25.3H5v-7.6h2.2V25.3z
		 M17,25.7l-7.6-2.1v-6h1.8l6.3,2.4c0.4,0.1,0.6,0.5,0.6,0.9c0,0-2.2-0.1-2.5-0.2L13,19.9L12.3,22l2.6,0.9c0.6,0.2,1.1,0.3,1.7,0.3
		h5.8c0.4,0,0.8,0.3,1,0.6L17,25.7z"/>
</g>
</svg>
