<?xml version="1.0" encoding="utf-8"?>
<!-- Generator: Adobe Illustrator 28.0.0, SVG Export Plug-In . SVG Version: 6.00 Build 0)  -->
<svg version="1.1" id="Layer_1" xmlns="http://www.w3.org/2000/svg" xmlns:xlink="http://www.w3.org/1999/xlink" x="0px" y="0px"
	 viewBox="0 0 30 30" style="enable-background:new 0 0 30 30;" xml:space="preserve">
<style type="text/css">
	
		.st0{clip-path:url(#SVGID_00000060746954724043999720000007642093950178573971_);fill-rule:evenodd;clip-rule:evenodd;fill:#DCDCDC;}
</style>
<g>
	<defs>
		<rect id="SVGID_1_" width="30" height="30"/>
	</defs>
	<clipPath id="SVGID_00000004518601258801029960000000510872218505814924_">
		<use xlink:href="#SVGID_1_"  style="overflow:visible;"/>
	</clipPath>
	
		<path style="clip-path:url(#SVGID_00000004518601258801029960000000510872218505814924_);fill-rule:evenodd;clip-rule:evenodd;fill:#DCDCDC;" d="
		M24.4,10.9h-5l3.3-7.6c0.1-0.3,0.2-0.5,0.1-0.8c0-0.3-0.1-0.5-0.3-0.8c-0.2-0.2-0.4-0.4-0.6-0.5C21.6,1.1,21.4,1,21.1,1h-8.3
		c-0.3,0-0.6,0.1-0.9,0.3c-0.3,0.2-0.5,0.4-0.6,0.7l-5,11.5c-0.1,0.3-0.2,0.5-0.1,0.8c0,0.3,0.1,0.5,0.3,0.8
		c0.2,0.2,0.4,0.4,0.6,0.5c0.2,0.1,0.5,0.2,0.8,0.2h2.9L6.3,26.7c-0.7,1.6,1.4,3,2.7,1.8l8.3-7.8l8.2-7
		C26.6,12.8,25.9,10.9,24.4,10.9z M15.3,11.9c-0.1,0.3-0.2,0.5-0.1,0.8c0,0.3,0.1,0.5,0.3,0.8c0.2,0.2,0.4,0.4,0.6,0.5
		c0.2,0.1,0.5,0.2,0.8,0.2h3.1l-4.8,4.1L12.2,21l2.5-6.2c0.1-0.2,0.1-0.5,0.1-0.8c0-0.3-0.1-0.5-0.3-0.7c-0.2-0.2-0.4-0.4-0.6-0.5
		c-0.2-0.1-0.5-0.2-0.8-0.2h-2.8l3.5-8.2h4.7L15.3,11.9z"/>
</g>
</svg>
