<svg width="20" height="26" viewBox="0 0 20 26" fill="none" xmlns="http://www.w3.org/2000/svg">
<path d="M9.99992 15.5001C12.7574 15.5001 14.9998 13.2576 14.9998 10.5002C14.9998 7.74271 12.7574 5.50024 9.99992 5.50024C7.24246 5.50024 5 7.74271 5 10.5002C5 13.2576 7.24246 15.5001 9.99992 15.5001ZM9.99992 8.0002C11.3786 8.0002 12.4999 9.12143 12.4999 10.5002C12.4999 11.8789 11.3786 13.0001 9.99992 13.0001C8.62119 13.0001 7.49996 11.8789 7.49996 10.5002C7.49996 9.12143 8.62119 8.0002 9.99992 8.0002Z" fill="#7286D3"/>
<path d="M9.27496 25.2676C9.48651 25.4187 9.73998 25.4999 9.99994 25.4999C10.2599 25.4999 10.5134 25.4187 10.7249 25.2676C11.1049 24.9988 20.036 18.5502 19.9998 10.5003C19.9998 4.98666 15.5136 0.500488 9.99994 0.500488C4.48629 0.500488 0.000110045 4.98666 0.000110045 10.4941C-0.0361394 18.5502 8.89496 24.9988 9.27496 25.2676ZM9.99994 3.00045C14.1361 3.00045 17.4998 6.36414 17.4998 10.5066C17.5261 16.054 12.0149 21.0351 9.99994 22.6689C7.98623 21.0339 2.47382 16.0515 2.50007 10.5003C2.50007 6.36414 5.86376 3.00045 9.99994 3.00045Z" fill="#7286D3"/>
</svg>
