<?xml version="1.0" encoding="utf-8"?>
<!-- Generator: Adobe Illustrator 28.0.0, SVG Export Plug-In . SVG Version: 6.00 Build 0)  -->
<svg version="1.1" id="Layer_1" xmlns="http://www.w3.org/2000/svg" xmlns:xlink="http://www.w3.org/1999/xlink" x="0px" y="0px"
	 viewBox="0 0 30 30" style="enable-background:new 0 0 30 30;" xml:space="preserve">
<style type="text/css">
	.st0{clip-path:url(#SVGID_00000122678677859417823610000009235118791550095775_);fill:#DCDCDC;}
</style>
<g>
	<defs>
		<rect id="SVGID_1_" width="30" height="30"/>
	</defs>
	<clipPath id="SVGID_00000116935346167029565070000012070134793232951468_">
		<use xlink:href="#SVGID_1_"  style="overflow:visible;"/>
	</clipPath>
	<path style="clip-path:url(#SVGID_00000116935346167029565070000012070134793232951468_);fill:#DCDCDC;" d="M0,4.8
		C1.2,9,3,12.6,5,16.6L6.7,16C4.6,12.7,2.8,10,2.2,6.4l1.5,0.4c0.8,4.8,5,8.4,6.9,10.6c0.3,1,0,2.1-0.3,2.9
		c3.3,1.6,6.6,3.6,10.3,4.4c1.4-1.1,2.8-1.7,4.3,0.5l0.6-1.8l1.5,0l-0.8-1.8c1.4,0.5,3.2-1,3.2-1.4c0.1-1.2,0-2,0.7-3l-3.5,0.5
		c-0.1,1,0.1,2.2-1,2.8c-5.6,3.2-7.3-3.9-6.8-6.9c-2.3-1-2.6-2.2-3.9-4.3l-1.4-0.2l-1,0.8L9.9,6.7L0,4.8z"/>
</g>
</svg>
