<svg width="26" height="20" viewBox="0 0 26 20" fill="none" xmlns="http://www.w3.org/2000/svg">
<path d="M6.88889 6.57143L11.4722 10C11.9058 10.3246 12.4446 10.5014 13 10.5014C13.5554 10.5014 14.0942 10.3246 14.5278 10L19.1111 6.57143M24 15.7143V4.28571C24 3.67951 23.7425 3.09812 23.284 2.66947C22.8256 2.24082 22.2039 2 21.5556 2H4.44444C3.79614 2 3.17438 2.24082 2.71596 2.66947C2.25754 3.09812 2 3.67951 2 4.28571V15.7143C2 16.3205 2.25754 16.9019 2.71596 17.3305C3.17438 17.7592 3.79614 18 4.44444 18H21.5556C22.2039 18 22.8256 17.7592 23.284 17.3305C23.7425 16.9019 24 16.3205 24 15.7143Z" stroke="#7286D3" stroke-width="3" stroke-linecap="round" stroke-linejoin="round"/>
</svg>
