<svg width="54" height="82" viewBox="0 0 54 82" fill="none" xmlns="http://www.w3.org/2000/svg">
<path fill-rule="evenodd" clip-rule="evenodd" d="M27 0C30.3137 0 33 2.68629 33 6V7.48543C39.7266 8.58939 45.8019 11.5478 49.7244 16.0672C51.8964 18.5699 51.6284 22.3594 49.1258 24.5314C46.6231 26.7034 42.8336 26.4354 40.6616 23.9328C39.1996 22.2482 36.5362 20.6263 33 19.7263V35.4832C37.5445 36.2275 41.7359 37.8127 45.1776 40.1069C50.0514 43.3557 54 48.5028 54 55C54 61.4971 50.0514 66.6443 45.1776 69.8931C41.7359 72.1873 37.5445 73.7725 33 74.5168V76C33 79.3137 30.3137 82 27 82C23.6863 82 21 79.3137 21 76V74.5146C14.2734 73.4106 8.19805 70.4522 4.27562 65.9328C2.10362 63.4301 2.37163 59.6406 4.87425 57.4686C7.37686 55.2966 11.1664 55.5646 13.3384 58.0672C14.8004 59.7518 17.4638 61.3737 21 62.2737V46.5168C16.4555 45.7725 12.2641 44.1873 8.82244 41.8931C3.94864 38.6443 0 33.4972 0 27C0 20.5028 3.94864 15.3557 8.82244 12.1069C12.2641 9.81273 16.4555 8.22746 21 7.48317V6C21 2.68629 23.6863 0 27 0ZM21 19.7282C18.8206 20.2821 16.945 21.1142 15.4783 22.0919C12.7519 23.9093 12 25.7622 12 27C12 28.2378 12.7519 30.0907 15.4783 31.9081C16.945 32.8858 18.8206 33.7179 21 34.2718V19.7282ZM33 47.7282V62.2718C35.1794 61.7179 37.055 60.8858 38.5217 59.9081C41.2481 58.0907 42 56.2378 42 55C42 53.7621 41.2481 51.9093 38.5217 50.0919C37.055 49.1142 35.1794 48.2821 33 47.7282Z" fill="#7286D3"/>
</svg>
