<?xml version="1.0" encoding="utf-8"?>
<!-- Generator: Adobe Illustrator 28.0.0, SVG Export Plug-In . SVG Version: 6.00 Build 0)  -->
<svg version="1.1" id="Layer_1" xmlns="http://www.w3.org/2000/svg" xmlns:xlink="http://www.w3.org/1999/xlink" x="0px" y="0px"
	 viewBox="0 0 30 30" style="enable-background:new 0 0 30 30;" xml:space="preserve">
<style type="text/css">
	.st0{clip-path:url(#SVGID_00000102524002431811939900000007298141654431852720_);}
	.st1{fill:#DCDCDC;}
</style>
<g>
	<defs>
		<rect id="SVGID_1_" width="30" height="30"/>
	</defs>
	<clipPath id="SVGID_00000109730194093388717190000006867103625451891081_">
		<use xlink:href="#SVGID_1_"  style="overflow:visible;"/>
	</clipPath>
	<g style="clip-path:url(#SVGID_00000109730194093388717190000006867103625451891081_);">
		<path class="st1" d="M14.3,1.5c1.5,0,2.9,0.5,4.1,1.4c1.2,0.9,2,2.1,2.4,3.6l0.1,0.3L23.6,6C23.8,6,24.1,6,24.3,6
			c0.2,0,0.4,0.1,0.6,0.2c0.2,0.1,0.3,0.3,0.4,0.5c0.1,0.2,0.2,0.4,0.2,0.6l0,0.2v2.7c0.8,0.8,1.5,1.8,2,2.8l0.2,0.5h0.7
			c0.4,0,0.7,0.1,1,0.4c0.3,0.2,0.5,0.6,0.5,0.9l0,0.2v4.5c0,0.2-0.1,0.5-0.2,0.7c-0.1,0.2-0.3,0.4-0.5,0.5l-0.2,0.1l-1.8,0.9
			c-0.7,1.4-1.8,2.6-3,3.5L24,25.5V27c0,0.4-0.1,0.7-0.4,1c-0.2,0.3-0.6,0.5-0.9,0.5l-0.2,0H18c-0.4,0-0.7-0.1-1-0.4
			c-0.3-0.2-0.4-0.6-0.5-0.9l0-0.2H15c0,0.4-0.1,0.7-0.4,1c-0.2,0.3-0.6,0.5-0.9,0.5l-0.2,0H9c-0.4,0-0.7-0.1-1-0.4
			c-0.3-0.2-0.4-0.6-0.5-0.9l0-0.2v-1.5c-1.1-0.7-2-1.6-2.8-2.6c-0.7-1.1-1.3-2.2-1.5-3.5c-0.9-0.3-1.7-0.8-2.2-1.5
			c-0.6-0.7-0.9-1.6-1-2.5L0,15v-0.8c0-0.4,0.1-0.8,0.4-1c0.3-0.3,0.6-0.4,1-0.5c0.4,0,0.8,0.1,1.1,0.3c0.3,0.2,0.5,0.6,0.5,1l0,0.2
			V15c0,0.2,0,0.4,0.1,0.6c0.2-1.4,0.7-2.6,1.5-3.8C5.4,10.7,6.4,9.7,7.5,9c-0.1-0.9,0-1.9,0.3-2.8c0.3-0.9,0.8-1.7,1.4-2.4
			c0.6-0.7,1.4-1.3,2.3-1.7C12.4,1.7,13.3,1.5,14.3,1.5z M22.5,9.4l-4.1,1l-0.2,0l-0.2,0h-5.2c-1.5,0-3,0.5-4.2,1.4
			c-1.2,0.9-2,2.3-2.4,3.7c-0.4,1.5-0.2,3,0.4,4.4c0.6,1.4,1.7,2.5,3.1,3.2c0.2,0.1,0.4,0.3,0.5,0.5c0.1,0.2,0.2,0.4,0.3,0.7l0,0.2
			v0.9H12c0-0.4,0.1-0.7,0.4-1c0.2-0.3,0.6-0.4,0.9-0.5l0.2,0H18c0.4,0,0.7,0.1,1,0.4c0.3,0.2,0.4,0.6,0.5,0.9l0,0.2H21v-0.9
			c0-0.3,0.1-0.5,0.2-0.8c0.1-0.2,0.4-0.4,0.6-0.6c1.4-0.7,2.5-1.9,3.1-3.3c0.1-0.3,0.3-0.5,0.5-0.6l0.2-0.1l1.4-0.7v-2.1h-0.3
			c-0.3,0-0.6-0.1-0.9-0.3c-0.3-0.2-0.4-0.5-0.5-0.8c-0.4-1.3-1.1-2.5-2.2-3.4c-0.3-0.2-0.5-0.6-0.5-1l0-0.2V9.4L22.5,9.4z M21,13.5
			c0.4,0,0.8,0.2,1.1,0.4c0.3,0.3,0.4,0.7,0.4,1.1s-0.2,0.8-0.4,1.1c-0.3,0.3-0.7,0.4-1.1,0.4c-0.4,0-0.8-0.2-1.1-0.4
			c-0.3-0.3-0.4-0.7-0.4-1.1s0.2-0.8,0.4-1.1C20.2,13.7,20.6,13.5,21,13.5z M14.3,4.5c-0.9,0-1.8,0.3-2.5,0.9
			c-0.7,0.6-1.1,1.4-1.2,2.3c0.7-0.2,1.5-0.3,2.2-0.3h5.1l0.1,0c-0.2-0.8-0.6-1.6-1.3-2.1C15.9,4.8,15.1,4.5,14.3,4.5z"/>
	</g>
</g>
</svg>
