<?xml version="1.0" encoding="UTF-8"?>
<svg id="Layer_1" data-name="Layer 1" xmlns="http://www.w3.org/2000/svg" version="1.1" viewBox="0 0 357 357">
  <defs>
    <style>
      .cls-1 {
        fill: #7686c2;
        stroke-width: 0px;
      }
    </style>
  </defs>
  <path class="cls-1" d="M304.7,52.3C271,18.6,226.2,0,178.5,0S86,18.6,52.3,52.3,0,130.8,0,178.5s18.6,92.5,52.3,126.2c33.7,33.7,78.5,52.3,126.2,52.3s92.5-18.5,126.2-52.3c33.7-33.7,52.3-78.6,52.3-126.2s-18.6-92.5-52.3-126.2ZM338.7,178.5c0,.2,0,.4,0,.7l-88.8-47h82c4.4,14.7,6.8,30.2,6.8,46.3ZM178.5,18.3c70,0,129.6,45.1,151.4,107.8H27.1C48.9,63.4,108.5,18.3,178.5,18.3ZM25.1,132.2h83.9l-90.7,48c0-.6,0-1.1,0-1.7,0-16.1,2.4-31.6,6.8-46.3ZM194.1,337.9l-4.3-77.7h-22.6l-4.3,77.7c-72.4-7-130.8-62.4-142.5-133.3l99.6-72.4h54.3l-.5,10.1h9.4l-.5-10.1h56.2l97.9,71.1c-11.2,71.5-69.9,127.6-142.7,134.6Z"/>
  <polygon class="cls-1" points="185.5 183.7 171.5 183.7 170.2 206.9 186.8 206.9 185.5 183.7"/>
  <polygon class="cls-1" points="183.3 143.5 173.7 143.5 173 157.5 184 157.5 183.3 143.5"/>
  <polygon class="cls-1" points="184.2 160.6 172.8 160.6 171.8 177.6 185.2 177.6 184.2 160.6"/>
  <polygon class="cls-1" points="169.7 216 167.9 248 189.1 248 187.3 216 169.7 216"/>
</svg>