<?xml version="1.0" encoding="utf-8"?>
<!-- Generator: Adobe Illustrator 28.0.0, SVG Export Plug-In . SVG Version: 6.00 Build 0)  -->
<svg version="1.1" id="Layer_1" xmlns="http://www.w3.org/2000/svg" xmlns:xlink="http://www.w3.org/1999/xlink" x="0px" y="0px"
	 viewBox="0 0 189.1 65.9" style="enable-background:new 0 0 189.1 65.9;" xml:space="preserve">
<style type="text/css">
	.st0{fill:#7286D3;}
	.st1{fill:#150961;}
</style>
<g>
	<path class="st0" d="M89.7,7.9l-9.7,24.8h4c0.4,0,0.8-0.1,1.1-0.4c0.3-0.2,0.5-0.5,0.6-0.8l1.7-4.7h9.9l1.7,4.7
		c0.1,0.3,0.3,0.6,0.6,0.8c0.3,0.2,0.6,0.3,1.1,0.3h4L95,7.9H89.7z M88.7,23.3l2.7-7.6c0.2-0.4,0.3-0.9,0.5-1.4
		c0.2-0.5,0.3-1.1,0.5-1.8c0.2,0.6,0.3,1.2,0.5,1.7c0.2,0.5,0.3,1,0.5,1.4l2.7,7.6H88.7z"/>
	<path class="st0" d="M125.7,31.8c1.6-0.6,2.9-1.5,4-2.6c1.1-1.1,2-2.4,2.6-3.9c0.6-1.5,0.9-3.2,0.9-5c0-1.8-0.3-3.5-0.9-5
		c-0.6-1.5-1.5-2.8-2.6-3.9c-1.1-1.1-2.4-2-4-2.6c-1.6-0.6-3.3-0.9-5.2-0.9H111v24.8h9.5C122.5,32.7,124.2,32.4,125.7,31.8z
		 M116.2,11.9h4.4c1.2,0,2.2,0.2,3.1,0.6c0.9,0.4,1.7,0.9,2.3,1.7c0.6,0.7,1.1,1.6,1.5,2.6c0.3,1,0.5,2.2,0.5,3.5
		c0,1.3-0.2,2.5-0.5,3.5c-0.3,1-0.8,1.9-1.5,2.6c-0.6,0.7-1.4,1.3-2.3,1.7c-0.9,0.4-2,0.6-3.1,0.6h-4.4V11.9z"/>
	<path class="st0" d="M152.3,7.9h-5.2l-9.7,24.8h4c0.4,0,0.8-0.1,1.1-0.4c0.3-0.2,0.5-0.5,0.6-0.8l1.7-4.7h9.9l1.7,4.7
		c0.1,0.3,0.3,0.6,0.6,0.8c0.3,0.2,0.6,0.3,1.1,0.3h4L152.3,7.9z M146,23.3l2.7-7.6c0.2-0.4,0.3-0.9,0.5-1.4
		c0.2-0.5,0.3-1.1,0.5-1.8c0.2,0.6,0.3,1.2,0.5,1.7c0.2,0.5,0.3,1,0.5,1.4l2.7,7.6H146z"/>
	<path class="st0" d="M169.8,29.4c1.2,1.1,2.6,2,4.2,2.6c1.7,0.6,3.5,0.9,5.5,0.9c1.6,0,3.1-0.2,4.5-0.6c1.4-0.4,2.8-1.1,4-2V20.1
		h-8.5v2.9c0,0.3,0.1,0.5,0.3,0.7c0.2,0.2,0.4,0.3,0.8,0.3h2.8V28c-0.6,0.3-1.2,0.5-1.9,0.7c-0.6,0.2-1.4,0.2-2.2,0.2
		c-1.2,0-2.3-0.2-3.3-0.6c-1-0.4-1.8-1-2.5-1.7c-0.7-0.7-1.3-1.6-1.6-2.7c-0.4-1.1-0.6-2.3-0.6-3.7c0-1.3,0.2-2.4,0.5-3.4
		c0.4-1,0.9-1.9,1.5-2.6c0.7-0.7,1.4-1.3,2.4-1.7c0.9-0.4,2-0.6,3.1-0.6c0.7,0,1.3,0,1.8,0.1c0.5,0.1,1,0.2,1.5,0.3
		c0.4,0.1,0.9,0.3,1.3,0.5s0.8,0.4,1.2,0.7c0.4,0.3,0.8,0.4,1.2,0.3c0.4-0.1,0.7-0.3,0.9-0.7l1.5-2.3c-0.5-0.5-1.1-0.9-1.7-1.3
		c-0.6-0.4-1.3-0.7-2.1-1c-0.8-0.3-1.6-0.5-2.5-0.7c-0.9-0.2-1.8-0.2-2.9-0.2c-2,0-3.8,0.3-5.4,0.9c-1.6,0.6-3,1.5-4.1,2.6
		c-1.1,1.1-2,2.4-2.6,4c-0.6,1.5-0.9,3.3-0.9,5.1c0,1.8,0.3,3.5,1,5.1C167.7,26.9,168.6,28.2,169.8,29.4z"/>
	<path class="st1" d="M80.4,38.3l-2.7,6h1.4l0.5-1.3h2.8l0.5,1.3h1.4l-2.7-6H80.4z M80.2,41.9l0.9-2.3l0.9,2.3H80.2z"/>
	<path class="st1" d="M88.3,43.3c-0.6,0-1.2-0.2-1.6-0.4l-0.4,1c0.4,0.3,1.2,0.5,2,0.5c1.4,0,2.2-0.6,2.2-1.5c0-1.8-2.8-1-2.8-1.8
		c0-0.2,0.3-0.4,0.9-0.4c0.4,0,0.9,0.1,1.3,0.3l0.4-0.9c-0.4-0.3-1.1-0.4-1.8-0.4c-1.3,0-2.1,0.6-2.1,1.5c0,1.8,2.8,1.1,2.8,1.8
		C89.1,43.1,88.9,43.3,88.3,43.3z"/>
	<path class="st1" d="M95,39.6c-1.4,0-2.4,1-2.4,2.4c0,1.4,1,2.4,2.6,2.4c0.8,0,1.5-0.3,1.9-0.7l-0.7-0.8c-0.3,0.3-0.7,0.4-1.2,0.4
		c-0.7,0-1.2-0.3-1.3-0.9h3.5c0-0.1,0-0.3,0-0.4C97.4,40.5,96.3,39.6,95,39.6z M93.9,41.5c0.1-0.6,0.5-1,1.1-1c0.6,0,1,0.4,1.1,1
		H93.9z"/>
	<path class="st1" d="M100.9,41c0-0.2,0.3-0.4,0.9-0.4c0.4,0,0.9,0.1,1.3,0.3l0.4-0.9c-0.4-0.3-1.1-0.4-1.8-0.4
		c-1.3,0-2.1,0.6-2.1,1.5c0,1.8,2.8,1.1,2.8,1.8c0,0.3-0.2,0.4-0.8,0.4c-0.6,0-1.2-0.2-1.6-0.4l-0.4,1c0.4,0.3,1.2,0.5,2,0.5
		c1.4,0,2.2-0.6,2.2-1.5C103.7,41,100.9,41.8,100.9,41z"/>
	<path class="st1" d="M108.4,39.6c-1.5,0-2.5,1-2.5,2.4c0,1.4,1.1,2.4,2.5,2.4s2.5-1,2.5-2.4C110.9,40.6,109.8,39.6,108.4,39.6z
		 M108.4,43.2c-0.7,0-1.2-0.5-1.2-1.3c0-0.8,0.5-1.3,1.2-1.3s1.2,0.5,1.2,1.3C109.5,42.7,109,43.2,108.4,43.2z"/>
	<path class="st1" d="M113.5,39.7v4.6h1.3v-2.2c0-0.9,0.5-1.3,1.2-1.3c0.1,0,0.2,0,0.3,0v-1.2c-0.7,0-1.3,0.2-1.6,0.7v-0.6H113.5z"
		/>
	<rect x="118.8" y="39.7" class="st1" width="1.3" height="4.6"/>
	<polygon class="st1" points="118.7,39.1 119.7,39.1 121.3,37.8 119.9,37.8 	"/>
	<path class="st1" d="M125.9,43.7v0.6h1.2v-2.6c0-1.4-0.8-2-2.2-2c-0.7,0-1.5,0.2-2,0.6l0.5,0.9c0.3-0.3,0.8-0.4,1.3-0.4
		c0.7,0,1.1,0.3,1.1,0.9h-1.1c-1.4,0-2,0.6-2,1.4c0,0.8,0.6,1.4,1.7,1.4C125.2,44.3,125.7,44.1,125.9,43.7z M124.1,42.9
		c0-0.3,0.2-0.5,0.8-0.5h0.9v0.5c-0.2,0.4-0.5,0.6-1,0.6C124.4,43.4,124.1,43.2,124.1,42.9z"/>
	<polygon class="st1" points="138.6,38.3 136.8,42.5 135,38.3 133.5,38.3 136,44.2 137.4,44.2 140,38.3 	"/>
	<path class="st1" d="M145.9,43.6l-0.7-0.8c-0.3,0.3-0.7,0.4-1.2,0.4c-0.7,0-1.2-0.3-1.3-0.9h3.5c0-0.1,0-0.3,0-0.4
		c0-1.5-1-2.4-2.4-2.4c-1.4,0-2.4,1-2.4,2.4c0,1.4,1,2.4,2.6,2.4C144.9,44.3,145.5,44,145.9,43.6z M143.9,40.6c0.6,0,1,0.4,1.1,1
		h-2.3C142.8,41,143.3,40.6,143.9,40.6z"/>
	<path class="st1" d="M153.5,44.2v-2.6c0-1.4-0.8-2-1.9-2c-0.6,0-1.1,0.2-1.5,0.5v-2.2h-1.3v6.3h1.3V42c0-0.8,0.5-1.2,1.1-1.2
		c0.6,0,0.9,0.3,0.9,1.1v2.4H153.5z"/>
	<path class="st1" d="M157.1,37.5c-0.5,0-0.8,0.3-0.8,0.7c0,0.4,0.3,0.7,0.8,0.7c0.5,0,0.8-0.3,0.8-0.8
		C157.9,37.8,157.6,37.5,157.1,37.5z"/>
	<rect x="156.4" y="39.7" class="st1" width="1.3" height="4.6"/>
	<path class="st1" d="M162.9,40.7c0.4,0,0.8,0.2,1,0.6l1-0.6c-0.3-0.7-1.1-1.2-2.1-1.2c-1.5,0-2.6,1-2.6,2.4c0,1.4,1.1,2.4,2.6,2.4
		c1,0,1.7-0.4,2.1-1.2l-1-0.6c-0.2,0.4-0.6,0.6-1,0.6c-0.7,0-1.2-0.5-1.2-1.3C161.7,41.1,162.2,40.7,162.9,40.7z"/>
	<path class="st1" d="M170.7,41.9c0,0.8-0.4,1.2-1.1,1.2c-0.6,0-0.9-0.3-0.9-1.1v-2.4h-1.3v2.6c0,1.4,0.8,2.1,2,2.1
		c0.6,0,1.1-0.2,1.4-0.6v0.5h1.3v-4.6h-1.3V41.9z"/>
	<rect x="175" y="37.9" class="st1" width="1.3" height="6.3"/>
	<path class="st1" d="M181.1,39.6c-0.7,0-1.5,0.2-2,0.6l0.5,0.9c0.3-0.3,0.8-0.4,1.3-0.4c0.7,0,1.1,0.3,1.1,0.9h-1.1
		c-1.4,0-2,0.6-2,1.4c0,0.8,0.6,1.4,1.7,1.4c0.7,0,1.2-0.2,1.4-0.6v0.6h1.2v-2.6C183.3,40.2,182.5,39.6,181.1,39.6z M182,42.8
		c-0.2,0.4-0.5,0.6-1,0.6c-0.5,0-0.7-0.2-0.7-0.6c0-0.3,0.2-0.5,0.8-0.5h0.9V42.8z"/>
	<path class="st1" d="M187.5,40.3v-0.6h-1.3v4.6h1.3v-2.2c0-0.9,0.5-1.3,1.2-1.3c0.1,0,0.2,0,0.3,0v-1.2
		C188.4,39.6,187.8,39.8,187.5,40.3z"/>
	<path class="st1" d="M129.8,47.8c-0.3-0.3-0.7-0.4-1.1-0.4c-1,0-1.9,0.7-1.9,1.9c0,1.2,0.8,1.9,1.9,1.9c0.5,0,0.9-0.2,1.2-0.5v0.4
		h1V46h-1.1V47.8z M128.9,50.3c-0.5,0-1-0.4-1-1s0.4-1,1-1c0.5,0,0.9,0.4,0.9,1S129.4,50.3,128.9,50.3z"/>
	<path class="st1" d="M134.9,47.4c-1.1,0-2,0.8-2,1.9c0,1.1,0.8,1.9,2.1,1.9c0.7,0,1.2-0.2,1.5-0.6L136,50c-0.3,0.2-0.5,0.4-0.9,0.4
		c-0.6,0-1-0.3-1.1-0.7h2.8c0-0.1,0-0.2,0-0.3C136.9,48.1,136,47.4,134.9,47.4z M134,48.9c0.1-0.5,0.4-0.8,0.9-0.8
		c0.5,0,0.8,0.3,0.9,0.8H134z"/>
	<rect x="139" y="46" class="st1" width="1.1" height="5.1"/>
	<polygon class="st1" points="80.9,57.5 83.7,57.5 83.7,56.4 80.9,56.4 80.9,55.2 84.1,55.2 84.1,54 79.6,54 79.6,60 84.2,60 
		84.2,58.9 80.9,58.9 	"/>
	<path class="st1" d="M87.8,56.8c0-0.2,0.3-0.4,0.9-0.4c0.4,0,0.9,0.1,1.3,0.3l0.4-0.9c-0.4-0.3-1.1-0.4-1.8-0.4
		c-1.3,0-2.1,0.6-2.1,1.5c0,1.8,2.8,1.1,2.8,1.8c0,0.3-0.2,0.4-0.8,0.4c-0.6,0-1.2-0.2-1.6-0.4l-0.4,1c0.4,0.3,1.2,0.5,2,0.5
		c1.4,0,2.2-0.6,2.2-1.5C90.6,56.8,87.8,57.6,87.8,56.8z"/>
	<path class="st1" d="M95.2,59c-0.4,0-0.6-0.2-0.6-0.6v-1.9h1.1v-1h-1.1v-1.1h-1.3v1.1h-0.7v1h0.7v1.9c0,1.1,0.6,1.6,1.7,1.6
		c0.4,0,0.8-0.1,1.1-0.3l-0.4-0.9C95.5,59,95.3,59,95.2,59z"/>
	<path class="st1" d="M100.3,55.4c-0.7,0-1.5,0.2-2,0.6l0.5,0.9c0.3-0.3,0.8-0.4,1.3-0.4c0.7,0,1.1,0.3,1.1,0.9h-1.1
		c-1.4,0-2,0.6-2,1.4c0,0.8,0.6,1.4,1.7,1.4c0.7,0,1.2-0.2,1.4-0.6V60h1.2v-2.6C102.6,56,101.7,55.4,100.3,55.4z M101.2,58.6
		c-0.2,0.4-0.5,0.6-1,0.6c-0.5,0-0.7-0.2-0.7-0.6c0-0.3,0.2-0.5,0.8-0.5h0.9V58.6z"/>
	<path class="st1" d="M108.9,55.9c-0.3-0.4-0.8-0.6-1.4-0.6c-1.3,0-2.3,0.9-2.3,2.4s1,2.4,2.3,2.4c0.6,0,1.1-0.2,1.4-0.6V60h1.3
		v-6.3h-1.3V55.9z M107.7,59c-0.7,0-1.2-0.5-1.2-1.3c0-0.8,0.5-1.3,1.2-1.3c0.7,0,1.2,0.5,1.2,1.3C108.9,58.5,108.4,59,107.7,59z"/>
	<path class="st1" d="M115.3,55.4c-1.5,0-2.5,1-2.5,2.4c0,1.4,1.1,2.4,2.5,2.4s2.5-1,2.5-2.4C117.8,56.3,116.8,55.4,115.3,55.4z
		 M115.3,59c-0.7,0-1.2-0.5-1.2-1.3c0-0.8,0.5-1.3,1.2-1.3c0.7,0,1.2,0.5,1.2,1.3C116.5,58.5,116,59,115.3,59z"/>
	<path class="st1" d="M127.9,55.9c-0.3-0.4-0.8-0.6-1.4-0.6c-1.3,0-2.3,0.9-2.3,2.4s1,2.4,2.3,2.4c0.6,0,1.1-0.2,1.4-0.6V60h1.3
		v-6.3h-1.3V55.9z M126.7,59c-0.7,0-1.2-0.5-1.2-1.3c0-0.8,0.5-1.3,1.2-1.3c0.7,0,1.2,0.5,1.2,1.3C127.9,58.5,127.4,59,126.7,59z"/>
	<path class="st1" d="M134.2,55.4c-1.4,0-2.4,1-2.4,2.4c0,1.4,1,2.4,2.6,2.4c0.8,0,1.5-0.3,1.9-0.7l-0.7-0.8
		c-0.3,0.3-0.7,0.4-1.2,0.4c-0.7,0-1.2-0.3-1.3-0.9h3.5c0-0.1,0-0.3,0-0.4C136.6,56.3,135.6,55.4,134.2,55.4z M133.1,57.3
		c0.1-0.6,0.5-1,1.1-1c0.6,0,1,0.4,1.1,1H133.1z"/>
	<polygon class="st1" points="149,54 146.8,57.7 144.5,54 143.4,54 143.4,60 144.7,60 144.7,56.5 146.4,59.4 147.1,59.4 148.8,56.4 
		148.8,60 150.1,60 150.1,54 	"/>
	<path class="st1" d="M155.3,55.4c-1.5,0-2.5,1-2.5,2.4c0,1.4,1.1,2.4,2.5,2.4s2.5-1,2.5-2.4C157.8,56.3,156.8,55.4,155.3,55.4z
		 M155.3,59c-0.7,0-1.2-0.5-1.2-1.3c0-0.8,0.5-1.3,1.2-1.3s1.2,0.5,1.2,1.3C156.5,58.5,156,59,155.3,59z"/>
	<path class="st1" d="M161.7,56v-0.6h-1.3V60h1.3v-2.2c0-0.9,0.5-1.3,1.2-1.3c0.1,0,0.2,0,0.3,0v-1.2C162.6,55.4,162,55.6,161.7,56z
		"/>
	<path class="st1" d="M167.8,55.4c-1.4,0-2.4,1-2.4,2.4c0,1.4,1,2.4,2.6,2.4c0.8,0,1.5-0.3,1.9-0.7l-0.7-0.8
		c-0.3,0.3-0.7,0.4-1.2,0.4c-0.7,0-1.2-0.3-1.3-0.9h3.5c0-0.1,0-0.3,0-0.4C170.2,56.3,169.2,55.4,167.8,55.4z M166.7,57.3
		c0.1-0.6,0.5-1,1.1-1c0.6,0,1,0.4,1.1,1H166.7z"/>
	<rect x="172.8" y="53.7" class="st1" width="1.3" height="6.3"/>
	<path class="st1" d="M179.3,55.4c-1.5,0-2.5,1-2.5,2.4c0,1.4,1.1,2.4,2.5,2.4s2.5-1,2.5-2.4C181.8,56.3,180.7,55.4,179.3,55.4z
		 M179.3,59c-0.7,0-1.2-0.5-1.2-1.3c0-0.8,0.5-1.3,1.2-1.3s1.2,0.5,1.2,1.3C180.4,58.5,179.9,59,179.3,59z"/>
	<path class="st1" d="M185.3,56.8c0-0.2,0.3-0.4,0.9-0.4c0.4,0,0.9,0.1,1.3,0.3l0.4-0.9c-0.4-0.3-1.1-0.4-1.8-0.4
		c-1.3,0-2.1,0.6-2.1,1.5c0,1.8,2.8,1.1,2.8,1.8c0,0.3-0.2,0.4-0.8,0.4c-0.6,0-1.2-0.2-1.6-0.4l-0.4,1c0.4,0.3,1.2,0.5,2,0.5
		c1.4,0,2.2-0.6,2.2-1.5C188.1,56.8,185.3,57.6,185.3,56.8z"/>
	<path class="st0" d="M33,0C24.2,0,15.9,3.4,9.7,9.7C3.4,15.9,0,24.2,0,33C0,41.8,3.4,50,9.7,56.3c6.2,6.2,14.5,9.7,23.3,9.7
		c8.8,0,17.1-3.4,23.3-9.7c6.2-6.2,9.7-14.5,9.7-23.3c0-8.8-3.4-17.1-9.7-23.3C50,3.4,41.8,0,33,0z M3.4,33c0-3,0.4-5.8,1.3-8.5
		h15.5L3.4,33.3C3.4,33.2,3.4,33.1,3.4,33z M35.8,62.4L35,48h-4.2l-0.8,14.4C16.7,61.1,5.9,50.9,3.8,37.8l18.4-13.4h10l-0.1,1.9h1.7
		l-0.1-1.9h10.4l18.1,13.1C60.1,50.8,49.3,61.1,35.8,62.4z M62.5,33c0,0,0,0.1,0,0.1l-16.4-8.7h15.1C62.1,27.1,62.5,30,62.5,33z
		 M5,23.3C9,11.7,20,3.4,33,3.4s23.9,8.3,28,19.9H5z"/>
	<polygon class="st0" points="34.3,33.9 31.7,33.9 31.4,38.2 34.5,38.2 	"/>
	<polygon class="st0" points="33.8,26.5 32.1,26.5 31.9,29.1 34,29.1 	"/>
	<polygon class="st0" points="34,29.6 31.9,29.6 31.7,32.8 34.2,32.8 	"/>
	<polygon class="st0" points="31.3,39.9 31,45.8 34.9,45.8 34.6,39.9 	"/>
</g>
</svg>
