<?xml version="1.0" encoding="utf-8"?>
<!-- Generator: Adobe Illustrator 28.2.0, SVG Export Plug-In . SVG Version: 6.00 Build 0)  -->
<svg version="1.1" id="Layer_1" xmlns="http://www.w3.org/2000/svg" xmlns:xlink="http://www.w3.org/1999/xlink" x="0px" y="0px"
	 viewBox="0 0 150 150" style="enable-background:new 0 0 150 150;" xml:space="preserve">
<style type="text/css">
	.st0{clip-path:url(#SVGID_00000093856443449211527100000004888793619002567070_);fill:#FFFFFF;}
</style>
<g>
	<defs>
		<rect id="SVGID_1_" width="150" height="150"/>
	</defs>
	<clipPath id="SVGID_00000015324116553864181330000008353004147865267891_">
		<use xlink:href="#SVGID_1_"  style="overflow:visible;"/>
	</clipPath>
	<path style="clip-path:url(#SVGID_00000015324116553864181330000008353004147865267891_);fill:#FFFFFF;" d="M24,24
		c0-3.4,1.3-6.6,3.7-9c2.4-2.4,5.6-3.7,9-3.7h51c1.7,0,3.3,0.7,4.5,1.9L124.1,45c1.2,1.2,1.9,2.8,1.9,4.5V126c0,3.4-1.3,6.6-3.7,9
		c-2.4,2.4-5.6,3.7-9,3.7H36.8c-3.4,0-6.6-1.3-9-3.7c-2.4-2.4-3.7-5.6-3.7-9V24z M110.6,49.5L87.7,26.7v22.8H110.6z M75,24H36.8V126
		h76.4V62.3H81.4c-1.7,0-3.3-0.7-4.5-1.9S75,57.6,75,55.9V24z M98.6,76.9c1.2,1.2,1.9,2.8,1.9,4.5s-0.7,3.3-1.9,4.5l-25.5,25.5
		c-1.2,1.2-2.8,1.9-4.5,1.9s-3.3-0.7-4.5-1.9L51.4,98.6c-0.6-0.6-1.1-1.3-1.4-2.1c-0.3-0.8-0.5-1.6-0.5-2.5c0-0.8,0.2-1.7,0.5-2.5
		c0.3-0.8,0.8-1.5,1.4-2.1c0.6-0.6,1.3-1.1,2.1-1.4c0.8-0.3,1.6-0.5,2.5-0.5c0.8,0,1.7,0.2,2.5,0.5c0.8,0.3,1.5,0.8,2.1,1.4l8.2,8.2
		l21-21c1.2-1.2,2.8-1.9,4.5-1.9S97.4,75.7,98.6,76.9z"/>
</g>
</svg>
