<?xml version="1.0" encoding="utf-8"?>
<!-- Generator: Adobe Illustrator 28.2.0, SVG Export Plug-In . SVG Version: 6.00 Build 0)  -->
<svg version="1.1" id="Layer_1" xmlns="http://www.w3.org/2000/svg" xmlns:xlink="http://www.w3.org/1999/xlink" x="0px" y="0px"
	 viewBox="0 0 150 150" style="enable-background:new 0 0 150 150;" xml:space="preserve">
<style type="text/css">
	.st0{clip-path:url(#SVGID_00000078006463895194420330000005760870394965318272_);}
	.st1{fill:#FFFFFF;}
</style>
<g>
	<defs>
		<rect id="SVGID_1_" width="150" height="150"/>
	</defs>
	<clipPath id="SVGID_00000170994904724828001750000018389896182858102154_">
		<use xlink:href="#SVGID_1_"  style="overflow:visible;"/>
	</clipPath>
	<g style="clip-path:url(#SVGID_00000170994904724828001750000018389896182858102154_);">
		<path class="st1" d="M24,24c0-3.4,1.3-6.6,3.7-9c2.4-2.4,5.6-3.7,9-3.7h51c1.7,0,3.3,0.7,4.5,1.9L124.1,45
			c1.2,1.2,1.9,2.8,1.9,4.5V126c0,3.4-1.3,6.6-3.7,9c-2.4,2.4-5.6,3.7-9,3.7H36.8c-3.4,0-6.6-1.3-9-3.7c-2.4-2.4-3.7-5.6-3.7-9V24z
			 M110.6,49.5L87.7,26.7v22.8H110.6z M75,24H36.8V126h76.4V62.3H81.4c-1.7,0-3.3-0.7-4.5-1.9c-1.2-1.2-1.9-2.8-1.9-4.5V24z"/>
		<path class="st1" d="M97.7,108.7L83.7,94.7l14.1-14.1c0.3-0.3,0.4-0.6,0.4-1c0-0.4-0.2-0.8-0.4-1L91.1,72
			c-0.1-0.1-0.3-0.2-0.5-0.3c-0.2-0.1-0.4-0.1-0.6-0.1c-0.2,0-0.4,0-0.6,0.1c-0.2,0.1-0.3,0.2-0.5,0.3L75,86L60.9,72
			c-0.3-0.3-0.6-0.4-1-0.4c-0.4,0-0.8,0.2-1,0.4l-6.6,6.6c-0.1,0.1-0.2,0.3-0.3,0.5c-0.1,0.2-0.1,0.4-0.1,0.6c0,0.2,0,0.4,0.1,0.6
			c0.1,0.2,0.2,0.3,0.3,0.5l14.1,14.1l-14.1,14.1c-0.3,0.3-0.4,0.6-0.4,1c0,0.4,0.2,0.8,0.4,1l6.6,6.6c0.1,0.1,0.3,0.2,0.5,0.3
			c0.2,0.1,0.4,0.1,0.6,0.1c0.2,0,0.4,0,0.6-0.1c0.2-0.1,0.3-0.2,0.5-0.3L75,103.4l14.1,14.1c0.3,0.3,0.6,0.4,1,0.4
			c0.4,0,0.8-0.2,1-0.4l6.6-6.6c0.1-0.1,0.2-0.3,0.3-0.5c0.1-0.2,0.1-0.4,0.1-0.6c0-0.2,0-0.4-0.1-0.6C98,109,97.9,108.9,97.7,108.7
			z"/>
	</g>
</g>
</svg>
