<svg width="66" height="83" viewBox="0 0 66 83" fill="none" xmlns="http://www.w3.org/2000/svg">
<path d="M0 8.25C0 6.06196 0.869194 3.96354 2.41637 2.41637C3.96354 0.869194 6.06196 0 8.25 0H41.25C42.3439 0.000233629 43.393 0.434984 44.1664 1.20862L64.7914 21.8336C65.565 22.607 65.9998 23.6561 66 24.75V74.25C66 76.438 65.1308 78.5365 63.5836 80.0836C62.0365 81.6308 59.938 82.5 57.75 82.5H8.25C6.06196 82.5 3.96354 81.6308 2.41637 80.0836C0.869194 78.5365 0 76.438 0 74.25V8.25ZM56.0423 24.75L41.25 9.95775V24.75H56.0423ZM33 8.25H8.25V74.25H57.75V33H37.125C36.031 33 34.9818 32.5654 34.2082 31.7918C33.4346 31.0182 33 29.969 33 28.875V8.25Z" fill="white"/>
<path d="M47.7248 63.1003L38.6244 54L47.7248 44.8997C47.8991 44.7232 47.9969 44.485 47.9969 44.2369C47.9969 43.9888 47.8991 43.7507 47.7248 43.5742L43.4258 39.2752C43.3389 39.188 43.2356 39.1188 43.1219 39.0715C43.0082 39.0243 42.8862 39 42.7631 39C42.6399 39 42.518 39.0243 42.4043 39.0715C42.2905 39.1188 42.1872 39.188 42.1003 39.2752L33 48.3756L23.8997 39.2752C23.7239 39.0995 23.4855 39.0008 23.2369 39.0008C22.9884 39.0008 22.75 39.0995 22.5742 39.2752L18.2752 43.5742C18.188 43.6611 18.1188 43.7644 18.0715 43.8781C18.0243 43.9918 18 44.1138 18 44.2369C18 44.3601 18.0243 44.482 18.0715 44.5957C18.1188 44.7095 18.188 44.8128 18.2752 44.8997L27.3756 54L18.2752 63.1003C18.0995 63.2761 18.0008 63.5145 18.0008 63.7631C18.0008 64.0116 18.0995 64.25 18.2752 64.4258L22.5742 68.7248C22.6611 68.812 22.7644 68.8812 22.8781 68.9285C22.9918 68.9757 23.1138 69 23.2369 69C23.3601 69 23.482 68.9757 23.5957 68.9285C23.7095 68.8812 23.8128 68.812 23.8997 68.7248L33 59.6244L42.1003 68.7248C42.2761 68.9005 42.5145 68.9992 42.7631 68.9992C43.0116 68.9992 43.25 68.9005 43.4258 68.7248L47.7248 64.4258C47.812 64.3389 47.8812 64.2356 47.9285 64.1219C47.9757 64.0082 48 63.8862 48 63.7631C48 63.6399 47.9757 63.518 47.9285 63.4043C47.8812 63.2905 47.812 63.1872 47.7248 63.1003Z" fill="white"/>
</svg>
