<?xml version="1.0" encoding="UTF-8"?>
<svg id="Layer_1" data-name="Layer 1" xmlns="http://www.w3.org/2000/svg" xmlns:xlink="http://www.w3.org/1999/xlink" viewBox="0 0 150 150">
  <defs>
    <style>
      .cls-1 {
        fill: none;
      }

      .cls-1, .cls-2 {
        stroke-width: 0px;
      }

      .cls-2 {
        fill: #fff;
      }

      .cls-3 {
        clip-path: url(#clippath);
      }
    </style>
    <clipPath id="clippath">
      <rect class="cls-1" width="150" height="150"/>
    </clipPath>
  </defs>
  <g class="cls-3">
    <path class="cls-2" d="M49,42.59c-4.77,3.82-8.56,8.53-11.37,14.12-2.81,5.6-4.22,11.69-4.23,18.28,0,9.98,3.03,18.68,9.1,26.1,6.07,7.42,13.74,12.21,23.01,14.38,1.3.35,2.34,1.11,3.12,2.28.78,1.17,1.17,2.45,1.17,3.84s-.48,2.56-1.43,3.51c-.95.95-2.04,1.3-3.25,1.04-12.13-2.26-22.19-8.13-30.16-17.63-7.97-9.5-11.96-20.67-11.96-33.52,0-7.9,1.58-15.18,4.75-21.87,3.17-6.68,7.48-12.41,12.93-17.18h-7.28c-1.47,0-2.71-.5-3.7-1.5-.99-1-1.49-2.24-1.5-3.71,0-1.48.5-2.71,1.5-3.71,1-1,2.23-1.5,3.7-1.5h20.8c1.47,0,2.71.5,3.71,1.5,1,1,1.5,2.24,1.49,3.71v20.83c0,1.48-.5,2.71-1.5,3.71-1,1-2.23,1.5-3.7,1.49-1.47,0-2.71-.5-3.7-1.5-.99-1-1.49-2.24-1.5-3.71v-8.98ZM109.32,114.05h7.28c1.47,0,2.71.5,3.71,1.5,1,1,1.5,2.24,1.49,3.71,0,1.48-.5,2.71-1.5,3.71-1,1-2.23,1.5-3.7,1.49h-20.8c-1.47,0-2.71-.5-3.7-1.5-.99-1-1.49-2.24-1.5-3.71v-20.83c0-1.48.5-2.71,1.5-3.71,1-1,2.23-1.5,3.7-1.5,1.47,0,2.71.5,3.71,1.5,1,1,1.5,2.24,1.49,3.71v8.98c4.77-3.9,8.56-8.63,11.38-14.19,2.82-5.55,4.23-11.63,4.22-18.22,0-9.98-3.03-18.68-9.1-26.09-6.07-7.42-13.74-12.21-23.01-14.38-1.3-.35-2.34-1.11-3.12-2.28-.78-1.17-1.17-2.45-1.17-3.84s.48-2.56,1.43-3.51c.95-.95,2.04-1.3,3.25-1.04,12.13,2.26,22.19,8.14,30.16,17.64,7.97,9.5,11.96,20.67,11.96,33.51,0,7.9-1.58,15.18-4.75,21.87-3.17,6.68-7.48,12.41-12.93,17.18Z"/>
  </g>
</svg>