<svg width="68" height="67" viewBox="0 0 68 67" fill="none" xmlns="http://www.w3.org/2000/svg">
<path d="M17 12.3095C13.8833 14.8058 11.4047 17.8843 9.5642 21.5448C7.72367 25.2053 6.80227 29.1904 6.8 33.5C6.8 40.0245 8.78333 45.7128 12.75 50.5648C16.7167 55.4167 21.7317 58.5508 27.795 59.9669C28.645 60.1938 29.325 60.6908 29.835 61.4579C30.345 62.2249 30.6 63.0612 30.6 63.9667C30.6 64.8745 30.2883 65.6404 29.665 66.2645C29.0417 66.8886 28.3333 67.1155 27.54 66.9453C19.6067 65.4702 13.0333 61.6269 7.82 55.4156C2.60667 49.2043 0 41.899 0 33.5C0 28.3371 1.03473 23.5714 3.1042 19.2028C5.17367 14.8342 7.99227 11.0897 11.56 7.96924H6.8C5.83667 7.96924 5.02973 7.64245 4.3792 6.98886C3.72867 6.33527 3.40227 5.52737 3.4 4.56514C3.4 3.60065 3.7264 2.79274 4.3792 2.14142C5.032 1.49011 5.83893 1.16331 6.8 1.16104H20.4C21.3633 1.16104 22.1714 1.48784 22.8242 2.14142C23.477 2.79501 23.8023 3.60292 23.8 4.56514V18.1815C23.8 19.146 23.4736 19.9551 22.8208 20.6087C22.168 21.2623 21.3611 21.5879 20.4 21.5856C19.4367 21.5856 18.6297 21.2589 17.9792 20.6053C17.3287 19.9517 17.0023 19.1438 17 18.1815V12.3095ZM56.44 59.0308H61.2C62.1633 59.0308 62.9714 59.3576 63.6242 60.0111C64.277 60.6647 64.6023 61.4726 64.6 62.4349C64.6 63.3994 64.2736 64.2084 63.6208 64.862C62.968 65.5156 62.1611 65.8412 61.2 65.839H47.6C46.6367 65.839 45.8297 65.5122 45.1792 64.8586C44.5287 64.205 44.2023 63.3971 44.2 62.4349V48.8185C44.2 47.854 44.5264 47.046 45.1792 46.3947C45.832 45.7434 46.6389 45.4166 47.6 45.4144C48.5633 45.4144 49.3714 45.7411 50.0242 46.3947C50.677 47.0483 51.0023 47.8562 51 48.8185V54.6905C54.1167 52.1375 56.5964 49.0454 58.4392 45.4144C60.282 41.7833 61.2023 37.8119 61.2 33.5C61.2 26.9755 59.2167 21.2884 55.25 16.4386C51.2833 11.5889 46.2683 8.45376 40.205 7.03311C39.355 6.80617 38.675 6.31031 38.165 5.54552C37.655 4.78074 37.4 3.94333 37.4 3.0333C37.4 2.12554 37.7117 1.35961 38.335 0.735529C38.9583 0.111444 39.6667 -0.115496 40.46 0.0547087C48.3933 1.52982 54.9667 5.37418 60.18 11.5878C65.3933 17.8014 68 25.1055 68 33.5C68 38.6629 66.9653 43.4286 64.8958 47.7972C62.8263 52.1658 60.0077 55.9103 56.44 59.0308Z" fill="white"/>
</svg>
