<svg width="74" height="74" viewBox="0 0 74 74" fill="none" xmlns="http://www.w3.org/2000/svg">
<path d="M25.9 37.0074H18.5C17.5187 37.0074 16.5776 37.3971 15.8837 38.0908C15.1898 38.7846 14.8 39.7255 14.8 40.7066C14.8 41.6877 15.1898 42.6286 15.8837 43.3224C16.5776 44.0161 17.5187 44.4059 18.5 44.4059H25.9C26.8813 44.4059 27.8224 44.0161 28.5163 43.3224C29.2102 42.6286 29.6 41.6877 29.6 40.7066C29.6 39.7255 29.2102 38.7846 28.5163 38.0908C27.8224 37.3971 26.8813 37.0074 25.9 37.0074ZM22.2 29.6088H37C37.9813 29.6088 38.9224 29.2191 39.6163 28.5253C40.3102 27.8316 40.7 26.8907 40.7 25.9096C40.7 24.9284 40.3102 23.9875 39.6163 23.2938C38.9224 22.6 37.9813 22.2103 37 22.2103H22.2C21.2187 22.2103 20.2776 22.6 19.5837 23.2938C18.8898 23.9875 18.5 24.9284 18.5 25.9096C18.5 26.8907 18.8898 27.8316 19.5837 28.5253C20.2776 29.2191 21.2187 29.6088 22.2 29.6088ZM25.9 51.8044H18.5C17.5187 51.8044 16.5776 52.1942 15.8837 52.8879C15.1898 53.5816 14.8 54.5226 14.8 55.5037C14.8 56.4848 15.1898 57.4257 15.8837 58.1195C16.5776 58.8132 17.5187 59.2029 18.5 59.2029H25.9C26.8813 59.2029 27.8224 58.8132 28.5163 58.1195C29.2102 57.4257 29.6 56.4848 29.6 55.5037C29.6 54.5226 29.2102 53.5816 28.5163 52.8879C27.8224 52.1942 26.8813 51.8044 25.9 51.8044ZM70.3 37.0074H59.2V3.71397C59.2026 3.06212 59.0329 2.42116 58.708 1.856C58.3831 1.29083 57.9146 0.821529 57.35 0.495608C56.7875 0.170929 56.1495 0 55.5 0C54.8505 0 54.2125 0.170929 53.65 0.495608L42.55 6.85834L31.45 0.495608C30.8875 0.170929 30.2495 0 29.6 0C28.9505 0 28.3125 0.170929 27.75 0.495608L16.65 6.85834L5.55003 0.495608C4.98756 0.170929 4.34951 0 3.70003 0C3.05054 0 2.4125 0.170929 1.85003 0.495608C1.28539 0.821529 0.81692 1.29083 0.492048 1.856C0.167176 2.42116 -0.00255923 3.06212 2.91667e-05 3.71397V62.9022C2.91667e-05 65.8455 1.16949 68.6683 3.25114 70.7495C5.3328 72.8308 8.15612 74 11.1 74H62.9C65.8439 74 68.6672 72.8308 70.7489 70.7495C72.8305 68.6683 74 65.8455 74 62.9022V40.7066C74 39.7255 73.6102 38.7846 72.9163 38.0908C72.2224 37.3971 71.2813 37.0074 70.3 37.0074ZM11.1 66.6015C10.1187 66.6015 9.17762 66.2117 8.48373 65.518C7.78985 64.8242 7.40003 63.8833 7.40003 62.9022V10.1137L14.8 14.3309C15.3711 14.6291 16.0058 14.7848 16.65 14.7848C17.2943 14.7848 17.929 14.6291 18.5 14.3309L29.6 7.96812L40.7 14.3309C41.2711 14.6291 41.9058 14.7848 42.55 14.7848C43.1943 14.7848 43.829 14.6291 44.4 14.3309L51.8 10.1137V62.9022C51.81 64.1642 52.0352 65.4152 52.466 66.6015H11.1ZM66.6 62.9022C66.6 63.8833 66.2102 64.8242 65.5163 65.518C64.8224 66.2117 63.8813 66.6015 62.9 66.6015C61.9187 66.6015 60.9776 66.2117 60.2837 65.518C59.5898 64.8242 59.2 63.8833 59.2 62.9022V44.4059H66.6V62.9022ZM42.772 52.4333C42.5658 52.2933 42.3418 52.1813 42.106 52.1004C41.8857 51.9877 41.6481 51.9127 41.403 51.8784C40.8086 51.7594 40.194 51.7882 39.6134 51.9624C39.0327 52.1366 38.5038 52.4507 38.073 52.8772C37.3969 53.5861 37.0136 54.5242 37 55.5037C36.9941 55.9846 37.0821 56.4621 37.259 56.9094C37.4601 57.359 37.7353 57.7716 38.073 58.1302C38.4327 58.4569 38.8456 58.7197 39.294 58.907C39.7369 59.1027 40.2158 59.2038 40.7 59.2038C41.1842 59.2038 41.6631 59.1027 42.106 58.907C42.5544 58.7197 42.9674 58.4569 43.327 58.1302C43.6699 57.7845 43.9412 57.3746 44.1254 56.9239C44.3095 56.4731 44.4028 55.9905 44.4 55.5037C44.3864 54.5242 44.0031 53.5861 43.327 52.8772C43.1512 52.7181 42.9658 52.5699 42.772 52.4333ZM43.29 38.0801C42.858 37.6595 42.3296 37.3508 41.751 37.1809C41.1724 37.0111 40.561 36.9852 39.9701 37.1055C39.3792 37.2259 38.8266 37.4888 38.3606 37.8714C37.8945 38.2541 37.529 38.7448 37.296 39.3009C37.0657 39.8613 36.9766 40.4697 37.0366 41.0726C37.0966 41.6756 37.3037 42.2545 37.6399 42.7586C37.976 43.2628 38.4309 43.6766 38.9644 43.9639C39.498 44.2511 40.094 44.4029 40.7 44.4059C41.6813 44.4059 42.6224 44.0161 43.3163 43.3224C44.0102 42.6286 44.4 41.6877 44.4 40.7066C44.3942 40.2232 44.2936 39.7456 44.104 39.3009C43.9258 38.8391 43.6478 38.4223 43.29 38.0801Z" fill="white"/>
</svg>
