<?xml version="1.0" encoding="utf-8"?>
<!-- Generator: Adobe Illustrator 28.2.0, SVG Export Plug-In . SVG Version: 6.00 Build 0)  -->
<svg version="1.1" id="Layer_1" xmlns="http://www.w3.org/2000/svg" xmlns:xlink="http://www.w3.org/1999/xlink" x="0px" y="0px"
	 viewBox="0 0 150 150" style="enable-background:new 0 0 150 150;" xml:space="preserve">
<style type="text/css">
	.st0{clip-path:url(#SVGID_00000037680053906412678690000000277654126013899928_);fill:#FFFFFF;}
</style>
<g>
	<defs>
		<rect id="SVGID_1_" width="150" height="150"/>
	</defs>
	<clipPath id="SVGID_00000015315566745670363080000009054564686758130050_">
		<use xlink:href="#SVGID_1_"  style="overflow:visible;"/>
	</clipPath>
	<path style="clip-path:url(#SVGID_00000015315566745670363080000009054564686758130050_);fill:#FFFFFF;" d="M60.9,75h-9.4
		c-1.2,0-2.4,0.5-3.3,1.4c-0.9,0.9-1.4,2.1-1.4,3.3s0.5,2.4,1.4,3.3c0.9,0.9,2.1,1.4,3.3,1.4h9.4c1.2,0,2.4-0.5,3.3-1.4
		c0.9-0.9,1.4-2.1,1.4-3.3s-0.5-2.4-1.4-3.3C63.4,75.5,62.2,75,60.9,75z M56.2,65.6H75c1.2,0,2.4-0.5,3.3-1.4
		c0.9-0.9,1.4-2.1,1.4-3.3c0-1.2-0.5-2.4-1.4-3.3c-0.9-0.9-2.1-1.4-3.3-1.4H56.2c-1.2,0-2.4,0.5-3.3,1.4c-0.9,0.9-1.4,2.1-1.4,3.3
		c0,1.2,0.5,2.4,1.4,3.3C53.8,65.1,55,65.6,56.2,65.6z M60.9,93.8h-9.4c-1.2,0-2.4,0.5-3.3,1.4s-1.4,2.1-1.4,3.3s0.5,2.4,1.4,3.3
		c0.9,0.9,2.1,1.4,3.3,1.4h9.4c1.2,0,2.4-0.5,3.3-1.4c0.9-0.9,1.4-2.1,1.4-3.3s-0.5-2.4-1.4-3.3C63.4,94.3,62.2,93.8,60.9,93.8z
		 M117.2,75h-14.1V32.8c0-0.8-0.2-1.6-0.6-2.4c-0.4-0.7-1-1.3-1.7-1.7c-0.7-0.4-1.5-0.6-2.3-0.6c-0.8,0-1.6,0.2-2.3,0.6L82,36.8
		L68,28.7c-0.7-0.4-1.5-0.6-2.3-0.6c-0.8,0-1.6,0.2-2.3,0.6l-14.1,8.1l-14.1-8.1c-0.7-0.4-1.5-0.6-2.3-0.6c-0.8,0-1.6,0.2-2.3,0.6
		c-0.7,0.4-1.3,1-1.7,1.7c-0.4,0.7-0.6,1.5-0.6,2.4v75c0,3.7,1.5,7.3,4.1,9.9c2.6,2.6,6.2,4.1,9.9,4.1h65.7c3.7,0,7.3-1.5,9.9-4.1
		c2.6-2.6,4.1-6.2,4.1-9.9V79.7c0-1.2-0.5-2.4-1.4-3.3C119.6,75.5,118.4,75,117.2,75z M42.2,112.5c-1.2,0-2.4-0.5-3.3-1.4
		c-0.9-0.9-1.4-2.1-1.4-3.3V40.9l9.4,5.3c0.7,0.4,1.5,0.6,2.3,0.6c0.8,0,1.6-0.2,2.3-0.6l14.1-8.1l14.1,8.1c0.7,0.4,1.5,0.6,2.3,0.6
		c0.8,0,1.6-0.2,2.3-0.6l9.4-5.3v66.9c0,1.6,0.3,3.2,0.8,4.7H42.2z M112.5,107.8c0,1.2-0.5,2.4-1.4,3.3c-0.9,0.9-2.1,1.4-3.3,1.4
		c-1.2,0-2.4-0.5-3.3-1.4c-0.9-0.9-1.4-2.1-1.4-3.3V84.4h9.4V107.8z M82.3,94.6c-0.3-0.2-0.5-0.3-0.8-0.4c-0.3-0.1-0.6-0.2-0.9-0.3
		c-0.8-0.2-1.5-0.1-2.3,0.1c-0.7,0.2-1.4,0.6-2,1.2C75.5,96,75,97.2,75,98.5c0,0.6,0.1,1.2,0.3,1.8c0.3,0.6,0.6,1.1,1,1.5
		c0.5,0.4,1,0.7,1.5,1c0.6,0.2,1.2,0.4,1.8,0.4s1.2-0.1,1.8-0.4c0.6-0.2,1.1-0.6,1.5-1c0.4-0.4,0.8-1,1-1.5c0.2-0.6,0.4-1.2,0.3-1.8
		c0-1.2-0.5-2.4-1.4-3.3C82.8,94.9,82.6,94.7,82.3,94.6z M83,76.4c-0.5-0.5-1.2-0.9-2-1.1c-0.7-0.2-1.5-0.2-2.3-0.1
		c-0.7,0.2-1.4,0.5-2,1c-0.6,0.5-1.1,1.1-1.3,1.8c-0.3,0.7-0.4,1.5-0.3,2.2c0.1,0.8,0.3,1.5,0.8,2.1c0.4,0.6,1,1.2,1.7,1.5
		c0.7,0.4,1.4,0.6,2.2,0.6c1.2,0,2.4-0.5,3.3-1.4c0.9-0.9,1.4-2.1,1.4-3.3c0-0.6-0.1-1.2-0.4-1.8C83.8,77.3,83.4,76.8,83,76.4z"/>
</g>
</svg>
