<svg width="71" height="50" viewBox="0 0 71 50" fill="none" xmlns="http://www.w3.org/2000/svg">
<path d="M7.1 0H63.9C65.783 0 67.5889 0.752549 68.9205 2.09209C70.252 3.43164 71 5.24845 71 7.14286V42.8571C71 44.7515 70.252 46.5684 68.9205 47.9079C67.5889 49.2474 65.783 50 63.9 50H7.1C5.21696 50 3.41105 49.2474 2.07954 47.9079C0.748034 46.5684 0 44.7515 0 42.8571V7.14286C0 5.24845 0.748034 3.43164 2.07954 2.09209C3.41105 0.752549 5.21696 0 7.1 0ZM7.1 7.14286V42.8571H63.9V7.14286H7.1ZM39.05 14.2857H56.8C57.7415 14.2857 58.6445 14.662 59.3102 15.3318C59.976 16.0015 60.35 16.9099 60.35 17.8571C60.35 18.8043 59.976 19.7128 59.3102 20.3825C58.6445 21.0523 57.7415 21.4286 56.8 21.4286H39.05C38.1085 21.4286 37.2055 21.0523 36.5398 20.3825C35.874 19.7128 35.5 18.8043 35.5 17.8571C35.5 16.9099 35.874 16.0015 36.5398 15.3318C37.2055 14.662 38.1085 14.2857 39.05 14.2857ZM39.05 25H56.8C57.7415 25 58.6445 25.3763 59.3102 26.046C59.976 26.7158 60.35 27.6242 60.35 28.5714C60.35 29.5186 59.976 30.427 59.3102 31.0968C58.6445 31.7666 57.7415 32.1429 56.8 32.1429H39.05C38.1085 32.1429 37.2055 31.7666 36.5398 31.0968C35.874 30.427 35.5 29.5186 35.5 28.5714C35.5 27.6242 35.874 26.7158 36.5398 26.046C37.2055 25.3763 38.1085 25 39.05 25ZM14.2 14.2857H24.85C25.7915 14.2857 26.6945 14.662 27.3602 15.3318C28.026 16.0015 28.4 16.9099 28.4 17.8571V28.5714C28.4 29.5186 28.026 30.427 27.3602 31.0968C26.6945 31.7666 25.7915 32.1429 24.85 32.1429H14.2C13.2585 32.1429 12.3555 31.7666 11.6898 31.0968C11.024 30.427 10.65 29.5186 10.65 28.5714V17.8571C10.65 16.9099 11.024 16.0015 11.6898 15.3318C12.3555 14.662 13.2585 14.2857 14.2 14.2857Z" fill="white"/>
</svg>
