<?xml version="1.0" encoding="utf-8"?>
<!-- Generator: Adobe Illustrator 28.2.0, SVG Export Plug-In . SVG Version: 6.00 Build 0)  -->
<svg version="1.1" id="Layer_1" xmlns="http://www.w3.org/2000/svg" xmlns:xlink="http://www.w3.org/1999/xlink" x="0px" y="0px"
	 viewBox="0 0 150 150" style="enable-background:new 0 0 150 150;" xml:space="preserve">
<style type="text/css">
	.st0{clip-path:url(#SVGID_00000062900816809880530390000017001796935038494354_);fill:#FFFFFF;}
</style>
<g>
	<defs>
		<rect id="SVGID_1_" width="150" height="150"/>
	</defs>
	<clipPath id="SVGID_00000096034944931295292990000008952332121424057246_">
		<use xlink:href="#SVGID_1_"  style="overflow:visible;"/>
	</clipPath>
	<path style="clip-path:url(#SVGID_00000096034944931295292990000008952332121424057246_);fill:#FFFFFF;" d="M29.9,35.3h90.1
		c3,0,5.9,1.2,8,3.3c2.1,2.1,3.3,5,3.3,8v56.7c0,3-1.2,5.9-3.3,8c-2.1,2.1-5,3.3-8,3.3H29.9c-3,0-5.9-1.2-8-3.3
		c-2.1-2.1-3.3-5-3.3-8V46.7c0-3,1.2-5.9,3.3-8C24.1,36.5,26.9,35.3,29.9,35.3z M29.9,46.7v56.7h90.1V46.7H29.9z M80.6,58h28.2
		c1.5,0,2.9,0.6,4,1.7c1.1,1.1,1.7,2.5,1.7,4s-0.6,2.9-1.7,4c-1.1,1.1-2.5,1.7-4,1.7H80.6c-1.5,0-2.9-0.6-4-1.7
		c-1.1-1.1-1.7-2.5-1.7-4s0.6-2.9,1.7-4C77.7,58.6,79.1,58,80.6,58z M80.6,75h28.2c1.5,0,2.9,0.6,4,1.7c1.1,1.1,1.7,2.5,1.7,4
		s-0.6,2.9-1.7,4c-1.1,1.1-2.5,1.7-4,1.7H80.6c-1.5,0-2.9-0.6-4-1.7c-1.1-1.1-1.7-2.5-1.7-4s0.6-2.9,1.7-4
		C77.7,75.6,79.1,75,80.6,75z M41.2,58h16.9c1.5,0,2.9,0.6,4,1.7c1.1,1.1,1.7,2.5,1.7,4v17c0,1.5-0.6,2.9-1.7,4
		c-1.1,1.1-2.5,1.7-4,1.7H41.2c-1.5,0-2.9-0.6-4-1.7c-1.1-1.1-1.7-2.5-1.7-4v-17c0-1.5,0.6-2.9,1.7-4C38.3,58.6,39.7,58,41.2,58z"/>
</g>
</svg>
