<?xml version="1.0" encoding="UTF-8"?>
<svg id="Layer_1" data-name="Layer 1" xmlns="http://www.w3.org/2000/svg" xmlns:xlink="http://www.w3.org/1999/xlink" viewBox="0 0 150 150">
  <defs>
    <style>
      .cls-1 {
        fill: none;
      }

      .cls-1, .cls-2 {
        stroke-width: 0px;
      }

      .cls-2 {
        fill: #fff;
      }

      .cls-3 {
        clip-path: url(#clippath);
      }
    </style>
    <clipPath id="clippath">
      <rect class="cls-1" width="150" height="150"/>
    </clipPath>
  </defs>
  <g class="cls-3">
    <g>
      <path class="cls-2" d="M117.6,97.18l-4.21-8.3s.99-.33,3.17-1.4c1.04-.51,1.84-1.42,2.21-2.51.37-1.09.28-2.28-.24-3.31-.52-1.03-1.44-1.81-2.54-2.18-1.11-.36-2.32-.28-3.36.23-1.04.51-2.11.95-3.18,1.38l-6.08-11.99c-1.1-2.16-2.78-3.98-4.87-5.25-2.08-1.27-4.49-1.94-6.94-1.94h-33.12c-2.45,0-4.85.67-6.94,1.94-2.08,1.27-3.77,3.09-4.87,5.25l-6.09,11.99c-1.06-.43-2.13-.87-3.16-1.37-1.05-.51-2.26-.59-3.36-.23-1.11.36-2.03,1.14-2.56,2.16-.26.51-.41,1.07-.45,1.64-.04.57.03,1.14.22,1.68.18.54.47,1.04.85,1.47.38.43.84.78,1.36,1.04,1.04.49,2.09.96,3.16,1.39l-4.21,8.3c-.92,1.81-1.39,3.8-1.39,5.82v10.96c0,3.85,1.7,7.31,4.4,9.7v5.48c0,1.73.7,3.38,1.93,4.6,1.24,1.22,2.92,1.91,4.67,1.91s3.43-.69,4.67-1.91c1.24-1.22,1.93-2.87,1.93-4.6v-2.17h52.8v2.17c0,1.73.7,3.38,1.93,4.6,1.24,1.22,2.92,1.91,4.67,1.91s3.43-.69,4.67-1.91c1.24-1.22,1.93-2.87,1.93-4.6v-5.48c1.39-1.22,2.5-2.71,3.25-4.38.76-1.67,1.15-3.48,1.15-5.31v-10.96c0-2.02-.48-4.01-1.39-5.82ZM54.51,72.99c.37-.72.93-1.33,1.62-1.75.69-.42,1.5-.65,2.31-.65h33.12c.82,0,1.62.22,2.31.65.69.42,1.26,1.03,1.62,1.75l5.58,11c-6.81,2.02-15.98,3.95-26.08,3.95s-19.27-1.93-26.08-3.95l5.59-11ZM110.2,113.96c0,1.15-.46,2.25-1.29,3.07-.83.81-1.94,1.27-3.11,1.27h-61.6c-1.17,0-2.29-.46-3.11-1.27-.83-.81-1.29-1.92-1.29-3.07v-10.96c0-.67.16-1.34.47-1.94l4.66-9.19c7.48,2.32,18.12,4.75,30.07,4.75s22.59-2.42,30.07-4.75l4.66,9.2c.31.6.47,1.27.47,1.94v10.96Z"/>
      <path class="cls-2" d="M55.2,100.95c-1.75,0-3.43.69-4.67,1.91-1.24,1.22-1.93,2.87-1.93,4.6s.7,3.38,1.93,4.6c1.24,1.22,2.92,1.91,4.67,1.91s3.43-.69,4.67-1.91c1.24-1.22,1.93-2.87,1.93-4.6s-.7-3.38-1.93-4.6c-1.24-1.22-2.92-1.91-4.67-1.91Z"/>
      <path class="cls-2" d="M94.8,100.95c-1.75,0-3.43.69-4.67,1.91-1.24,1.22-1.93,2.87-1.93,4.6s.7,3.38,1.93,4.6,2.92,1.91,4.67,1.91,3.43-.69,4.67-1.91c1.24-1.22,1.93-2.87,1.93-4.6s-.7-3.38-1.93-4.6c-1.24-1.22-2.92-1.91-4.67-1.91Z"/>
      <path class="cls-2" d="M61.22,50.03c1.15,0,2.18-.45,2.92-1.19l.02.02,7.36-7.21c2.05,1.01,4.3,1.53,6.59,1.53,8.13,0,14.72-6.45,14.72-14.41s-6.59-14.41-14.72-14.41-14.72,6.45-14.72,14.41c0,2.62.73,5.19,2.11,7.44l-7.14,6.99.02.02c-.76.71-1.23,1.73-1.23,2.87,0,2.21,1.8,3.94,4.06,3.94ZM78.21,19.49c5.08,0,9.2,4.03,9.2,9.01,0,4.97-4.12,9.01-9.2,9.01s-9.2-4.03-9.2-9.01,4.12-9.01,9.2-9.01Z"/>
    </g>
  </g>
</svg>