<svg width="55" height="75" viewBox="0 0 55 75" fill="none" xmlns="http://www.w3.org/2000/svg">
<path d="M37.9949 29.4117C39.5103 29.4118 40.9958 29.8278 42.285 30.613C43.5741 31.3983 44.616 32.5219 45.2939 33.8579L49.0563 41.2727C49.7201 41.0046 50.3811 40.7337 51.0232 40.42C51.6689 40.102 52.4163 40.05 53.101 40.2753C53.7857 40.5006 54.3515 40.9848 54.674 41.6213C54.9965 42.2579 55.0493 42.9946 54.8207 43.6695C54.5922 44.3444 54.101 44.9022 53.4552 45.2201C52.1113 45.8798 51.4965 46.0836 51.4965 46.0836L54.0973 51.2136C54.6659 52.3319 54.9597 53.5628 54.9597 54.8124V61.5916C54.9614 62.7238 54.7198 63.8435 54.2509 64.8769C53.782 65.9104 53.0964 66.8343 52.2392 67.5878V70.9775C52.2392 72.0443 51.8093 73.0674 51.044 73.8218C50.2787 74.5761 49.2408 74.9999 48.1585 74.9999C47.0763 74.9999 46.0383 74.5761 45.2731 73.8218C44.5078 73.0674 44.0778 72.0443 44.0778 70.9775V69.6366H11.4324V70.9775C11.4324 72.0443 11.0025 73.0674 10.2372 73.8218C9.47193 74.5761 8.434 74.9999 7.35173 74.9999C6.26947 74.9999 5.23153 74.5761 4.46626 73.8218C3.70098 73.0674 3.27105 72.0443 3.27105 70.9775V67.5878C1.60069 66.1129 0.550599 63.973 0.550599 61.5916V54.8124C0.551108 53.564 0.846356 52.3328 1.41298 51.2163L4.01374 46.0836C3.35481 45.8143 2.70348 45.5272 2.06045 45.2228C1.73979 45.066 1.45367 44.8483 1.21851 44.5823C0.983345 44.3163 0.803752 44.0071 0.690025 43.6725C0.576297 43.338 0.530672 42.9846 0.555764 42.6326C0.580856 42.2806 0.676171 41.9369 0.836247 41.6213C1.16588 40.9881 1.73491 40.508 2.4205 40.2848C3.10609 40.0615 3.85325 40.113 4.5007 40.428C5.14 40.7337 5.79563 41.0099 6.45398 41.2727L10.2164 33.8579C10.8943 32.5219 11.9361 31.3983 13.2253 30.613C14.5144 29.8278 15.9999 29.4118 17.5153 29.4117H37.9949ZM46.3467 47.9259C41.7219 49.366 35.1412 50.865 27.7551 50.865C20.3691 50.865 13.7883 49.3633 9.16355 47.9259L6.27987 53.611C6.09027 53.9839 5.99153 54.3953 5.99151 54.8124V61.5916C5.99151 62.3029 6.27812 62.985 6.78831 63.4879C7.29849 63.9908 7.99045 64.2733 8.71196 64.2733H46.7983C47.5198 64.2733 48.2118 63.9908 48.722 63.4879C49.2321 62.985 49.5188 62.3029 49.5188 61.5916V54.8124C49.5183 54.3962 49.4196 53.9858 49.2304 53.6137L46.3467 47.9259ZM15.5131 53.5467C16.5954 53.5467 17.6333 53.9705 18.3986 54.7248C19.1638 55.4792 19.5938 56.5023 19.5938 57.5692C19.5938 58.636 19.1638 59.6591 18.3986 60.4135C17.6333 61.1679 16.5954 61.5916 15.5131 61.5916C14.4308 61.5916 13.3929 61.1679 12.6276 60.4135C11.8623 59.6591 11.4324 58.636 11.4324 57.5692C11.4324 56.5023 11.8623 55.4792 12.6276 54.7248C13.3929 53.9705 14.4308 53.5467 15.5131 53.5467ZM39.9972 53.5467C41.0794 53.5467 42.1174 53.9705 42.8826 54.7248C43.6479 55.4792 44.0778 56.5023 44.0778 57.5692C44.0778 58.636 43.6479 59.6591 42.8826 60.4135C42.1174 61.1679 41.0794 61.5916 39.9972 61.5916C38.9149 61.5916 37.877 61.1679 37.1117 60.4135C36.3464 59.6591 35.9165 58.636 35.9165 57.5692C35.9165 56.5023 36.3464 55.4792 37.1117 54.7248C37.877 53.9705 38.9149 53.5467 39.9972 53.5467ZM37.9949 34.7751H17.5153C17.0103 34.7753 16.5152 34.9142 16.0857 35.1761C15.6561 35.438 15.309 35.8126 15.0833 36.258L11.6283 43.0614C15.8395 44.3084 21.5144 45.5017 27.7551 45.5017C33.9958 45.5017 39.6707 44.3084 43.8793 43.0614L40.427 36.258C40.2012 35.8126 39.8541 35.438 39.4246 35.1761C38.995 34.9142 38.5 34.7753 37.9949 34.7751Z" fill="white"/>
<path d="M29.6819 0C24.6529 0 20.5789 3.99001 20.5789 8.91062C20.5763 10.5317 21.0277 12.1224 21.884 13.5099L17.4706 17.8302L17.4859 17.8452C17.0149 18.2865 16.7256 18.9131 16.7256 19.6212C16.7253 20.9893 17.8387 22.0591 19.2348 22.0588C19.948 22.0585 20.5857 21.7792 21.0409 21.3248L21.052 21.3357L25.6056 16.8778C26.8705 17.4995 28.2665 17.8226 29.6819 17.8212C34.7112 17.8212 38.7844 13.8318 38.7844 8.91062C38.7844 3.99001 34.7109 0 29.6819 0ZM29.7371 14.3174C26.5938 14.3174 24.0476 11.8241 24.0476 8.74828C24.0476 5.673 26.5938 3.17914 29.7371 3.17914C32.8804 3.17914 35.426 5.67273 35.426 8.74828C35.4263 11.8241 32.8804 14.3174 29.7371 14.3174Z" fill="white"/>
</svg>
