<svg width="58" height="80" viewBox="0 0 58 80" fill="none" xmlns="http://www.w3.org/2000/svg">
<path d="M25.4021 28.737C25.8586 28.1848 26.0869 27.5143 26.0869 26.7255C26.0869 25.9511 26.0325 25.2304 25.9238 24.5635C25.8151 23.8966 25.6376 23.2512 25.3912 22.6274C25.1448 22.0035 24.7753 21.5123 24.2825 21.1537C23.7898 20.7952 23.2028 20.6159 22.5217 20.6159C21.5941 21.5338 20.4637 21.9927 19.1303 21.9927C17.797 21.9927 16.6666 21.5338 15.739 20.6159C15.0579 20.6159 14.4709 20.7952 13.9782 21.1537C13.4854 21.5123 13.1159 22.0035 12.8695 22.6274C12.6231 23.2512 12.4456 23.8966 12.3369 24.5635C12.2282 25.2304 12.1738 25.9511 12.1738 26.7255C12.1738 27.5143 12.4021 28.1848 12.8586 28.737C13.3151 29.2891 13.8622 29.5652 14.4999 29.5652H23.7608C24.3985 29.5652 24.9456 29.2891 25.4021 28.737Z" fill="white"/>
<path d="M22.0869 20.0996C22.8985 19.2965 23.3043 18.3212 23.3043 17.1739C23.3043 16.0265 22.8985 15.0513 22.0869 14.2482C21.2753 13.445 20.2898 13.0435 19.1303 13.0435C17.9709 13.0435 16.9854 13.445 16.1738 14.2482C15.3622 15.0513 14.9564 16.0265 14.9564 17.1739C14.9564 18.3212 15.3622 19.2965 16.1738 20.0996C16.9854 20.9028 17.9709 21.3043 19.1303 21.3043C20.2898 21.3043 21.2753 20.9028 22.0869 20.0996Z" fill="white"/>
<path d="M12.1738 35.2188H45.2173V40.9579H12.1738V35.2188ZM12.1738 46.6971H45.2173V52.4362H12.1738V46.6971ZM12.1738 58.1753H28.6956V63.9145H12.1738V58.1753Z" fill="white"/>
<path d="M45.2173 12.9565H28.6956V18.6957H45.2173V12.9565Z" fill="white"/>
<path d="M51.6522 80H5.73913C4.21748 79.9985 2.7586 79.396 1.68263 78.3247C0.606664 77.2533 0.00151937 75.8008 0 74.2857V5.71429C0.00151937 4.19923 0.606664 2.74665 1.68263 1.67535C2.7586 0.604038 4.21748 0.00151279 5.73913 0H51.6522C53.1738 0.00151279 54.6327 0.604038 55.7087 1.67535C56.7846 2.74665 57.3898 4.19923 57.3913 5.71429V74.2857C57.3898 75.8008 56.7846 77.2533 55.7087 78.3247C54.6327 79.396 53.1738 79.9985 51.6522 80ZM5.73913 5.71429V74.2857H51.6522V5.71429H5.73913Z" fill="white"/>
</svg>
