<?xml version="1.0" encoding="UTF-8"?>
<svg id="Layer_1" data-name="Layer 1" xmlns="http://www.w3.org/2000/svg" xmlns:xlink="http://www.w3.org/1999/xlink" viewBox="0 0 150 150">
  <defs>
    <style>
      .cls-1 {
        fill: none;
      }

      .cls-1, .cls-2 {
        stroke-width: 0px;
      }

      .cls-2 {
        fill: #fff;
      }

      .cls-3 {
        clip-path: url(#clippath);
      }
    </style>
    <clipPath id="clippath">
      <rect class="cls-1" width="150" height="150"/>
    </clipPath>
  </defs>
  <g class="cls-3">
    <g>
      <path class="cls-2" d="M55.71,60.82h12.59c.87,0,1.61-.38,2.23-1.13.62-.75.93-1.66.93-2.73s-.07-2.03-.22-2.94c-.15-.91-.39-1.78-.72-2.63-.33-.85-.84-1.52-1.51-2-.67-.49-1.47-.73-2.39-.73-1.26,1.25-2.8,1.87-4.61,1.87s-3.35-.62-4.61-1.87c-.93,0-1.72.24-2.39.73-.67.49-1.17,1.15-1.51,2-.33.85-.58,1.72-.72,2.63-.15.91-.22,1.89-.22,2.94s.31,1.98.93,2.73c.62.75,1.36,1.13,2.23,1.13Z"/>
      <path class="cls-2" d="M62,49.59c1.58,0,2.92-.55,4.02-1.64,1.1-1.09,1.65-2.42,1.65-3.98s-.55-2.88-1.65-3.98c-1.1-1.09-2.44-1.64-4.02-1.64s-2.92.55-4.02,1.64c-1.1,1.09-1.65,2.42-1.65,3.98s.55,2.88,1.65,3.98c1.1,1.09,2.44,1.64,4.02,1.64Z"/>
      <rect class="cls-2" x="52.55" y="84.1" width="44.91" height="7.8"/>
      <rect class="cls-2" x="52.55" y="99.7" width="22.45" height="7.8"/>
      <rect class="cls-2" x="52.55" y="68.5" width="44.91" height="7.8"/>
      <rect class="cls-2" x="75" y="38.25" width="22.45" height="7.8"/>
      <path class="cls-2" d="M111.71,22.91c-1.46-1.46-3.45-2.27-5.51-2.28h-62.4c-2.07,0-4.05.82-5.51,2.28-1.46,1.46-2.28,3.43-2.29,5.49v93.19c0,2.06.82,4.03,2.29,5.49,1.46,1.46,3.45,2.27,5.51,2.28h62.4c2.07,0,4.05-.82,5.51-2.28,1.46-1.46,2.28-3.43,2.29-5.49V28.4c0-2.06-.82-4.03-2.29-5.49ZM106.2,121.6h-62.4V28.4h62.4v93.19Z"/>
    </g>
  </g>
</svg>