<?xml version="1.0" encoding="UTF-8"?>
<svg id="Layer_1" data-name="Layer 1" xmlns="http://www.w3.org/2000/svg" xmlns:xlink="http://www.w3.org/1999/xlink" viewBox="0 0 150 150">
  <defs>
    <style>
      .cls-1 {
        fill: none;
      }

      .cls-1, .cls-2 {
        stroke-width: 0px;
      }

      .cls-2 {
        fill: #fff;
      }

      .cls-3 {
        clip-path: url(#clippath);
      }
    </style>
    <clipPath id="clippath">
      <rect class="cls-1" width="150" height="150"/>
    </clipPath>
  </defs>
  <g class="cls-3">
    <g>
      <path class="cls-2" d="M137.33,42H12.67c-2.02,0-3.67,1.64-3.67,3.67v58.67c0,2.02,1.64,3.67,3.67,3.67h124.67c2.02,0,3.67-1.64,3.67-3.67v-58.67c0-2.02-1.64-3.67-3.67-3.67ZM134.89,101.89H15.11v-53.78h119.78v53.78Z"/>
      <path class="cls-2" d="M37.11,60.33h20.78c1.35,0,2.44-1.09,2.44-2.44s-1.09-2.44-2.44-2.44h-20.78c-1.35,0-2.44,1.09-2.44,2.44s1.09,2.44,2.44,2.44Z"/>
      <path class="cls-2" d="M57.89,90.89h-20.78c-1.35,0-2.44,1.09-2.44,2.44s1.09,2.44,2.44,2.44h20.78c1.35,0,2.44-1.09,2.44-2.44s-1.09-2.44-2.44-2.44Z"/>
      <path class="cls-2" d="M92.11,60.33h20.78c1.35,0,2.44-1.09,2.44-2.44s-1.09-2.44-2.44-2.44h-20.78c-1.35,0-2.44,1.09-2.44,2.44s1.09,2.44,2.44,2.44Z"/>
      <path class="cls-2" d="M112.89,90.89h-20.78c-1.35,0-2.44,1.09-2.44,2.44s1.09,2.44,2.44,2.44h20.78c1.35,0,2.44-1.09,2.44-2.44s-1.09-2.44-2.44-2.44Z"/>
      <path class="cls-2" d="M117.5,80.44h0s-.54.28-.54.28h0c.29.55.68,1,1.16,1.36h0s0,0,0,0c0,0,0,0,0,0h0c.47.35,1.01.62,1.6.79l.17-.59h0s-.17.59-.17.59h0c.59.17,1.18.25,1.79.25.7,0,1.36-.09,1.98-.28l-.18-.59h0s.18.59.18.59h0c.62-.19,1.18-.48,1.65-.86h0s0,0,0,0c0,0,0,0,0,0h0c.48-.38.85-.85,1.12-1.41.28-.57.41-1.21.41-1.9,0-.4-.05-.78-.15-1.14-.1-.37-.25-.72-.46-1.04l-.51.34h0s.5-.34.5-.34h0c-.21-.32-.48-.6-.8-.84h0s0,0,0,0c0,0,0,0,0,0h0s-.07-.04-.1-.07c0,0,.01,0,.02,0h0s0,0,0,0l-.4-.45h0s.4.45.4.45c.28-.24.51-.51.71-.8.19-.29.34-.6.44-.92h0s-.57-.18-.57-.18h0s.58.17.58.17c.1-.33.15-.67.15-1.01,0-.68-.12-1.3-.38-1.85h0s0,0,0,0c0,0,0,0,0,0h0c-.25-.54-.6-1.01-1.05-1.38l-.39.47h0s.39-.47.39-.47h0c-.45-.37-.99-.64-1.59-.81h0s0,0,0,0c0,0,0,0,0,0h0c-.6-.18-1.25-.27-1.94-.27-.66,0-1.28.1-1.87.29h0s.19.57.19.57h0s-.2-.57-.2-.57c-.58.19-1.09.47-1.53.83h0s0,0,0,0l.39.47h0s-.39-.47-.39-.47c-.45.37-.8.81-1.06,1.32l.55.28h0s0,0,0,0l-.54-.28h0c-.26.53-.39,1.11-.39,1.73v.61h3.71v-.61c0-.16.03-.27.08-.37.06-.11.13-.21.23-.29.1-.08.22-.15.37-.2.15-.05.33-.08.52-.08.25,0,.44.03.59.09h0s.21-.57.21-.57h0s-.21.57-.21.57c.16.06.27.13.34.2.08.09.15.19.19.32l.58-.19h0s-.58.19-.58.19h0s0,.02,0,.02c.05.13.08.29.08.49s-.03.38-.08.54l.58.2h0s-.57-.2-.57-.2h0c-.05.15-.11.25-.19.34l.44.42h0s-.44-.42-.44-.42h0s0,.01,0,.01c-.09.1-.21.19-.4.26-.17.06-.4.1-.71.1h-1.96v3.16h1.96c.29,0,.54.03.74.09l.17-.59h0l-.17.59c.2.06.36.14.48.24.11.09.2.21.26.38.06.16.11.38.11.67,0,.22-.03.39-.09.54l.57.22h0s-.57-.21-.57-.21c-.05.14-.13.25-.22.34l.42.45h0s-.41-.45-.41-.45h0s0,.02,0,.02c-.1.1-.23.19-.41.25-.18.06-.4.1-.67.1-.22,0-.41-.03-.58-.09-.17-.06-.31-.15-.42-.25h0s0-.01,0-.01l-.39.47h0s0,0,0,0l.39-.47c-.11-.09-.19-.2-.25-.32-.06-.13-.09-.28-.09-.45v-.61h-3.71v.61c0,.71.14,1.36.44,1.93l.54-.28ZM123.98,75.65h0ZM120.31,71.55h0s0,0,0,0h0ZM120.88,71.24h0s0,0,0,0h0ZM123.02,77.13h0s0,0,0,0h0ZM120.8,80.39h0s0,0,0,0h0ZM118.5,81.59h0,0s0,0,0,0ZM122.95,71.61h0s0,0,0,0h0ZM119.77,79.49h0s0,0,0,0h0Z"/>
      <path class="cls-2" d="M37.52,82.94h4.4l.17-.34,1.84-3.66,1.84,3.66.17.34h4.37l-.52-.91-3.59-6.27,3.5-6.16.52-.91h-4.38l-.17.34.55.27h0l-.55-.27-1.77,3.56-1.74-3.56-.55.27h0l.55-.27-.17-.34h-4.37l.52.91.53-.3h0s-.53.3-.53.3l3.49,6.16-3.59,6.27-.52.91ZM43.89,73.97h0s0,0,0,0h0Z"/>
      <path class="cls-2" d="M21.93,82.94h4.4l.17-.34,1.84-3.66,1.84,3.66.17.34h4.37l-.52-.91-.53.3h0s.53-.3.53-.3l-3.59-6.27,3.5-6.16.52-.91h-4.38l-.17.34.55.27h0l-.55-.27-1.77,3.56-1.74-3.56-.17-.34h-4.37l.52.91.53-.3h0s-.53.3-.53.3l3.49,6.16-3.59,6.27-.52.91ZM28.3,73.97h0s0,0,0,0h0s0,0,0,0Z"/>
      <path class="cls-2" d="M57.75,69.03l-.55.27h0l.55-.27-.17-.34h-4.37l.52.91.53-.3h0s-.53.3-.53.3l3.49,6.16-3.59,6.27.53.3h0l-.53-.3-.52.91h4.4l.17-.34,1.84-3.66,1.84,3.66.17.34h4.37l-.52-.91-3.59-6.27,3.5-6.16.52-.91h-4.38l-.17.34.55.27h0l-.55-.27-1.77,3.56-1.74-3.56ZM59.49,73.97h0s0,0,0,0h0Z"/>
      <polygon class="cls-2" points="106.89 73.47 106.89 73.48 107.48 73.65 106.89 73.47"/>
      <path class="cls-2" d="M100.7,73.98h3.72v-.61c0-.3.04-.55.1-.75.07-.2.16-.35.26-.46l-.43-.4.03.03.4.37h0c.09-.1.22-.19.39-.24h0s0,0,0,0c.18-.07.4-.1.67-.1.19,0,.34.03.47.08h0s0,0,0,0l.22-.56h0s-.22.56-.22.56c.14.05.24.13.33.21.09.1.16.21.22.37.05.15.09.33.09.57,0,.13-.02.27-.07.43l.58.18h0l-.59-.17c-.04.15-.12.33-.24.53-.13.22-.29.46-.51.74-.21.28-.48.59-.8.94h0l-4.21,4.53.45.42h0l-.45-.42-.16.18v2.55h10.11v-3.22h-4.91l1.48-1.57h0c.43-.44.82-.86,1.17-1.26l-.46-.4h0s.46.4.46.4h0c.36-.42.68-.83.94-1.24l-.51-.34h0s.51.34.51.34h0c.27-.42.48-.85.63-1.29h0s0,0,0,0c0,0,0,0,0,0h0c.16-.46.24-.94.24-1.43,0-.63-.1-1.22-.31-1.77h0s0,0,0,0c0,0,0,0,0,0h0c-.21-.55-.51-1.03-.92-1.43h0c-.42-.4-.92-.71-1.5-.92h0s0,0,0,0c0,0,0,0,0,0h0c-.59-.21-1.24-.31-1.96-.31-.76,0-1.47.12-2.12.38h0s0,0,0,0c0,0,0,0,0,0h0c-.63.25-1.19.59-1.65,1.04h0s0,0,0,0c0,0,0,0,0,0h0c-.46.44-.82.97-1.08,1.56h0s0,0,0,0c0,0,0,0,0,0h0c-.25.59-.38,1.22-.38,1.88v.61ZM107.1,71.68h0s0,0,0,0h0ZM105.1,71.74l-.14-.4h0s.14.4.14.4ZM109.75,71.39h0s0,0,0,0ZM107.68,69.4h0,0s0,0,0,0ZM102.58,70.37h0s0,0,0,0Z"/>
      <polygon class="cls-2" points="79.48 78.2 80.09 78.2 80.09 77.59 80.09 75.57 80.09 74.96 79.48 74.96 72.02 74.96 71.41 74.96 71.41 75.57 71.41 77.59 71.41 78.2 72.02 78.2 79.48 78.2"/>
      <polygon class="cls-2" points="122.14 77.36 122.14 77.36 122.31 76.77 122.14 77.36"/>
      <polygon class="cls-2" points="89.32 73.2 89.32 82.33 89.32 82.94 89.93 82.94 92.45 82.94 93.06 82.94 93.06 82.33 93.06 69.3 93.06 68.69 92.45 68.69 92.31 68.69 92.21 68.69 92.1 68.72 86.43 70.77 86.03 70.92 86.03 71.35 86.03 73.52 86.03 74.38 86.84 74.09 89.32 73.2"/>
      <polygon class="cls-2" points="122.91 79.19 122.9 79.2 123.47 79.42 122.91 79.19"/>
    </g>
  </g>
</svg>