<svg width="108" height="54" viewBox="0 0 108 54" fill="none" xmlns="http://www.w3.org/2000/svg">
<path d="M3 2.5H105C105.276 2.5 105.5 2.72386 105.5 3V51C105.5 51.2761 105.276 51.5 105 51.5H3C2.72386 51.5 2.5 51.2761 2.5 51V3C2.5 2.72386 2.72386 2.5 3 2.5Z" stroke="white" stroke-width="5"/>
<rect x="21" y="11" width="21" height="4" rx="2" fill="white"/>
<rect x="21" y="40" width="21" height="4" rx="2" fill="white"/>
<rect x="66" y="11" width="21" height="4" rx="2" fill="white"/>
<rect x="66" y="40" width="21" height="4" rx="2" fill="white"/>
<mask id="path-6-outside-1_866_198" maskUnits="userSpaceOnUse" x="10" y="21" width="87" height="13" fill="black">
<rect fill="white" x="10" y="21" width="87" height="13"/>
<path d="M15.7896 26.1592L17.6865 22.3359H20.1035L17.1006 27.624L20.1768 33H17.7744L15.8188 29.1182L13.8706 33H11.439L14.5151 27.624L11.5195 22.3359H13.9219L15.7896 26.1592ZM28.5483 26.1592L30.4453 22.3359H32.8623L29.8594 27.624L32.9355 33H30.5332L28.5776 29.1182L26.6294 33H24.1978L27.2739 27.624L24.2783 22.3359H26.6807L28.5483 26.1592ZM41.3071 26.1592L43.2041 22.3359H45.6211L42.6182 27.624L45.6943 33H43.292L41.3364 29.1182L39.3882 33H36.9565L40.0327 27.624L37.0371 22.3359H39.4395L41.3071 26.1592ZM57.6621 29.1182H51.561V27.4702H57.6621V29.1182ZM68.2749 33H66.2168V24.8188L63.5215 25.7856V24.0132L68.165 22.3359H68.2749V33ZM83.0186 33H75.7456V31.6084L79.1953 27.9023C79.4639 27.6094 79.6909 27.3433 79.8765 27.104C80.062 26.8647 80.2134 26.645 80.3306 26.4448C80.4429 26.2495 80.5234 26.0664 80.5723 25.8955C80.626 25.7246 80.6528 25.5586 80.6528 25.3975C80.6528 25.1582 80.6187 24.9458 80.5503 24.7603C80.4819 24.5747 80.3867 24.416 80.2646 24.2842C80.1377 24.1572 79.9863 24.0596 79.8105 23.9912C79.6396 23.9229 79.4492 23.8887 79.2393 23.8887C78.9658 23.8887 78.7241 23.9277 78.5142 24.0059C78.3091 24.0791 78.1382 24.189 78.0015 24.3354C77.8599 24.4868 77.7524 24.6748 77.6792 24.8994C77.606 25.124 77.5693 25.3804 77.5693 25.6685H75.5259C75.5259 25.1948 75.6162 24.748 75.7969 24.3281C75.9775 23.9033 76.2339 23.5322 76.5659 23.2148C76.8931 22.8975 77.2886 22.6484 77.7524 22.4678C78.2212 22.2822 78.7388 22.1895 79.3052 22.1895C79.8472 22.1895 80.3257 22.2651 80.7407 22.4165C81.1606 22.5679 81.5122 22.7803 81.7954 23.0537C82.0737 23.3271 82.2861 23.6567 82.4326 24.0425C82.5791 24.4233 82.6523 24.8457 82.6523 25.3096C82.6523 25.6611 82.5962 25.998 82.4839 26.3203C82.3765 26.6377 82.2227 26.9526 82.0225 27.2651C81.8174 27.5776 81.5732 27.8975 81.29 28.2246C81.0068 28.5469 80.6919 28.8862 80.3452 29.2427L78.3384 31.3667H83.0186V33ZM90.8555 26.7744H91.9614C92.2544 26.7744 92.5059 26.7354 92.7158 26.6572C92.9307 26.5742 93.104 26.4595 93.2358 26.313C93.3579 26.186 93.4482 26.0322 93.5068 25.8516C93.5703 25.666 93.6021 25.4658 93.6021 25.251C93.6021 25.041 93.5703 24.8506 93.5068 24.6797C93.4482 24.5039 93.3579 24.3525 93.2358 24.2256C93.1138 24.1035 92.9575 24.0083 92.7671 23.9399C92.5815 23.8716 92.3643 23.8374 92.1152 23.8374C91.9102 23.8374 91.7173 23.8667 91.5366 23.9253C91.3608 23.9839 91.207 24.0669 91.0752 24.1743C90.9385 24.2866 90.8311 24.4209 90.7529 24.5771C90.6748 24.7334 90.6357 24.9092 90.6357 25.1045H88.5996C88.5996 24.6699 88.6875 24.2744 88.8633 23.918C89.0439 23.5615 89.2905 23.2539 89.603 22.9951C89.9155 22.7412 90.2817 22.5435 90.7017 22.4019C91.1265 22.2603 91.583 22.1895 92.0713 22.1895C92.5986 22.1895 93.082 22.2554 93.5215 22.3872C93.9609 22.5142 94.3369 22.7046 94.6494 22.9585C94.9619 23.2173 95.2036 23.5371 95.3745 23.918C95.5503 24.2939 95.6382 24.731 95.6382 25.229C95.6382 25.4585 95.604 25.6855 95.5356 25.9102C95.4673 26.1299 95.3672 26.3398 95.2354 26.54C95.1035 26.7402 94.9399 26.9258 94.7446 27.0967C94.5493 27.2627 94.3247 27.4067 94.0708 27.5288C94.3687 27.6362 94.625 27.7729 94.8398 27.939C95.0596 28.105 95.2402 28.293 95.3818 28.5029C95.5234 28.7178 95.6284 28.9521 95.6968 29.2061C95.7651 29.46 95.7993 29.7285 95.7993 30.0117C95.7993 30.5098 95.7041 30.9541 95.5137 31.3447C95.3232 31.7354 95.062 32.0625 94.73 32.3262C94.3979 32.5947 94.0024 32.7998 93.5435 32.9414C93.0894 33.0781 92.5986 33.1465 92.0713 33.1465C91.6172 33.1465 91.1729 33.0854 90.7383 32.9634C90.3086 32.8364 89.9253 32.646 89.5884 32.3921C89.2515 32.1431 88.9805 31.8281 88.7754 31.4473C88.5752 31.0664 88.4751 30.6172 88.4751 30.0996H90.5112C90.5112 30.3047 90.5503 30.4951 90.6284 30.6709C90.7065 30.8418 90.8188 30.9883 90.9653 31.1104C91.1069 31.2373 91.2754 31.3374 91.4707 31.4106C91.666 31.479 91.8809 31.5132 92.1152 31.5132C92.3789 31.5132 92.6157 31.4766 92.8257 31.4033C93.0356 31.3301 93.2114 31.2227 93.353 31.0811C93.4897 30.9541 93.5923 30.7979 93.6606 30.6123C93.7339 30.4268 93.7705 30.2192 93.7705 29.9897C93.7705 29.7017 93.729 29.4551 93.646 29.25C93.563 29.0449 93.4434 28.8765 93.2871 28.7446C93.126 28.6128 92.9331 28.5151 92.7085 28.4517C92.4888 28.3882 92.2397 28.3564 91.9614 28.3564H90.8555V26.7744Z"/>
</mask>
<path d="M15.7896 26.1592L17.6865 22.3359H20.1035L17.1006 27.624L20.1768 33H17.7744L15.8188 29.1182L13.8706 33H11.439L14.5151 27.624L11.5195 22.3359H13.9219L15.7896 26.1592ZM28.5483 26.1592L30.4453 22.3359H32.8623L29.8594 27.624L32.9355 33H30.5332L28.5776 29.1182L26.6294 33H24.1978L27.2739 27.624L24.2783 22.3359H26.6807L28.5483 26.1592ZM41.3071 26.1592L43.2041 22.3359H45.6211L42.6182 27.624L45.6943 33H43.292L41.3364 29.1182L39.3882 33H36.9565L40.0327 27.624L37.0371 22.3359H39.4395L41.3071 26.1592ZM57.6621 29.1182H51.561V27.4702H57.6621V29.1182ZM68.2749 33H66.2168V24.8188L63.5215 25.7856V24.0132L68.165 22.3359H68.2749V33ZM83.0186 33H75.7456V31.6084L79.1953 27.9023C79.4639 27.6094 79.6909 27.3433 79.8765 27.104C80.062 26.8647 80.2134 26.645 80.3306 26.4448C80.4429 26.2495 80.5234 26.0664 80.5723 25.8955C80.626 25.7246 80.6528 25.5586 80.6528 25.3975C80.6528 25.1582 80.6187 24.9458 80.5503 24.7603C80.4819 24.5747 80.3867 24.416 80.2646 24.2842C80.1377 24.1572 79.9863 24.0596 79.8105 23.9912C79.6396 23.9229 79.4492 23.8887 79.2393 23.8887C78.9658 23.8887 78.7241 23.9277 78.5142 24.0059C78.3091 24.0791 78.1382 24.189 78.0015 24.3354C77.8599 24.4868 77.7524 24.6748 77.6792 24.8994C77.606 25.124 77.5693 25.3804 77.5693 25.6685H75.5259C75.5259 25.1948 75.6162 24.748 75.7969 24.3281C75.9775 23.9033 76.2339 23.5322 76.5659 23.2148C76.8931 22.8975 77.2886 22.6484 77.7524 22.4678C78.2212 22.2822 78.7388 22.1895 79.3052 22.1895C79.8472 22.1895 80.3257 22.2651 80.7407 22.4165C81.1606 22.5679 81.5122 22.7803 81.7954 23.0537C82.0737 23.3271 82.2861 23.6567 82.4326 24.0425C82.5791 24.4233 82.6523 24.8457 82.6523 25.3096C82.6523 25.6611 82.5962 25.998 82.4839 26.3203C82.3765 26.6377 82.2227 26.9526 82.0225 27.2651C81.8174 27.5776 81.5732 27.8975 81.29 28.2246C81.0068 28.5469 80.6919 28.8862 80.3452 29.2427L78.3384 31.3667H83.0186V33ZM90.8555 26.7744H91.9614C92.2544 26.7744 92.5059 26.7354 92.7158 26.6572C92.9307 26.5742 93.104 26.4595 93.2358 26.313C93.3579 26.186 93.4482 26.0322 93.5068 25.8516C93.5703 25.666 93.6021 25.4658 93.6021 25.251C93.6021 25.041 93.5703 24.8506 93.5068 24.6797C93.4482 24.5039 93.3579 24.3525 93.2358 24.2256C93.1138 24.1035 92.9575 24.0083 92.7671 23.9399C92.5815 23.8716 92.3643 23.8374 92.1152 23.8374C91.9102 23.8374 91.7173 23.8667 91.5366 23.9253C91.3608 23.9839 91.207 24.0669 91.0752 24.1743C90.9385 24.2866 90.8311 24.4209 90.7529 24.5771C90.6748 24.7334 90.6357 24.9092 90.6357 25.1045H88.5996C88.5996 24.6699 88.6875 24.2744 88.8633 23.918C89.0439 23.5615 89.2905 23.2539 89.603 22.9951C89.9155 22.7412 90.2817 22.5435 90.7017 22.4019C91.1265 22.2603 91.583 22.1895 92.0713 22.1895C92.5986 22.1895 93.082 22.2554 93.5215 22.3872C93.9609 22.5142 94.3369 22.7046 94.6494 22.9585C94.9619 23.2173 95.2036 23.5371 95.3745 23.918C95.5503 24.2939 95.6382 24.731 95.6382 25.229C95.6382 25.4585 95.604 25.6855 95.5356 25.9102C95.4673 26.1299 95.3672 26.3398 95.2354 26.54C95.1035 26.7402 94.9399 26.9258 94.7446 27.0967C94.5493 27.2627 94.3247 27.4067 94.0708 27.5288C94.3687 27.6362 94.625 27.7729 94.8398 27.939C95.0596 28.105 95.2402 28.293 95.3818 28.5029C95.5234 28.7178 95.6284 28.9521 95.6968 29.2061C95.7651 29.46 95.7993 29.7285 95.7993 30.0117C95.7993 30.5098 95.7041 30.9541 95.5137 31.3447C95.3232 31.7354 95.062 32.0625 94.73 32.3262C94.3979 32.5947 94.0024 32.7998 93.5435 32.9414C93.0894 33.0781 92.5986 33.1465 92.0713 33.1465C91.6172 33.1465 91.1729 33.0854 90.7383 32.9634C90.3086 32.8364 89.9253 32.646 89.5884 32.3921C89.2515 32.1431 88.9805 31.8281 88.7754 31.4473C88.5752 31.0664 88.4751 30.6172 88.4751 30.0996H90.5112C90.5112 30.3047 90.5503 30.4951 90.6284 30.6709C90.7065 30.8418 90.8188 30.9883 90.9653 31.1104C91.1069 31.2373 91.2754 31.3374 91.4707 31.4106C91.666 31.479 91.8809 31.5132 92.1152 31.5132C92.3789 31.5132 92.6157 31.4766 92.8257 31.4033C93.0356 31.3301 93.2114 31.2227 93.353 31.0811C93.4897 30.9541 93.5923 30.7979 93.6606 30.6123C93.7339 30.4268 93.7705 30.2192 93.7705 29.9897C93.7705 29.7017 93.729 29.4551 93.646 29.25C93.563 29.0449 93.4434 28.8765 93.2871 28.7446C93.126 28.6128 92.9331 28.5151 92.7085 28.4517C92.4888 28.3882 92.2397 28.3564 91.9614 28.3564H90.8555V26.7744Z" fill="white"/>
<path d="M15.7896 26.1592L15.3403 26.3786L15.7861 27.2912L16.2374 26.3814L15.7896 26.1592ZM17.6865 22.3359V21.8359H17.3764L17.2386 22.1137L17.6865 22.3359ZM20.1035 22.3359L20.5383 22.5828L20.9624 21.8359H20.1035V22.3359ZM17.1006 27.624L16.6658 27.3771L16.5251 27.625L16.6666 27.8723L17.1006 27.624ZM20.1768 33V33.5H21.0389L20.6107 32.7517L20.1768 33ZM17.7744 33L17.3279 33.225L17.4664 33.5H17.7744V33ZM15.8188 29.1182L16.2654 28.8932L15.818 28.0052L15.372 28.8939L15.8188 29.1182ZM13.8706 33V33.5H14.1791L14.3175 33.2243L13.8706 33ZM11.439 33L11.005 32.7517L10.5768 33.5H11.439V33ZM14.5151 27.624L14.9491 27.8723L15.0905 27.6253L14.9502 27.3776L14.5151 27.624ZM11.5195 22.3359V21.8359H10.6616L11.0845 22.5824L11.5195 22.3359ZM13.9219 22.3359L14.3711 22.1165L14.2341 21.8359H13.9219V22.3359ZM16.2374 26.3814L18.1344 22.5582L17.2386 22.1137L15.3417 25.9369L16.2374 26.3814ZM17.6865 22.8359H20.1035V21.8359H17.6865V22.8359ZM19.6687 22.089L16.6658 27.3771L17.5354 27.8709L20.5383 22.5828L19.6687 22.089ZM16.6666 27.8723L19.7428 33.2483L20.6107 32.7517L17.5346 27.3757L16.6666 27.8723ZM20.1768 32.5H17.7744V33.5H20.1768V32.5ZM18.221 32.775L16.2654 28.8932L15.3723 29.3431L17.3279 33.225L18.221 32.775ZM15.372 28.8939L13.4237 32.7757L14.3175 33.2243L16.2657 29.3424L15.372 28.8939ZM13.8706 32.5H11.439V33.5H13.8706V32.5ZM11.8729 33.2483L14.9491 27.8723L14.0812 27.3757L11.005 32.7517L11.8729 33.2483ZM14.9502 27.3776L11.9546 22.0895L11.0845 22.5824L14.0801 27.8705L14.9502 27.3776ZM11.5195 22.8359H13.9219V21.8359H11.5195V22.8359ZM13.4726 22.5554L15.3403 26.3786L16.2388 25.9397L14.3711 22.1165L13.4726 22.5554ZM28.5483 26.1592L28.0991 26.3786L28.5448 27.2912L28.9962 26.3814L28.5483 26.1592ZM30.4453 22.3359V21.8359H30.1352L29.9974 22.1137L30.4453 22.3359ZM32.8623 22.3359L33.2971 22.5828L33.7212 21.8359H32.8623V22.3359ZM29.8594 27.624L29.4246 27.3771L29.2838 27.625L29.4254 27.8723L29.8594 27.624ZM32.9355 33V33.5H33.7977L33.3695 32.7517L32.9355 33ZM30.5332 33L30.0867 33.225L30.2252 33.5H30.5332V33ZM28.5776 29.1182L29.0242 28.8932L28.5768 28.0052L28.1308 28.8939L28.5776 29.1182ZM26.6294 33V33.5H26.9379L27.0763 33.2243L26.6294 33ZM24.1978 33L23.7638 32.7517L23.3356 33.5H24.1978V33ZM27.2739 27.624L27.7079 27.8723L27.8493 27.6253L27.709 27.3776L27.2739 27.624ZM24.2783 22.3359V21.8359H23.4204L23.8433 22.5824L24.2783 22.3359ZM26.6807 22.3359L27.1299 22.1165L26.9929 21.8359H26.6807V22.3359ZM28.9962 26.3814L30.8932 22.5582L29.9974 22.1137L28.1004 25.9369L28.9962 26.3814ZM30.4453 22.8359H32.8623V21.8359H30.4453V22.8359ZM32.4275 22.089L29.4246 27.3771L30.2942 27.8709L33.2971 22.5828L32.4275 22.089ZM29.4254 27.8723L32.5016 33.2483L33.3695 32.7517L30.2934 27.3757L29.4254 27.8723ZM32.9355 32.5H30.5332V33.5H32.9355V32.5ZM30.9797 32.775L29.0242 28.8932L28.1311 29.3431L30.0867 33.225L30.9797 32.775ZM28.1308 28.8939L26.1825 32.7757L27.0763 33.2243L29.0245 29.3424L28.1308 28.8939ZM26.6294 32.5H24.1978V33.5H26.6294V32.5ZM24.6317 33.2483L27.7079 27.8723L26.8399 27.3757L23.7638 32.7517L24.6317 33.2483ZM27.709 27.3776L24.7134 22.0895L23.8433 22.5824L26.8389 27.8705L27.709 27.3776ZM24.2783 22.8359H26.6807V21.8359H24.2783V22.8359ZM26.2314 22.5554L28.0991 26.3786L28.9976 25.9397L27.1299 22.1165L26.2314 22.5554ZM41.3071 26.1592L40.8579 26.3786L41.3036 27.2912L41.755 26.3814L41.3071 26.1592ZM43.2041 22.3359V21.8359H42.894L42.7562 22.1137L43.2041 22.3359ZM45.6211 22.3359L46.0559 22.5828L46.48 21.8359H45.6211V22.3359ZM42.6182 27.624L42.1834 27.3771L42.0426 27.625L42.1842 27.8723L42.6182 27.624ZM45.6943 33V33.5H46.5565L46.1283 32.7517L45.6943 33ZM43.292 33L42.8455 33.225L42.984 33.5H43.292V33ZM41.3364 29.1182L41.783 28.8932L41.3356 28.0052L40.8895 28.8939L41.3364 29.1182ZM39.3882 33V33.5H39.6967L39.8351 33.2243L39.3882 33ZM36.9565 33L36.5226 32.7517L36.0944 33.5H36.9565V33ZM40.0327 27.624L40.4667 27.8723L40.6081 27.6253L40.4678 27.3776L40.0327 27.624ZM37.0371 22.3359V21.8359H36.1792L36.6021 22.5824L37.0371 22.3359ZM39.4395 22.3359L39.8887 22.1165L39.7517 21.8359H39.4395V22.3359ZM41.755 26.3814L43.652 22.5582L42.7562 22.1137L40.8592 25.9369L41.755 26.3814ZM43.2041 22.8359H45.6211V21.8359H43.2041V22.8359ZM45.1863 22.089L42.1834 27.3771L43.053 27.8709L46.0559 22.5828L45.1863 22.089ZM42.1842 27.8723L45.2604 33.2483L46.1283 32.7517L43.0521 27.3757L42.1842 27.8723ZM45.6943 32.5H43.292V33.5H45.6943V32.5ZM43.7385 32.775L41.783 28.8932L40.8899 29.3431L42.8455 33.225L43.7385 32.775ZM40.8895 28.8939L38.9413 32.7757L39.8351 33.2243L41.7833 29.3424L40.8895 28.8939ZM39.3882 32.5H36.9565V33.5H39.3882V32.5ZM37.3905 33.2483L40.4667 27.8723L39.5987 27.3757L36.5226 32.7517L37.3905 33.2483ZM40.4678 27.3776L37.4722 22.0895L36.6021 22.5824L39.5977 27.8705L40.4678 27.3776ZM37.0371 22.8359H39.4395V21.8359H37.0371V22.8359ZM38.9902 22.5554L40.8579 26.3786L41.7564 25.9397L39.8887 22.1165L38.9902 22.5554ZM57.6621 29.1182V29.6182H58.1621V29.1182H57.6621ZM51.561 29.1182H51.061V29.6182H51.561V29.1182ZM51.561 27.4702V26.9702H51.061V27.4702H51.561ZM57.6621 27.4702H58.1621V26.9702H57.6621V27.4702ZM57.6621 28.6182H51.561V29.6182H57.6621V28.6182ZM52.061 29.1182V27.4702H51.061V29.1182H52.061ZM51.561 27.9702H57.6621V26.9702H51.561V27.9702ZM57.1621 27.4702V29.1182H58.1621V27.4702H57.1621ZM68.2749 33V33.5H68.7749V33H68.2749ZM66.2168 33H65.7168V33.5H66.2168V33ZM66.2168 24.8188H66.7168V24.1083L66.048 24.3482L66.2168 24.8188ZM63.5215 25.7856H63.0215V26.4962L63.6903 26.2563L63.5215 25.7856ZM63.5215 24.0132L63.3516 23.5429L63.0215 23.6622V24.0132H63.5215ZM68.165 22.3359V21.8359H68.0775L67.9952 21.8657L68.165 22.3359ZM68.2749 22.3359H68.7749V21.8359H68.2749V22.3359ZM68.2749 32.5H66.2168V33.5H68.2749V32.5ZM66.7168 33V24.8188H65.7168V33H66.7168ZM66.048 24.3482L63.3527 25.315L63.6903 26.2563L66.3856 25.2895L66.048 24.3482ZM64.0215 25.7856V24.0132H63.0215V25.7856H64.0215ZM63.6913 24.4834L68.3349 22.8062L67.9952 21.8657L63.3516 23.5429L63.6913 24.4834ZM68.165 22.8359H68.2749V21.8359H68.165V22.8359ZM67.7749 22.3359V33H68.7749V22.3359H67.7749ZM83.0186 33V33.5H83.5186V33H83.0186ZM75.7456 33H75.2456V33.5H75.7456V33ZM75.7456 31.6084L75.3796 31.2677L75.2456 31.4117V31.6084H75.7456ZM79.1953 27.9023L79.5613 28.243L79.5639 28.2402L79.1953 27.9023ZM80.3306 26.4448L80.7621 26.6974L80.764 26.6941L80.3306 26.4448ZM80.5723 25.8955L80.0951 25.7455L80.0915 25.7581L80.5723 25.8955ZM80.2646 24.2842L80.6315 23.9445L80.625 23.9374L80.6182 23.9306L80.2646 24.2842ZM79.8105 23.9912L79.6248 24.4555L79.6293 24.4572L79.8105 23.9912ZM78.5142 24.0059L78.6823 24.4768L78.6885 24.4745L78.5142 24.0059ZM78.0015 24.3354L78.3666 24.677L78.367 24.6766L78.0015 24.3354ZM77.6792 24.8994L77.2038 24.7444L77.6792 24.8994ZM77.5693 25.6685V26.1685H78.0693V25.6685H77.5693ZM75.5259 25.6685H75.0259V26.1685H75.5259V25.6685ZM75.7969 24.3281L76.2562 24.5257L76.257 24.5238L75.7969 24.3281ZM76.5659 23.2148L76.9114 23.5763L76.9141 23.5737L76.5659 23.2148ZM77.7524 22.4678L77.9339 22.9337L77.9365 22.9327L77.7524 22.4678ZM80.7407 22.4165L80.5694 22.8862L80.5712 22.8869L80.7407 22.4165ZM81.7954 23.0537L82.1458 22.697L82.1427 22.694L81.7954 23.0537ZM82.4326 24.0425L81.9652 24.22L81.9659 24.222L82.4326 24.0425ZM82.4839 26.3203L82.0117 26.1558L82.0103 26.16L82.4839 26.3203ZM82.0225 27.2651L82.4405 27.5395L82.4435 27.5349L82.0225 27.2651ZM81.29 28.2246L81.6656 28.5547L81.6681 28.5519L81.29 28.2246ZM80.3452 29.2427L79.9867 28.894L79.9818 28.8993L80.3452 29.2427ZM78.3384 31.3667L77.9749 31.0233L77.1781 31.8667H78.3384V31.3667ZM83.0186 31.3667H83.5186V30.8667H83.0186V31.3667ZM83.0186 32.5H75.7456V33.5H83.0186V32.5ZM76.2456 33V31.6084H75.2456V33H76.2456ZM76.1116 31.9491L79.5613 28.243L78.8293 27.5617L75.3796 31.2677L76.1116 31.9491ZM79.5639 28.2402C79.839 27.94 80.0755 27.6633 80.2716 27.4104L79.4814 26.7976C79.3063 27.0233 79.0887 27.2787 78.8267 27.5645L79.5639 28.2402ZM80.2716 27.4104C80.4666 27.1589 80.6312 26.921 80.7621 26.6974L79.8991 26.1922C79.7955 26.3691 79.6574 26.5706 79.4814 26.7976L80.2716 27.4104ZM80.764 26.6941C80.8915 26.4724 80.9905 26.2516 81.053 26.0329L80.0915 25.7581C80.0563 25.8812 79.9943 26.0266 79.8971 26.1956L80.764 26.6941ZM81.0493 26.0454C81.1165 25.8314 81.1528 25.6148 81.1528 25.3975H80.1528C80.1528 25.5024 80.1354 25.6178 80.0953 25.7456L81.0493 26.0454ZM81.1528 25.3975C81.1528 25.1112 81.112 24.8386 81.0195 24.5874L80.0811 24.9331C80.1253 25.0531 80.1528 25.2052 80.1528 25.3975H81.1528ZM81.0195 24.5874C80.9306 24.3463 80.8027 24.1293 80.6315 23.9445L79.8978 24.6239C79.9708 24.7027 80.0332 24.8031 80.0811 24.9331L81.0195 24.5874ZM80.6182 23.9306C80.4398 23.7522 80.2288 23.6174 79.9918 23.5252L79.6293 24.4572C79.7438 24.5017 79.8356 24.5623 79.9111 24.6377L80.6182 23.9306ZM79.9962 23.527C79.7586 23.4319 79.504 23.3887 79.2393 23.3887V24.3887C79.3945 24.3887 79.5207 24.4138 79.6249 24.4554L79.9962 23.527ZM79.2393 23.3887C78.919 23.3887 78.6163 23.4344 78.3398 23.5372L78.6885 24.4745C78.8319 24.4211 79.0126 24.3887 79.2393 24.3887V23.3887ZM78.346 23.535C78.0724 23.6327 77.8318 23.7845 77.6359 23.9943L78.367 24.6766C78.4446 24.5935 78.5458 24.5255 78.6823 24.4767L78.346 23.535ZM77.6363 23.9939C77.4382 24.2056 77.2966 24.46 77.2038 24.7444L78.1546 25.0544C78.2083 24.8896 78.2815 24.768 78.3666 24.677L77.6363 23.9939ZM77.2038 24.7444C77.1111 25.0286 77.0693 25.3389 77.0693 25.6685H78.0693C78.0693 25.4219 78.1008 25.2194 78.1546 25.0544L77.2038 24.7444ZM77.5693 25.1685H75.5259V26.1685H77.5693V25.1685ZM76.0259 25.6685C76.0259 25.2603 76.1033 24.881 76.2562 24.5257L75.3376 24.1305C75.1291 24.6151 75.0259 25.1294 75.0259 25.6685H76.0259ZM76.257 24.5238C76.4112 24.1611 76.6287 23.8465 76.9114 23.5763L76.2204 22.8534C75.8391 23.2179 75.5438 23.6455 75.3368 24.1324L76.257 24.5238ZM76.9141 23.5737C77.1891 23.3069 77.5264 23.0924 77.9339 22.9337L77.571 22.0019C77.0507 22.2045 76.597 22.488 76.2178 22.856L76.9141 23.5737ZM77.9365 22.9327C78.3398 22.773 78.794 22.6895 79.3052 22.6895V21.6895C78.6835 21.6895 78.1025 21.7914 77.5684 22.0029L77.9365 22.9327ZM79.3052 22.6895C79.8015 22.6895 80.2201 22.7589 80.5694 22.8862L80.912 21.9468C80.4312 21.7714 79.8928 21.6895 79.3052 21.6895V22.6895ZM80.5712 22.8869C80.9336 23.0175 81.2221 23.1952 81.4481 23.4134L82.1427 22.694C81.8023 22.3654 81.3877 22.1182 80.9103 21.9461L80.5712 22.8869ZM81.445 23.4104C81.6689 23.6304 81.8428 23.8977 81.9652 24.22L82.9 23.865C82.7294 23.4157 82.4786 23.0239 82.1458 22.697L81.445 23.4104ZM81.9659 24.222C82.0876 24.5383 82.1523 24.8988 82.1523 25.3096H83.1523C83.1523 24.7927 83.0706 24.3084 82.8993 23.863L81.9659 24.222ZM82.1523 25.3096C82.1523 25.6068 82.1051 25.888 82.0117 26.1558L82.956 26.4849C83.0873 26.1081 83.1523 25.7154 83.1523 25.3096H82.1523ZM82.0103 26.16C81.9172 26.4351 81.7821 26.7135 81.6014 26.9954L82.4435 27.5349C82.6633 27.1918 82.8357 26.8403 82.9575 26.4806L82.0103 26.16ZM81.6044 26.9908C81.4132 27.2822 81.1829 27.5844 80.912 27.8974L81.6681 28.5519C81.9636 28.2105 82.2215 27.8731 82.4405 27.5395L81.6044 26.9908ZM80.9145 27.8946C80.6376 28.2096 80.3285 28.5427 79.9868 28.8941L80.7036 29.5913C81.0553 29.2297 81.3761 28.8842 81.6656 28.5547L80.9145 27.8946ZM79.9818 28.8993L77.9749 31.0233L78.7018 31.7101L80.7087 29.5861L79.9818 28.8993ZM78.3384 31.8667H83.0186V30.8667H78.3384V31.8667ZM82.5186 31.3667V33H83.5186V31.3667H82.5186ZM90.8555 26.7744V26.2744H90.3555V26.7744H90.8555ZM92.7158 26.6572L92.8902 27.1259L92.896 27.1236L92.7158 26.6572ZM93.2358 26.313L92.8754 25.9664L92.8697 25.9724L92.8642 25.9785L93.2358 26.313ZM93.5068 25.8516L93.0337 25.6897L93.0312 25.6973L93.5068 25.8516ZM93.5068 24.6797L93.0325 24.8378L93.0352 24.8458L93.0381 24.8538L93.5068 24.6797ZM93.2358 24.2256L93.5963 23.879L93.5894 23.872L93.2358 24.2256ZM92.7671 23.9399L92.5942 24.4091L92.5982 24.4105L92.7671 23.9399ZM91.5366 23.9253L91.3824 23.4497L91.3785 23.451L91.5366 23.9253ZM91.0752 24.1743L90.7594 23.7867L90.7578 23.788L91.0752 24.1743ZM90.6357 25.1045V25.6045H91.1357V25.1045H90.6357ZM88.5996 25.1045H88.0996V25.6045H88.5996V25.1045ZM88.8633 23.918L88.4173 23.6919L88.4148 23.6968L88.8633 23.918ZM89.603 22.9951L89.2877 22.607L89.2841 22.61L89.603 22.9951ZM90.7017 22.4019L90.5435 21.9275L90.5419 21.9281L90.7017 22.4019ZM93.5215 22.3872L93.3778 22.8661L93.3827 22.8676L93.5215 22.3872ZM94.6494 22.9585L94.9683 22.5734L94.9647 22.5704L94.6494 22.9585ZM95.3745 23.918L94.9183 24.1227L94.9216 24.1297L95.3745 23.918ZM95.5356 25.9102L96.0131 26.0587L96.014 26.0557L95.5356 25.9102ZM94.7446 27.0967L95.0685 27.4777L95.0739 27.473L94.7446 27.0967ZM94.0708 27.5288L93.8542 27.0782L92.7798 27.5947L93.9012 27.9992L94.0708 27.5288ZM94.8398 27.939L94.5341 28.3346L94.5384 28.3379L94.8398 27.939ZM95.3818 28.5029L95.7993 28.2278L95.7964 28.2234L95.3818 28.5029ZM94.73 32.3262L94.419 31.9346L94.4155 31.9374L94.73 32.3262ZM93.5435 32.9414L93.6876 33.4202L93.6909 33.4192L93.5435 32.9414ZM90.7383 32.9634L90.5966 33.4429L90.6031 33.4447L90.7383 32.9634ZM89.5884 32.3921L89.8893 31.9928L89.8856 31.99L89.5884 32.3921ZM88.7754 31.4473L88.3328 31.6799L88.3352 31.6843L88.7754 31.4473ZM88.4751 30.0996V29.5996H87.9751V30.0996H88.4751ZM90.5112 30.0996H91.0112V29.5996H90.5112V30.0996ZM90.6284 30.6709L90.1715 30.874L90.1737 30.8788L90.6284 30.6709ZM90.9653 31.1104L91.2991 30.7381L91.2924 30.732L91.2854 30.7262L90.9653 31.1104ZM91.4707 31.4106L91.2951 31.8789L91.3055 31.8826L91.4707 31.4106ZM93.353 31.0811L93.0128 30.7147L93.006 30.721L92.9995 30.7275L93.353 31.0811ZM93.6606 30.6123L93.1954 30.4287L93.1915 30.4395L93.6606 30.6123ZM93.2871 28.7446L93.6096 28.3624L93.6037 28.3577L93.2871 28.7446ZM92.7085 28.4517L92.5697 28.932L92.5725 28.9328L92.7085 28.4517ZM90.8555 28.3564H90.3555V28.8564H90.8555V28.3564ZM90.8555 27.2744H91.9614V26.2744H90.8555V27.2744ZM91.9614 27.2744C92.2966 27.2744 92.6102 27.23 92.8902 27.1258L92.5415 26.1886C92.4015 26.2407 92.2122 26.2744 91.9614 26.2744V27.2744ZM92.896 27.1236C93.1718 27.0171 93.4149 26.8615 93.6075 26.6475L92.8642 25.9785C92.7931 26.0575 92.6895 26.1314 92.5356 26.1908L92.896 27.1236ZM93.5963 26.6595C93.7748 26.4738 93.9024 26.2527 93.9824 26.0058L93.0312 25.6973C92.9941 25.8117 92.941 25.8982 92.8754 25.9664L93.5963 26.6595ZM93.9799 26.0134C94.0628 25.771 94.1021 25.5156 94.1021 25.251H93.1021C93.1021 25.416 93.0778 25.561 93.0338 25.6897L93.9799 26.0134ZM94.1021 25.251C94.1021 24.9905 94.0626 24.74 93.9755 24.5056L93.0381 24.8538C93.078 24.9612 93.1021 25.0916 93.1021 25.251H94.1021ZM93.9812 24.5216C93.9003 24.2791 93.7725 24.0623 93.5963 23.879L92.8754 24.5721C92.9433 24.6427 92.9961 24.7288 93.0325 24.8378L93.9812 24.5216ZM93.5894 23.872C93.4069 23.6896 93.184 23.5584 92.936 23.4693L92.5982 24.4105C92.731 24.4582 92.8206 24.5175 92.8823 24.5791L93.5894 23.872ZM92.9399 23.4708C92.6868 23.3775 92.4086 23.3374 92.1152 23.3374V24.3374C92.3199 24.3374 92.4763 24.3657 92.5942 24.4091L92.9399 23.4708ZM92.1152 23.3374C91.862 23.3374 91.6167 23.3737 91.3824 23.4497L91.6909 24.4009C91.8179 24.3597 91.9584 24.3374 92.1152 24.3374V23.3374ZM91.3785 23.451C91.1505 23.527 90.9421 23.6378 90.7594 23.7867L91.391 24.5619C91.4719 24.496 91.5712 24.4408 91.6947 24.3996L91.3785 23.451ZM90.7578 23.788C90.5676 23.9442 90.4156 24.1337 90.3057 24.3535L91.2001 24.8008C91.2465 24.7081 91.3094 24.629 91.3926 24.5607L90.7578 23.788ZM90.3057 24.3535C90.189 24.5871 90.1357 24.8408 90.1357 25.1045H91.1357C91.1357 24.9775 91.1606 24.8797 91.2001 24.8008L90.3057 24.3535ZM90.6357 24.6045H88.5996V25.6045H90.6357V24.6045ZM89.0996 25.1045C89.0996 24.7393 89.1729 24.4205 89.3117 24.1391L88.4148 23.6968C88.2021 24.1283 88.0996 24.6005 88.0996 25.1045H89.0996ZM89.3093 24.144C89.4584 23.8497 89.6614 23.596 89.9219 23.3802L89.2841 22.61C88.9196 22.9119 88.6294 23.2733 88.4173 23.6919L89.3093 24.144ZM89.9183 23.3832C90.1801 23.1705 90.4924 23.0001 90.8614 22.8756L90.5419 21.9281C90.0711 22.0868 89.651 22.3119 89.2877 22.6071L89.9183 23.3832ZM90.8598 22.8762C91.2292 22.7531 91.6319 22.6895 92.0713 22.6895V21.6895C91.5341 21.6895 91.0237 21.7675 90.5435 21.9275L90.8598 22.8762ZM92.0713 22.6895C92.5571 22.6895 92.9913 22.7502 93.3778 22.8661L93.6652 21.9083C93.1727 21.7606 92.6402 21.6895 92.0713 21.6895V22.6895ZM93.3827 22.8676C93.7665 22.9784 94.0803 23.1403 94.3341 23.3466L94.9647 22.5704C94.5935 22.2689 94.1554 22.0499 93.6603 21.9068L93.3827 22.8676ZM94.3305 23.3436C94.5823 23.5521 94.7778 23.8096 94.9183 24.1227L95.8307 23.7133C95.6294 23.2646 95.3415 22.8825 94.9683 22.5734L94.3305 23.3436ZM94.9216 24.1297C95.0608 24.4275 95.1382 24.7897 95.1382 25.229H96.1382C96.1382 24.6722 96.0398 24.1604 95.8275 23.7062L94.9216 24.1297ZM95.1382 25.229C95.1382 25.408 95.1116 25.5861 95.0573 25.7646L96.014 26.0557C96.0964 25.785 96.1382 25.509 96.1382 25.229H95.1382ZM95.0582 25.7616C95.0044 25.9348 94.9249 26.1024 94.8178 26.265L95.6529 26.815C95.8095 26.5773 95.9302 26.325 96.0131 26.0587L95.0582 25.7616ZM94.8178 26.265C94.7126 26.4247 94.5796 26.5767 94.4154 26.7204L95.0739 27.473C95.3003 27.2749 95.4944 27.0558 95.6529 26.815L94.8178 26.265ZM94.4208 26.7157C94.2611 26.8514 94.0733 26.9728 93.8542 27.0782L94.2874 27.9794C94.5761 27.8406 94.8375 27.674 95.0685 27.4776L94.4208 26.7157ZM93.9012 27.9992C94.158 28.0918 94.3667 28.2052 94.5341 28.3346L95.1456 27.5433C94.8833 27.3407 94.5793 27.1807 94.2404 27.0585L93.9012 27.9992ZM94.5384 28.3379C94.718 28.4735 94.8591 28.6221 94.9673 28.7825L95.7964 28.2234C95.6213 27.9638 95.4012 27.7364 95.1413 27.54L94.5384 28.3379ZM94.9644 28.7781C95.0759 28.9474 95.1592 29.1326 95.214 29.336L96.1796 29.0761C96.0977 28.7717 95.971 28.4882 95.7993 28.2278L94.9644 28.7781ZM95.214 29.336C95.2701 29.5444 95.2993 29.7691 95.2993 30.0117H96.2993C96.2993 29.688 96.2602 29.3755 96.1796 29.0761L95.214 29.336ZM95.2993 30.0117C95.2993 30.445 95.2168 30.8126 95.0642 31.1256L95.9631 31.5638C96.1914 31.0956 96.2993 30.5746 96.2993 30.0117H95.2993ZM95.0642 31.1256C94.9057 31.4509 94.6911 31.7186 94.419 31.9346L95.0409 32.7177C95.4329 32.4064 95.7408 32.0198 95.9631 31.5638L95.0642 31.1256ZM94.4155 31.9374C94.1388 32.1612 93.8018 32.3385 93.3961 32.4636L93.6909 33.4192C94.2031 33.2611 94.6571 33.0282 95.0444 32.7149L94.4155 31.9374ZM93.3993 32.4626C92.9969 32.5838 92.5552 32.6465 92.0713 32.6465V33.6465C92.6421 33.6465 93.1818 33.5724 93.6876 33.4202L93.3993 32.4626ZM92.0713 32.6465C91.6626 32.6465 91.2638 32.5916 90.8735 32.482L90.6031 33.4447C91.0819 33.5793 91.5718 33.6465 92.0713 33.6465V32.6465ZM90.88 32.4839C90.5041 32.3728 90.1755 32.2084 89.8893 31.9928L89.2875 32.7914C89.6751 33.0836 90.1131 33.3 90.5966 33.4429L90.88 32.4839ZM89.8856 31.99C89.6099 31.7862 89.3869 31.5284 89.2156 31.2102L88.3352 31.6843C88.574 32.1279 88.8931 32.4999 89.2912 32.7942L89.8856 31.99ZM89.218 31.2146C89.0624 30.9187 88.9751 30.5525 88.9751 30.0996H87.9751C87.9751 30.6819 88.088 31.2141 88.3328 31.6799L89.218 31.2146ZM88.4751 30.5996H90.5112V29.5996H88.4751V30.5996ZM90.0112 30.0996C90.0112 30.3699 90.0631 30.6301 90.1715 30.874L91.0853 30.4678C91.0375 30.3601 91.0112 30.2394 91.0112 30.0996H90.0112ZM90.1737 30.8788C90.2834 31.1188 90.4421 31.3252 90.6452 31.4945L91.2854 30.7262C91.1956 30.6514 91.1297 30.5648 91.0832 30.463L90.1737 30.8788ZM90.6316 31.4826C90.8238 31.655 91.0472 31.7858 91.2951 31.8788L91.6463 30.9425C91.5035 30.889 91.3901 30.8197 91.2991 30.7381L90.6316 31.4826ZM91.3055 31.8826C91.5605 31.9718 91.832 32.0132 92.1152 32.0132V31.0132C91.9297 31.0132 91.7716 30.9862 91.6359 30.9387L91.3055 31.8826ZM92.1152 32.0132C92.4248 32.0132 92.7187 31.9702 92.9904 31.8754L92.661 30.9312C92.5128 30.9829 92.333 31.0132 92.1152 31.0132V32.0132ZM92.9904 31.8754C93.2635 31.7802 93.5061 31.6351 93.7066 31.4346L92.9995 30.7275C92.9167 30.8102 92.8078 30.88 92.661 30.9312L92.9904 31.8754ZM93.6933 31.4475C93.891 31.2638 94.036 31.0399 94.1298 30.7852L93.1915 30.4395C93.1486 30.5558 93.0885 30.6444 93.0128 30.7147L93.6933 31.4475ZM94.1257 30.7959C94.2252 30.5438 94.2705 30.2727 94.2705 29.9897H93.2705C93.2705 30.1657 93.2425 30.3097 93.1956 30.4287L94.1257 30.7959ZM94.2705 29.9897C94.2705 29.6558 94.2227 29.3421 94.1095 29.0624L93.1825 29.4376C93.2353 29.568 93.2705 29.7475 93.2705 29.9897H94.2705ZM94.1095 29.0624C93.9985 28.7883 93.833 28.551 93.6095 28.3625L92.9647 29.1268C93.0538 29.2019 93.1274 29.3015 93.1825 29.4376L94.1095 29.0624ZM93.6037 28.3577C93.3834 28.1774 93.1271 28.0504 92.8445 27.9705L92.5725 28.9328C92.7391 28.9799 92.8686 29.0482 92.9705 29.1316L93.6037 28.3577ZM92.8473 27.9713C92.5739 27.8923 92.2769 27.8564 91.9614 27.8564V28.8564C92.2026 28.8564 92.4036 28.884 92.5697 28.932L92.8473 27.9713ZM91.9614 27.8564H90.8555V28.8564H91.9614V27.8564ZM91.3555 28.3564V26.7744H90.3555V28.3564H91.3555Z" fill="white" mask="url(#path-6-outside-1_866_198)"/>
</svg>
