<?xml version="1.0" encoding="UTF-8"?>
<svg id="Layer_1" data-name="Layer 1" xmlns="http://www.w3.org/2000/svg" xmlns:xlink="http://www.w3.org/1999/xlink" viewBox="0 0 150 150">
  <defs>
    <style>
      .cls-1 {
        fill: none;
      }

      .cls-1, .cls-2 {
        stroke-width: 0px;
      }

      .cls-2 {
        fill: #fff;
      }

      .cls-3 {
        clip-path: url(#clippath);
      }
    </style>
    <clipPath id="clippath">
      <rect class="cls-1" width="150" height="150"/>
    </clipPath>
  </defs>
  <g class="cls-3">
    <g>
      <path class="cls-2" d="M77.16,33.17H7.83v33.84h69.33v-33.84ZM73.87,63.72H11.13v-27.25h62.74v27.25Z"/>
      <path class="cls-2" d="M22.12,42.21h11.17c.73,0,1.31-.59,1.31-1.31s-.59-1.31-1.31-1.31h-11.17c-.73,0-1.31.59-1.31,1.31s.59,1.31,1.31,1.31Z"/>
      <path class="cls-2" d="M33.3,58.64h-11.17c-.73,0-1.31.59-1.31,1.31s.59,1.31,1.31,1.31h11.17c.73,0,1.31-.59,1.31-1.31s-.59-1.31-1.31-1.31Z"/>
      <path class="cls-2" d="M51.7,42.21h11.17c.73,0,1.31-.59,1.31-1.31s-.59-1.31-1.31-1.31h-11.17c-.73,0-1.31.59-1.31,1.31s.59,1.31,1.31,1.31Z"/>
      <path class="cls-2" d="M62.87,58.64h-11.17c-.73,0-1.31.59-1.31,1.31s.59,1.31,1.31,1.31h11.17c.73,0,1.31-.59,1.31-1.31s-.59-1.31-1.31-1.31Z"/>
      <polygon class="cls-2" points="20 52.7 21.09 50.53 22.19 52.7 23.53 52.7 21.81 49.69 23.49 46.72 22.14 46.72 21.07 48.87 20.03 46.72 18.68 46.72 20.36 49.69 18.63 52.7 20 52.7"/>
      <polygon class="cls-2" points="27.15 52.7 28.24 50.53 29.34 52.7 30.69 52.7 28.96 49.69 30.65 46.72 29.29 46.72 28.23 48.87 27.18 46.72 25.83 46.72 27.51 49.69 25.79 52.7 27.15 52.7"/>
      <polygon class="cls-2" points="32.99 46.72 34.67 49.69 32.94 52.7 34.31 52.7 35.4 50.53 36.49 52.7 37.84 52.7 36.12 49.69 37.8 46.72 36.44 46.72 35.38 48.87 34.33 46.72 32.99 46.72"/>
      <rect class="cls-2" x="41.13" y="49.6" width="3.42" height=".92"/>
      <polygon class="cls-2" points="49.35 52.7 50.5 52.7 50.5 46.72 50.44 46.72 47.84 47.66 47.84 48.66 49.35 48.11 49.35 52.7"/>
      <path class="cls-2" d="M57.8,50.02c.16-.18.3-.36.41-.54.11-.18.2-.35.26-.53.06-.18.09-.37.09-.57,0-.26-.04-.5-.12-.71-.08-.22-.2-.4-.36-.55-.16-.15-.36-.27-.59-.36-.23-.08-.5-.13-.81-.13s-.61.05-.87.16c-.26.1-.48.24-.67.42-.19.18-.33.39-.43.62-.1.24-.15.49-.15.75h1.15c0-.16.02-.31.06-.43.04-.13.1-.23.18-.32.08-.08.17-.14.29-.18.12-.04.25-.07.41-.07.12,0,.22.02.32.06.1.04.18.09.25.16.07.07.12.16.16.27.04.1.06.22.06.36,0,.09-.02.18-.05.28-.03.1-.07.2-.14.31-.07.11-.15.24-.25.37-.1.13-.23.28-.38.45l-1.93,2.08v.78h4.08v-.92h-2.62l1.13-1.19c.19-.2.37-.39.53-.57Z"/>
      <path class="cls-2" d="M63.08,46.76c-.24.08-.44.19-.62.33-.18.15-.31.32-.41.52-.1.2-.15.42-.15.67h1.14c0-.11.02-.21.07-.3s.1-.16.18-.23c.07-.06.16-.11.26-.14.1-.03.21-.05.32-.05.14,0,.26.02.37.06.11.04.19.09.26.16.07.07.12.16.15.25.04.1.05.2.05.32s-.02.23-.05.34c-.03.1-.08.19-.15.26-.07.08-.17.15-.29.19-.12.04-.26.07-.42.07h-.62v.89h.62c.16,0,.3.02.42.05.13.04.23.09.32.16.09.07.15.17.2.28.05.11.07.25.07.41,0,.13-.02.25-.06.35-.04.1-.1.19-.17.26-.08.08-.18.14-.3.18-.12.04-.25.06-.4.06-.13,0-.25-.02-.36-.06-.11-.04-.2-.1-.28-.17-.08-.07-.15-.15-.19-.25-.04-.1-.07-.21-.07-.32h-1.14c0,.29.06.54.17.76.11.21.27.39.46.53.19.14.4.25.64.32.24.07.49.1.75.1.3,0,.57-.04.83-.11.26-.08.48-.19.67-.34.19-.15.33-.33.44-.55.11-.22.16-.47.16-.75,0-.16-.02-.31-.06-.45-.04-.14-.1-.27-.18-.39-.08-.12-.18-.22-.3-.32-.12-.09-.26-.17-.43-.23.14-.07.27-.15.38-.24.11-.1.2-.2.28-.31.07-.11.13-.23.17-.35.04-.13.06-.25.06-.38,0-.28-.05-.52-.15-.74-.1-.21-.23-.39-.41-.54-.18-.14-.39-.25-.63-.32-.25-.07-.52-.11-.81-.11-.27,0-.53.04-.77.12Z"/>
      <path class="cls-2" d="M139.54,69.53H50.2c-1.45,0-2.63,1.18-2.63,2.63v42.04c0,1.45,1.18,2.63,2.63,2.63h89.34c1.45,0,2.63-1.18,2.63-2.63v-42.04c0-1.45-1.18-2.63-2.63-2.63ZM137.22,111.88H52.51v-37.41h84.71v37.41Z"/>
      <path class="cls-2" d="M67.71,82.67h14.89c.97,0,1.75-.78,1.75-1.75s-.78-1.75-1.75-1.75h-14.89c-.97,0-1.75.78-1.75,1.75s.78,1.75,1.75,1.75Z"/>
      <path class="cls-2" d="M82.6,104.56h-14.89c-.97,0-1.75.78-1.75,1.75s.78,1.75,1.75,1.75h14.89c.97,0,1.75-.78,1.75-1.75s-.78-1.75-1.75-1.75Z"/>
      <path class="cls-2" d="M107.13,82.67h14.89c.97,0,1.75-.78,1.75-1.75s-.78-1.75-1.75-1.75h-14.89c-.97,0-1.75.78-1.75,1.75s.78,1.75,1.75,1.75Z"/>
      <path class="cls-2" d="M122.02,104.56h-14.89c-.97,0-1.75.78-1.75,1.75s.78,1.75,1.75,1.75h14.89c.97,0,1.75-.78,1.75-1.75s-.78-1.75-1.75-1.75Z"/>
      <polygon class="cls-2" points="64.88 96.65 66.33 93.75 67.8 96.65 69.59 96.65 67.29 92.64 69.54 88.68 67.73 88.68 66.31 91.54 64.92 88.68 63.12 88.68 65.36 92.64 63.06 96.65 64.88 96.65"/>
      <polygon class="cls-2" points="74.41 96.65 75.87 93.75 77.33 96.65 79.13 96.65 76.83 92.64 79.07 88.68 77.27 88.68 75.85 91.54 74.45 88.68 72.66 88.68 74.89 92.64 72.6 96.65 74.41 96.65"/>
      <polygon class="cls-2" points="82.19 88.68 84.43 92.64 82.13 96.65 83.95 96.65 85.4 93.75 86.87 96.65 88.66 96.65 86.36 92.64 88.61 88.68 86.8 88.68 85.38 91.54 83.99 88.68 82.19 88.68"/>
      <rect class="cls-2" x="93.04" y="92.52" width="4.56" height="1.23"/>
      <polygon class="cls-2" points="104 96.65 105.54 96.65 105.54 88.68 105.45 88.68 101.98 89.94 101.98 91.26 104 90.54 104 96.65"/>
      <path class="cls-2" d="M115.26,93.09c.21-.24.39-.48.55-.72.15-.23.26-.47.34-.71.08-.24.13-.49.13-.76,0-.35-.05-.66-.16-.95-.11-.29-.27-.53-.48-.74-.21-.2-.47-.36-.79-.48-.31-.11-.67-.17-1.07-.17s-.81.07-1.16.21c-.35.14-.64.32-.89.56-.25.24-.44.51-.57.83-.14.31-.2.65-.2,1h1.53c0-.22.03-.41.08-.57.05-.17.14-.31.24-.42.1-.11.23-.19.38-.25.16-.06.34-.09.54-.09.16,0,.3.03.43.08.13.05.24.12.34.22.09.1.16.22.21.36.05.14.08.3.08.48,0,.12-.02.24-.06.37-.04.13-.1.26-.18.41-.09.15-.2.31-.34.49-.14.18-.31.38-.51.6l-2.58,2.77v1.04h5.43v-1.22h-3.5l1.5-1.59c.26-.27.49-.52.71-.76Z"/>
      <path class="cls-2" d="M122.3,88.73c-.31.11-.59.25-.82.44-.23.19-.42.42-.55.69-.13.27-.2.56-.2.89h1.52c0-.15.03-.28.09-.39.06-.12.14-.22.24-.3.1-.08.21-.14.34-.19.14-.04.28-.07.43-.07.19,0,.35.03.49.08.14.05.26.12.35.21.09.09.16.21.2.34.05.13.07.27.07.43s-.02.31-.07.45c-.04.14-.11.25-.2.34-.1.11-.23.2-.39.26-.16.06-.34.09-.56.09h-.83v1.18h.83c.21,0,.39.02.56.07.17.05.31.12.43.22.12.1.21.22.27.38s.09.34.09.55c0,.17-.03.33-.08.47-.05.14-.13.26-.23.35-.11.11-.24.19-.39.24s-.33.08-.53.08c-.18,0-.34-.03-.48-.08-.15-.05-.27-.13-.38-.22-.11-.09-.19-.2-.25-.33-.06-.13-.09-.27-.09-.43h-1.52c0,.39.07.72.22,1.01.15.28.36.52.61.71.25.19.54.33.86.43.32.09.66.14,1,.14.39,0,.76-.05,1.1-.15.34-.11.64-.26.89-.46.25-.2.44-.44.59-.73.14-.29.21-.62.21-1,0-.21-.03-.41-.08-.6-.05-.19-.13-.36-.24-.53-.11-.16-.24-.3-.4-.42-.16-.12-.35-.23-.57-.31.19-.09.36-.2.5-.32.15-.13.27-.27.37-.42.1-.15.17-.31.22-.47.05-.17.08-.34.08-.51,0-.37-.07-.7-.2-.98-.13-.28-.31-.52-.54-.72-.23-.19-.51-.33-.84-.43-.33-.1-.69-.15-1.08-.15-.36,0-.71.05-1.02.16Z"/>
      <path class="cls-2" d="M32.97,96.35c-.34-.35-.74-.52-1.21-.52-.47,0-.89.18-1.25.53-.36.35-.55.76-.57,1.23-.02.47.14.88.48,1.23l2.05,2.12c-2.06.21-4.07,0-6.03-.64-1.96-.64-3.69-1.74-5.19-3.29-2.27-2.35-3.51-5.12-3.71-8.31-.2-3.19.59-6.14,2.38-8.86.24-.39.32-.82.25-1.28-.07-.46-.27-.86-.59-1.18-.32-.33-.7-.49-1.15-.49-.45,0-.8.18-1.04.53-2.47,3.42-3.6,7.19-3.4,11.33s1.77,7.71,4.7,10.74c1.8,1.86,3.85,3.2,6.15,4.02,2.3.82,4.67,1.15,7.09.97l-1.79,1.73c-.36.35-.55.76-.57,1.23-.02.47.14.88.48,1.23.34.35.74.52,1.21.52.47,0,.89-.18,1.25-.53l5.11-4.94c.36-.35.55-.76.57-1.23.02-.47-.14-.88-.48-1.23l-4.75-4.91Z"/>
    </g>
  </g>
</svg>