<svg width="82" height="52" viewBox="0 0 82 52" fill="none" xmlns="http://www.w3.org/2000/svg">
<path d="M1.5 20.0309V1.5H41.5618V20.0309H1.5Z" stroke="white" stroke-width="3"/>
<rect x="8.37329" y="4.38599" width="8.37313" height="1.59488" rx="0.79744" fill="white"/>
<rect x="8.37329" y="15.9489" width="8.37313" height="1.59488" rx="0.79744" fill="white"/>
<rect x="26.3157" y="4.38599" width="8.37313" height="1.59488" rx="0.79744" fill="white"/>
<rect x="26.3157" y="15.9489" width="8.37313" height="1.59488" rx="0.79744" fill="white"/>
<mask id="path-6-outside-1_866_217" maskUnits="userSpaceOnUse" x="6.05273" y="7.67053" width="31" height="6" fill="black">
<rect fill="white" x="6.05273" y="7.67053" width="31" height="6"/>
<path d="M8.5327 10.0209L9.178 8.72036H10.0002L8.97868 10.5192L10.0251 12.348H9.2079L8.54266 11.0275L7.87992 12.348H7.05273L8.09917 10.5192L7.08014 8.72036H7.89736L8.5327 10.0209Z"/>
<path d="M12.8729 10.0209L13.5182 8.72036H14.3404L13.3189 10.5192L14.3653 12.348H13.5481L12.8829 11.0275L12.2201 12.348H11.393L12.4394 10.5192L11.4204 8.72036H12.2376L12.8729 10.0209Z"/>
<path d="M17.2131 10.0209L17.8584 8.72036H18.6806L17.6591 10.5192L18.7056 12.348H17.8883L17.2231 11.0275L16.5604 12.348H15.7332L16.7796 10.5192L15.7606 8.72036H16.5778L17.2131 10.0209Z"/>
<path d="M22.7767 11.0275H20.7013V10.4669H22.7767V11.0275Z"/>
<path d="M26.3869 12.348H25.6868V9.56499L24.7699 9.89387V9.29092L26.3495 8.72036H26.3869V12.348Z"/>
<path d="M31.4023 12.348H28.9283V11.8746L30.1018 10.6139C30.1931 10.5143 30.2704 10.4237 30.3335 10.3423C30.3966 10.261 30.4481 10.1862 30.4879 10.1181C30.5261 10.0517 30.5536 9.98938 30.5702 9.93124C30.5884 9.8731 30.5976 9.81663 30.5976 9.76182C30.5976 9.68043 30.5859 9.60817 30.5627 9.54505C30.5394 9.48194 30.507 9.42795 30.4655 9.38311C30.4223 9.33992 30.3708 9.3067 30.311 9.28345C30.2529 9.26019 30.1881 9.24856 30.1167 9.24856C30.0237 9.24856 29.9415 9.26185 29.8701 9.28843C29.8003 9.31334 29.7422 9.35072 29.6956 9.40055C29.6475 9.45204 29.6109 9.51599 29.586 9.59239C29.5611 9.6688 29.5486 9.756 29.5486 9.854H28.8535C28.8535 9.69288 28.8842 9.5409 28.9457 9.39806C29.0072 9.25355 29.0944 9.12731 29.2073 9.01934C29.3186 8.91138 29.4531 8.82667 29.6109 8.76521C29.7704 8.70209 29.9465 8.67053 30.1391 8.67053C30.3235 8.67053 30.4863 8.69628 30.6275 8.74777C30.7703 8.79926 30.8899 8.87151 30.9862 8.96453C31.0809 9.05755 31.1532 9.16967 31.203 9.30089C31.2528 9.43044 31.2778 9.57412 31.2778 9.73192C31.2778 9.85151 31.2587 9.96612 31.2205 10.0757C31.1839 10.1837 31.1316 10.2908 31.0635 10.3972C30.9937 10.5035 30.9107 10.6123 30.8143 10.7235C30.718 10.8332 30.6109 10.9486 30.4929 11.0699L29.8103 11.7924H31.4023V12.348Z"/>
<path d="M34.0683 10.2302H34.4445C34.5441 10.2302 34.6297 10.2169 34.7011 10.1904C34.7742 10.1621 34.8332 10.1231 34.878 10.0733C34.9195 10.0301 34.9503 9.97775 34.9702 9.91629C34.9918 9.85317 35.0026 9.78507 35.0026 9.71199C35.0026 9.64056 34.9918 9.57578 34.9702 9.51765C34.9503 9.45785 34.9195 9.40636 34.878 9.36317C34.8365 9.32165 34.7833 9.28926 34.7185 9.266C34.6554 9.24275 34.5815 9.23112 34.4968 9.23112C34.427 9.23112 34.3614 9.24109 34.3 9.26102C34.2402 9.28095 34.1878 9.30919 34.143 9.34573C34.0965 9.38394 34.06 9.42961 34.0334 9.48277C34.0068 9.53592 33.9935 9.59572 33.9935 9.66216H33.3009C33.3009 9.51433 33.3308 9.37978 33.3906 9.25853C33.452 9.13728 33.5359 9.03263 33.6422 8.9446C33.7485 8.85823 33.8731 8.79096 34.0159 8.74279C34.1604 8.69462 34.3157 8.67053 34.4818 8.67053C34.6612 8.67053 34.8257 8.69296 34.9752 8.7378C35.1247 8.78099 35.2526 8.84577 35.3589 8.93214C35.4652 9.02018 35.5474 9.12897 35.6055 9.25853C35.6653 9.38643 35.6952 9.53509 35.6952 9.70451C35.6952 9.78258 35.6836 9.85982 35.6603 9.93622C35.6371 10.011 35.603 10.0824 35.5582 10.1505C35.5133 10.2186 35.4577 10.2817 35.3913 10.3398C35.3248 10.3963 35.2484 10.4453 35.162 10.4868C35.2634 10.5234 35.3506 10.5699 35.4236 10.6264C35.4984 10.6828 35.5598 10.7468 35.608 10.8182C35.6562 10.8913 35.6919 10.971 35.7151 11.0574C35.7384 11.1438 35.75 11.2351 35.75 11.3315C35.75 11.5009 35.7176 11.652 35.6529 11.7849C35.5881 11.9178 35.4992 12.0291 35.3863 12.1188C35.2733 12.2101 35.1388 12.2799 34.9826 12.3281C34.8282 12.3746 34.6612 12.3978 34.4818 12.3978C34.3274 12.3978 34.1762 12.3771 34.0284 12.3356C33.8822 12.2924 33.7518 12.2276 33.6372 12.1412C33.5226 12.0565 33.4304 11.9494 33.3607 11.8198C33.2926 11.6903 33.2585 11.5374 33.2585 11.3614H33.9512C33.9512 11.4311 33.9644 11.4959 33.991 11.5557C34.0176 11.6138 34.0558 11.6637 34.1056 11.7052C34.1538 11.7484 34.2111 11.7824 34.2775 11.8074C34.344 11.8306 34.4171 11.8422 34.4968 11.8422C34.5865 11.8422 34.667 11.8298 34.7385 11.8049C34.8099 11.7799 34.8697 11.7434 34.9179 11.6952C34.9644 11.652 34.9993 11.5989 35.0225 11.5358C35.0474 11.4727 35.0599 11.4021 35.0599 11.324C35.0599 11.226 35.0458 11.1421 35.0175 11.0724C34.9893 11.0026 34.9486 10.9453 34.8954 10.9004C34.8406 10.8556 34.775 10.8224 34.6986 10.8008C34.6239 10.7792 34.5392 10.7684 34.4445 10.7684H34.0683V10.2302Z"/>
</mask>
<path d="M8.5327 10.0209L9.178 8.72036H10.0002L8.97868 10.5192L10.0251 12.348H9.2079L8.54266 11.0275L7.87992 12.348H7.05273L8.09917 10.5192L7.08014 8.72036H7.89736L8.5327 10.0209Z" fill="white"/>
<path d="M12.8729 10.0209L13.5182 8.72036H14.3404L13.3189 10.5192L14.3653 12.348H13.5481L12.8829 11.0275L12.2201 12.348H11.393L12.4394 10.5192L11.4204 8.72036H12.2376L12.8729 10.0209Z" fill="white"/>
<path d="M17.2131 10.0209L17.8584 8.72036H18.6806L17.6591 10.5192L18.7056 12.348H17.8883L17.2231 11.0275L16.5604 12.348H15.7332L16.7796 10.5192L15.7606 8.72036H16.5778L17.2131 10.0209Z" fill="white"/>
<path d="M22.7767 11.0275H20.7013V10.4669H22.7767V11.0275Z" fill="white"/>
<path d="M26.3869 12.348H25.6868V9.56499L24.7699 9.89387V9.29092L26.3495 8.72036H26.3869V12.348Z" fill="white"/>
<path d="M31.4023 12.348H28.9283V11.8746L30.1018 10.6139C30.1931 10.5143 30.2704 10.4237 30.3335 10.3423C30.3966 10.261 30.4481 10.1862 30.4879 10.1181C30.5261 10.0517 30.5536 9.98938 30.5702 9.93124C30.5884 9.8731 30.5976 9.81663 30.5976 9.76182C30.5976 9.68043 30.5859 9.60817 30.5627 9.54505C30.5394 9.48194 30.507 9.42795 30.4655 9.38311C30.4223 9.33992 30.3708 9.3067 30.311 9.28345C30.2529 9.26019 30.1881 9.24856 30.1167 9.24856C30.0237 9.24856 29.9415 9.26185 29.8701 9.28843C29.8003 9.31334 29.7422 9.35072 29.6956 9.40055C29.6475 9.45204 29.6109 9.51599 29.586 9.59239C29.5611 9.6688 29.5486 9.756 29.5486 9.854H28.8535C28.8535 9.69288 28.8842 9.5409 28.9457 9.39806C29.0072 9.25355 29.0944 9.12731 29.2073 9.01934C29.3186 8.91138 29.4531 8.82667 29.6109 8.76521C29.7704 8.70209 29.9465 8.67053 30.1391 8.67053C30.3235 8.67053 30.4863 8.69628 30.6275 8.74777C30.7703 8.79926 30.8899 8.87151 30.9862 8.96453C31.0809 9.05755 31.1532 9.16967 31.203 9.30089C31.2528 9.43044 31.2778 9.57412 31.2778 9.73192C31.2778 9.85151 31.2587 9.96612 31.2205 10.0757C31.1839 10.1837 31.1316 10.2908 31.0635 10.3972C30.9937 10.5035 30.9107 10.6123 30.8143 10.7235C30.718 10.8332 30.6109 10.9486 30.4929 11.0699L29.8103 11.7924H31.4023V12.348Z" fill="white"/>
<path d="M34.0683 10.2302H34.4445C34.5441 10.2302 34.6297 10.2169 34.7011 10.1904C34.7742 10.1621 34.8332 10.1231 34.878 10.0733C34.9195 10.0301 34.9503 9.97775 34.9702 9.91629C34.9918 9.85317 35.0026 9.78507 35.0026 9.71199C35.0026 9.64056 34.9918 9.57578 34.9702 9.51765C34.9503 9.45785 34.9195 9.40636 34.878 9.36317C34.8365 9.32165 34.7833 9.28926 34.7185 9.266C34.6554 9.24275 34.5815 9.23112 34.4968 9.23112C34.427 9.23112 34.3614 9.24109 34.3 9.26102C34.2402 9.28095 34.1878 9.30919 34.143 9.34573C34.0965 9.38394 34.06 9.42961 34.0334 9.48277C34.0068 9.53592 33.9935 9.59572 33.9935 9.66216H33.3009C33.3009 9.51433 33.3308 9.37978 33.3906 9.25853C33.452 9.13728 33.5359 9.03263 33.6422 8.9446C33.7485 8.85823 33.8731 8.79096 34.0159 8.74279C34.1604 8.69462 34.3157 8.67053 34.4818 8.67053C34.6612 8.67053 34.8257 8.69296 34.9752 8.7378C35.1247 8.78099 35.2526 8.84577 35.3589 8.93214C35.4652 9.02018 35.5474 9.12897 35.6055 9.25853C35.6653 9.38643 35.6952 9.53509 35.6952 9.70451C35.6952 9.78258 35.6836 9.85982 35.6603 9.93622C35.6371 10.011 35.603 10.0824 35.5582 10.1505C35.5133 10.2186 35.4577 10.2817 35.3913 10.3398C35.3248 10.3963 35.2484 10.4453 35.162 10.4868C35.2634 10.5234 35.3506 10.5699 35.4236 10.6264C35.4984 10.6828 35.5598 10.7468 35.608 10.8182C35.6562 10.8913 35.6919 10.971 35.7151 11.0574C35.7384 11.1438 35.75 11.2351 35.75 11.3315C35.75 11.5009 35.7176 11.652 35.6529 11.7849C35.5881 11.9178 35.4992 12.0291 35.3863 12.1188C35.2733 12.2101 35.1388 12.2799 34.9826 12.3281C34.8282 12.3746 34.6612 12.3978 34.4818 12.3978C34.3274 12.3978 34.1762 12.3771 34.0284 12.3356C33.8822 12.2924 33.7518 12.2276 33.6372 12.1412C33.5226 12.0565 33.4304 11.9494 33.3607 11.8198C33.2926 11.6903 33.2585 11.5374 33.2585 11.3614H33.9512C33.9512 11.4311 33.9644 11.4959 33.991 11.5557C34.0176 11.6138 34.0558 11.6637 34.1056 11.7052C34.1538 11.7484 34.2111 11.7824 34.2775 11.8074C34.344 11.8306 34.4171 11.8422 34.4968 11.8422C34.5865 11.8422 34.667 11.8298 34.7385 11.8049C34.8099 11.7799 34.8697 11.7434 34.9179 11.6952C34.9644 11.652 34.9993 11.5989 35.0225 11.5358C35.0474 11.4727 35.0599 11.4021 35.0599 11.324C35.0599 11.226 35.0458 11.1421 35.0175 11.0724C34.9893 11.0026 34.9486 10.9453 34.8954 10.9004C34.8406 10.8556 34.775 10.8224 34.6986 10.8008C34.6239 10.7792 34.5392 10.7684 34.4445 10.7684H34.0683V10.2302Z" fill="white"/>
<path d="M8.5327 10.0209L9.178 8.72036H10.0002L8.97868 10.5192L10.0251 12.348H9.2079L8.54266 11.0275L7.87992 12.348H7.05273L8.09917 10.5192L7.08014 8.72036H7.89736L8.5327 10.0209Z" stroke="white" mask="url(#path-6-outside-1_866_217)"/>
<path d="M12.8729 10.0209L13.5182 8.72036H14.3404L13.3189 10.5192L14.3653 12.348H13.5481L12.8829 11.0275L12.2201 12.348H11.393L12.4394 10.5192L11.4204 8.72036H12.2376L12.8729 10.0209Z" stroke="white" mask="url(#path-6-outside-1_866_217)"/>
<path d="M17.2131 10.0209L17.8584 8.72036H18.6806L17.6591 10.5192L18.7056 12.348H17.8883L17.2231 11.0275L16.5604 12.348H15.7332L16.7796 10.5192L15.7606 8.72036H16.5778L17.2131 10.0209Z" stroke="white" mask="url(#path-6-outside-1_866_217)"/>
<path d="M22.7767 11.0275H20.7013V10.4669H22.7767V11.0275Z" stroke="white" mask="url(#path-6-outside-1_866_217)"/>
<path d="M26.3869 12.348H25.6868V9.56499L24.7699 9.89387V9.29092L26.3495 8.72036H26.3869V12.348Z" stroke="white" mask="url(#path-6-outside-1_866_217)"/>
<path d="M31.4023 12.348H28.9283V11.8746L30.1018 10.6139C30.1931 10.5143 30.2704 10.4237 30.3335 10.3423C30.3966 10.261 30.4481 10.1862 30.4879 10.1181C30.5261 10.0517 30.5536 9.98938 30.5702 9.93124C30.5884 9.8731 30.5976 9.81663 30.5976 9.76182C30.5976 9.68043 30.5859 9.60817 30.5627 9.54505C30.5394 9.48194 30.507 9.42795 30.4655 9.38311C30.4223 9.33992 30.3708 9.3067 30.311 9.28345C30.2529 9.26019 30.1881 9.24856 30.1167 9.24856C30.0237 9.24856 29.9415 9.26185 29.8701 9.28843C29.8003 9.31334 29.7422 9.35072 29.6956 9.40055C29.6475 9.45204 29.6109 9.51599 29.586 9.59239C29.5611 9.6688 29.5486 9.756 29.5486 9.854H28.8535C28.8535 9.69288 28.8842 9.5409 28.9457 9.39806C29.0072 9.25355 29.0944 9.12731 29.2073 9.01934C29.3186 8.91138 29.4531 8.82667 29.6109 8.76521C29.7704 8.70209 29.9465 8.67053 30.1391 8.67053C30.3235 8.67053 30.4863 8.69628 30.6275 8.74777C30.7703 8.79926 30.8899 8.87151 30.9862 8.96453C31.0809 9.05755 31.1532 9.16967 31.203 9.30089C31.2528 9.43044 31.2778 9.57412 31.2778 9.73192C31.2778 9.85151 31.2587 9.96612 31.2205 10.0757C31.1839 10.1837 31.1316 10.2908 31.0635 10.3972C30.9937 10.5035 30.9107 10.6123 30.8143 10.7235C30.718 10.8332 30.6109 10.9486 30.4929 11.0699L29.8103 11.7924H31.4023V12.348Z" stroke="white" mask="url(#path-6-outside-1_866_217)"/>
<path d="M34.0683 10.2302H34.4445C34.5441 10.2302 34.6297 10.2169 34.7011 10.1904C34.7742 10.1621 34.8332 10.1231 34.878 10.0733C34.9195 10.0301 34.9503 9.97775 34.9702 9.91629C34.9918 9.85317 35.0026 9.78507 35.0026 9.71199C35.0026 9.64056 34.9918 9.57578 34.9702 9.51765C34.9503 9.45785 34.9195 9.40636 34.878 9.36317C34.8365 9.32165 34.7833 9.28926 34.7185 9.266C34.6554 9.24275 34.5815 9.23112 34.4968 9.23112C34.427 9.23112 34.3614 9.24109 34.3 9.26102C34.2402 9.28095 34.1878 9.30919 34.143 9.34573C34.0965 9.38394 34.06 9.42961 34.0334 9.48277C34.0068 9.53592 33.9935 9.59572 33.9935 9.66216H33.3009C33.3009 9.51433 33.3308 9.37978 33.3906 9.25853C33.452 9.13728 33.5359 9.03263 33.6422 8.9446C33.7485 8.85823 33.8731 8.79096 34.0159 8.74279C34.1604 8.69462 34.3157 8.67053 34.4818 8.67053C34.6612 8.67053 34.8257 8.69296 34.9752 8.7378C35.1247 8.78099 35.2526 8.84577 35.3589 8.93214C35.4652 9.02018 35.5474 9.12897 35.6055 9.25853C35.6653 9.38643 35.6952 9.53509 35.6952 9.70451C35.6952 9.78258 35.6836 9.85982 35.6603 9.93622C35.6371 10.011 35.603 10.0824 35.5582 10.1505C35.5133 10.2186 35.4577 10.2817 35.3913 10.3398C35.3248 10.3963 35.2484 10.4453 35.162 10.4868C35.2634 10.5234 35.3506 10.5699 35.4236 10.6264C35.4984 10.6828 35.5598 10.7468 35.608 10.8182C35.6562 10.8913 35.6919 10.971 35.7151 11.0574C35.7384 11.1438 35.75 11.2351 35.75 11.3315C35.75 11.5009 35.7176 11.652 35.6529 11.7849C35.5881 11.9178 35.4992 12.0291 35.3863 12.1188C35.2733 12.2101 35.1388 12.2799 34.9826 12.3281C34.8282 12.3746 34.6612 12.3978 34.4818 12.3978C34.3274 12.3978 34.1762 12.3771 34.0284 12.3356C33.8822 12.2924 33.7518 12.2276 33.6372 12.1412C33.5226 12.0565 33.4304 11.9494 33.3607 11.8198C33.2926 11.6903 33.2585 11.5374 33.2585 11.3614H33.9512C33.9512 11.4311 33.9644 11.4959 33.991 11.5557C34.0176 11.6138 34.0558 11.6637 34.1056 11.7052C34.1538 11.7484 34.2111 11.7824 34.2775 11.8074C34.344 11.8306 34.4171 11.8422 34.4968 11.8422C34.5865 11.8422 34.667 11.8298 34.7385 11.8049C34.8099 11.7799 34.8697 11.7434 34.9179 11.6952C34.9644 11.652 34.9993 11.5989 35.0225 11.5358C35.0474 11.4727 35.0599 11.4021 35.0599 11.324C35.0599 11.226 35.0458 11.1421 35.0175 11.0724C34.9893 11.0026 34.9486 10.9453 34.8954 10.9004C34.8406 10.8556 34.775 10.8224 34.6986 10.8008C34.6239 10.7792 34.5392 10.7684 34.4445 10.7684H34.0683V10.2302Z" stroke="white" mask="url(#path-6-outside-1_866_217)"/>
<path d="M26.2009 24.0562H80.4056C80.4577 24.0562 80.4999 24.0984 80.4999 24.1504V49.6585C80.4999 49.7105 80.4577 49.7527 80.4056 49.7527H26.2009C26.1489 49.7527 26.1067 49.7105 26.1067 49.6585V24.1504C26.1067 24.0984 26.1489 24.0562 26.2009 24.0562Z" stroke="white" stroke-width="3"/>
<rect x="35.7666" y="28.4019" width="11.1598" height="2.12567" rx="1.06284" fill="white"/>
<rect x="35.7666" y="43.813" width="11.1598" height="2.12567" rx="1.06284" fill="white"/>
<rect x="59.6802" y="28.4019" width="11.1598" height="2.12567" rx="1.06284" fill="white"/>
<rect x="59.6802" y="43.813" width="11.1598" height="2.12567" rx="1.06284" fill="white"/>
<mask id="path-12-outside-2_866_217" maskUnits="userSpaceOnUse" x="33.0068" y="33.1123" width="40" height="7" fill="black">
<rect fill="white" x="33.0068" y="33.1123" width="40" height="7"/>
<path d="M35.9793 35.9121L36.8394 34.1787H37.9352L36.5738 36.5763L37.9685 39.0137H36.8793L35.9926 37.2537L35.1093 39.0137H34.0068L35.4015 36.5763L34.0434 34.1787H35.1326L35.9793 35.9121Z"/>
<path d="M41.764 35.9121L42.6241 34.1787H43.7199L42.3584 36.5763L43.7531 39.0137H42.664L41.7773 37.2537L40.894 39.0137H39.7915L41.1862 36.5763L39.8281 34.1787H40.9173L41.764 35.9121Z"/>
<path d="M47.5487 35.9121L48.4088 34.1787H49.5046L48.1431 36.5763L49.5378 39.0137H48.4486L47.562 37.2537L46.6787 39.0137H45.5762L46.9709 36.5763L45.6127 34.1787H46.7019L47.5487 35.9121Z"/>
<path d="M54.9639 37.2537H52.1977V36.5065H54.9639V37.2537Z"/>
<path d="M59.7756 39.0137H58.8425V35.3044L57.6205 35.7428V34.9392L59.7258 34.1787H59.7756V39.0137Z"/>
<path d="M66.4602 39.0137H63.1628V38.3827L64.7268 36.7025C64.8486 36.5696 64.9515 36.449 65.0356 36.3405C65.1198 36.232 65.1884 36.1324 65.2415 36.0416C65.2924 35.9531 65.329 35.8701 65.3511 35.7926C65.3755 35.7151 65.3876 35.6398 65.3876 35.5668C65.3876 35.4583 65.3721 35.362 65.3411 35.2779C65.3101 35.1938 65.267 35.1218 65.2116 35.062C65.1541 35.0045 65.0854 34.9602 65.0058 34.9292C64.9283 34.8982 64.8419 34.8827 64.7467 34.8827C64.6228 34.8827 64.5132 34.9004 64.418 34.9358C64.325 34.9691 64.2475 35.0189 64.1855 35.0853C64.1213 35.1539 64.0726 35.2391 64.0394 35.341C64.0062 35.4428 63.9896 35.559 63.9896 35.6896H63.0631C63.0631 35.4749 63.1041 35.2723 63.186 35.082C63.2679 34.8894 63.3841 34.7211 63.5347 34.5772C63.683 34.4333 63.8623 34.3204 64.0726 34.2385C64.2852 34.1544 64.5198 34.1123 64.7766 34.1123C65.0224 34.1123 65.2393 34.1466 65.4275 34.2152C65.6179 34.2839 65.7773 34.3802 65.9057 34.5041C66.0319 34.6281 66.1282 34.7776 66.1946 34.9524C66.261 35.1251 66.2942 35.3166 66.2942 35.5269C66.2942 35.6863 66.2687 35.8391 66.2178 35.9852C66.1691 36.1291 66.0994 36.2719 66.0086 36.4136C65.9156 36.5552 65.8049 36.7003 65.6765 36.8486C65.5481 36.9947 65.4053 37.1485 65.2482 37.3102L64.3383 38.2732H66.4602V39.0137Z"/>
<path d="M70.0134 36.1911H70.5148C70.6477 36.1911 70.7617 36.1734 70.8569 36.1379C70.9543 36.1003 71.0329 36.0483 71.0926 35.9819C71.148 35.9243 71.1889 35.8546 71.2155 35.7727C71.2443 35.6885 71.2587 35.5978 71.2587 35.5004C71.2587 35.4052 71.2443 35.3188 71.2155 35.2413C71.1889 35.1617 71.148 35.093 71.0926 35.0355C71.0373 34.9801 70.9664 34.9369 70.8801 34.906C70.796 34.875 70.6975 34.8595 70.5846 34.8595C70.4916 34.8595 70.4041 34.8727 70.3222 34.8993C70.2425 34.9259 70.1728 34.9635 70.113 35.0122C70.051 35.0631 70.0023 35.124 69.9669 35.1949C69.9315 35.2657 69.9138 35.3454 69.9138 35.434H68.9906C68.9906 35.2369 69.0305 35.0576 69.1102 34.896C69.1921 34.7344 69.3039 34.5949 69.4456 34.4776C69.5872 34.3625 69.7533 34.2728 69.9437 34.2086C70.1363 34.1444 70.3433 34.1123 70.5646 34.1123C70.8037 34.1123 71.0229 34.1422 71.2221 34.202C71.4214 34.2595 71.5918 34.3459 71.7335 34.461C71.8752 34.5783 71.9848 34.7233 72.0623 34.896C72.142 35.0665 72.1818 35.2646 72.1818 35.4904C72.1818 35.5945 72.1663 35.6974 72.1353 35.7992C72.1043 35.8989 72.059 35.994 71.9992 36.0848C71.9394 36.1756 71.8652 36.2597 71.7767 36.3372C71.6881 36.4125 71.5863 36.4778 71.4712 36.5331C71.6062 36.5818 71.7225 36.6438 71.8199 36.7191C71.9195 36.7943 72.0014 36.8796 72.0656 36.9748C72.1298 37.0722 72.1774 37.1784 72.2084 37.2936C72.2394 37.4087 72.2549 37.5304 72.2549 37.6588C72.2549 37.8846 72.2117 38.0861 72.1254 38.2632C72.039 38.4403 71.9206 38.5886 71.7701 38.7082C71.6195 38.8299 71.4402 38.9229 71.2321 38.9871C71.0262 39.0491 70.8037 39.0801 70.5646 39.0801C70.3587 39.0801 70.1573 39.0524 69.9603 38.9971C69.7654 38.9395 69.5917 38.8532 69.4389 38.7381C69.2862 38.6252 69.1633 38.4824 69.0703 38.3097C68.9795 38.137 68.9342 37.9333 68.9342 37.6987H69.8573C69.8573 37.7917 69.875 37.878 69.9105 37.9577C69.9459 38.0352 69.9968 38.1016 70.0632 38.1569C70.1274 38.2145 70.2038 38.2599 70.2923 38.2931C70.3809 38.3241 70.4783 38.3396 70.5846 38.3396C70.7041 38.3396 70.8115 38.323 70.9067 38.2898C71.0019 38.2566 71.0816 38.2079 71.1458 38.1437C71.2077 38.0861 71.2542 38.0153 71.2852 37.9311C71.3184 37.847 71.335 37.7529 71.335 37.6489C71.335 37.5183 71.3162 37.4065 71.2786 37.3135C71.241 37.2205 71.1867 37.1441 71.1159 37.0843C71.0428 37.0246 70.9554 36.9803 70.8535 36.9515C70.7539 36.9227 70.641 36.9084 70.5148 36.9084H70.0134V36.1911Z"/>
</mask>
<path d="M35.9793 35.9121L36.8394 34.1787H37.9352L36.5738 36.5763L37.9685 39.0137H36.8793L35.9926 37.2537L35.1093 39.0137H34.0068L35.4015 36.5763L34.0434 34.1787H35.1326L35.9793 35.9121Z" fill="white"/>
<path d="M41.764 35.9121L42.6241 34.1787H43.7199L42.3584 36.5763L43.7531 39.0137H42.664L41.7773 37.2537L40.894 39.0137H39.7915L41.1862 36.5763L39.8281 34.1787H40.9173L41.764 35.9121Z" fill="white"/>
<path d="M47.5487 35.9121L48.4088 34.1787H49.5046L48.1431 36.5763L49.5378 39.0137H48.4486L47.562 37.2537L46.6787 39.0137H45.5762L46.9709 36.5763L45.6127 34.1787H46.7019L47.5487 35.9121Z" fill="white"/>
<path d="M54.9639 37.2537H52.1977V36.5065H54.9639V37.2537Z" fill="white"/>
<path d="M59.7756 39.0137H58.8425V35.3044L57.6205 35.7428V34.9392L59.7258 34.1787H59.7756V39.0137Z" fill="white"/>
<path d="M66.4602 39.0137H63.1628V38.3827L64.7268 36.7025C64.8486 36.5696 64.9515 36.449 65.0356 36.3405C65.1198 36.232 65.1884 36.1324 65.2415 36.0416C65.2924 35.9531 65.329 35.8701 65.3511 35.7926C65.3755 35.7151 65.3876 35.6398 65.3876 35.5668C65.3876 35.4583 65.3721 35.362 65.3411 35.2779C65.3101 35.1938 65.267 35.1218 65.2116 35.062C65.1541 35.0045 65.0854 34.9602 65.0058 34.9292C64.9283 34.8982 64.8419 34.8827 64.7467 34.8827C64.6228 34.8827 64.5132 34.9004 64.418 34.9358C64.325 34.9691 64.2475 35.0189 64.1855 35.0853C64.1213 35.1539 64.0726 35.2391 64.0394 35.341C64.0062 35.4428 63.9896 35.559 63.9896 35.6896H63.0631C63.0631 35.4749 63.1041 35.2723 63.186 35.082C63.2679 34.8894 63.3841 34.7211 63.5347 34.5772C63.683 34.4333 63.8623 34.3204 64.0726 34.2385C64.2852 34.1544 64.5198 34.1123 64.7766 34.1123C65.0224 34.1123 65.2393 34.1466 65.4275 34.2152C65.6179 34.2839 65.7773 34.3802 65.9057 34.5041C66.0319 34.6281 66.1282 34.7776 66.1946 34.9524C66.261 35.1251 66.2942 35.3166 66.2942 35.5269C66.2942 35.6863 66.2687 35.8391 66.2178 35.9852C66.1691 36.1291 66.0994 36.2719 66.0086 36.4136C65.9156 36.5552 65.8049 36.7003 65.6765 36.8486C65.5481 36.9947 65.4053 37.1485 65.2482 37.3102L64.3383 38.2732H66.4602V39.0137Z" fill="white"/>
<path d="M70.0134 36.1911H70.5148C70.6477 36.1911 70.7617 36.1734 70.8569 36.1379C70.9543 36.1003 71.0329 36.0483 71.0926 35.9819C71.148 35.9243 71.1889 35.8546 71.2155 35.7727C71.2443 35.6885 71.2587 35.5978 71.2587 35.5004C71.2587 35.4052 71.2443 35.3188 71.2155 35.2413C71.1889 35.1617 71.148 35.093 71.0926 35.0355C71.0373 34.9801 70.9664 34.9369 70.8801 34.906C70.796 34.875 70.6975 34.8595 70.5846 34.8595C70.4916 34.8595 70.4041 34.8727 70.3222 34.8993C70.2425 34.9259 70.1728 34.9635 70.113 35.0122C70.051 35.0631 70.0023 35.124 69.9669 35.1949C69.9315 35.2657 69.9138 35.3454 69.9138 35.434H68.9906C68.9906 35.2369 69.0305 35.0576 69.1102 34.896C69.1921 34.7344 69.3039 34.5949 69.4456 34.4776C69.5872 34.3625 69.7533 34.2728 69.9437 34.2086C70.1363 34.1444 70.3433 34.1123 70.5646 34.1123C70.8037 34.1123 71.0229 34.1422 71.2221 34.202C71.4214 34.2595 71.5918 34.3459 71.7335 34.461C71.8752 34.5783 71.9848 34.7233 72.0623 34.896C72.142 35.0665 72.1818 35.2646 72.1818 35.4904C72.1818 35.5945 72.1663 35.6974 72.1353 35.7992C72.1043 35.8989 72.059 35.994 71.9992 36.0848C71.9394 36.1756 71.8652 36.2597 71.7767 36.3372C71.6881 36.4125 71.5863 36.4778 71.4712 36.5331C71.6062 36.5818 71.7225 36.6438 71.8199 36.7191C71.9195 36.7943 72.0014 36.8796 72.0656 36.9748C72.1298 37.0722 72.1774 37.1784 72.2084 37.2936C72.2394 37.4087 72.2549 37.5304 72.2549 37.6588C72.2549 37.8846 72.2117 38.0861 72.1254 38.2632C72.039 38.4403 71.9206 38.5886 71.7701 38.7082C71.6195 38.8299 71.4402 38.9229 71.2321 38.9871C71.0262 39.0491 70.8037 39.0801 70.5646 39.0801C70.3587 39.0801 70.1573 39.0524 69.9603 38.9971C69.7654 38.9395 69.5917 38.8532 69.4389 38.7381C69.2862 38.6252 69.1633 38.4824 69.0703 38.3097C68.9795 38.137 68.9342 37.9333 68.9342 37.6987H69.8573C69.8573 37.7917 69.875 37.878 69.9105 37.9577C69.9459 38.0352 69.9968 38.1016 70.0632 38.1569C70.1274 38.2145 70.2038 38.2599 70.2923 38.2931C70.3809 38.3241 70.4783 38.3396 70.5846 38.3396C70.7041 38.3396 70.8115 38.323 70.9067 38.2898C71.0019 38.2566 71.0816 38.2079 71.1458 38.1437C71.2077 38.0861 71.2542 38.0153 71.2852 37.9311C71.3184 37.847 71.335 37.7529 71.335 37.6489C71.335 37.5183 71.3162 37.4065 71.2786 37.3135C71.241 37.2205 71.1867 37.1441 71.1159 37.0843C71.0428 37.0246 70.9554 36.9803 70.8535 36.9515C70.7539 36.9227 70.641 36.9084 70.5148 36.9084H70.0134V36.1911Z" fill="white"/>
<path d="M35.9793 35.9121L36.8394 34.1787H37.9352L36.5738 36.5763L37.9685 39.0137H36.8793L35.9926 37.2537L35.1093 39.0137H34.0068L35.4015 36.5763L34.0434 34.1787H35.1326L35.9793 35.9121Z" stroke="white" mask="url(#path-12-outside-2_866_217)"/>
<path d="M41.764 35.9121L42.6241 34.1787H43.7199L42.3584 36.5763L43.7531 39.0137H42.664L41.7773 37.2537L40.894 39.0137H39.7915L41.1862 36.5763L39.8281 34.1787H40.9173L41.764 35.9121Z" stroke="white" mask="url(#path-12-outside-2_866_217)"/>
<path d="M47.5487 35.9121L48.4088 34.1787H49.5046L48.1431 36.5763L49.5378 39.0137H48.4486L47.562 37.2537L46.6787 39.0137H45.5762L46.9709 36.5763L45.6127 34.1787H46.7019L47.5487 35.9121Z" stroke="white" mask="url(#path-12-outside-2_866_217)"/>
<path d="M54.9639 37.2537H52.1977V36.5065H54.9639V37.2537Z" stroke="white" mask="url(#path-12-outside-2_866_217)"/>
<path d="M59.7756 39.0137H58.8425V35.3044L57.6205 35.7428V34.9392L59.7258 34.1787H59.7756V39.0137Z" stroke="white" mask="url(#path-12-outside-2_866_217)"/>
<path d="M66.4602 39.0137H63.1628V38.3827L64.7268 36.7025C64.8486 36.5696 64.9515 36.449 65.0356 36.3405C65.1198 36.232 65.1884 36.1324 65.2415 36.0416C65.2924 35.9531 65.329 35.8701 65.3511 35.7926C65.3755 35.7151 65.3876 35.6398 65.3876 35.5668C65.3876 35.4583 65.3721 35.362 65.3411 35.2779C65.3101 35.1938 65.267 35.1218 65.2116 35.062C65.1541 35.0045 65.0854 34.9602 65.0058 34.9292C64.9283 34.8982 64.8419 34.8827 64.7467 34.8827C64.6228 34.8827 64.5132 34.9004 64.418 34.9358C64.325 34.9691 64.2475 35.0189 64.1855 35.0853C64.1213 35.1539 64.0726 35.2391 64.0394 35.341C64.0062 35.4428 63.9896 35.559 63.9896 35.6896H63.0631C63.0631 35.4749 63.1041 35.2723 63.186 35.082C63.2679 34.8894 63.3841 34.7211 63.5347 34.5772C63.683 34.4333 63.8623 34.3204 64.0726 34.2385C64.2852 34.1544 64.5198 34.1123 64.7766 34.1123C65.0224 34.1123 65.2393 34.1466 65.4275 34.2152C65.6179 34.2839 65.7773 34.3802 65.9057 34.5041C66.0319 34.6281 66.1282 34.7776 66.1946 34.9524C66.261 35.1251 66.2942 35.3166 66.2942 35.5269C66.2942 35.6863 66.2687 35.8391 66.2178 35.9852C66.1691 36.1291 66.0994 36.2719 66.0086 36.4136C65.9156 36.5552 65.8049 36.7003 65.6765 36.8486C65.5481 36.9947 65.4053 37.1485 65.2482 37.3102L64.3383 38.2732H66.4602V39.0137Z" stroke="white" mask="url(#path-12-outside-2_866_217)"/>
<path d="M70.0134 36.1911H70.5148C70.6477 36.1911 70.7617 36.1734 70.8569 36.1379C70.9543 36.1003 71.0329 36.0483 71.0926 35.9819C71.148 35.9243 71.1889 35.8546 71.2155 35.7727C71.2443 35.6885 71.2587 35.5978 71.2587 35.5004C71.2587 35.4052 71.2443 35.3188 71.2155 35.2413C71.1889 35.1617 71.148 35.093 71.0926 35.0355C71.0373 34.9801 70.9664 34.9369 70.8801 34.906C70.796 34.875 70.6975 34.8595 70.5846 34.8595C70.4916 34.8595 70.4041 34.8727 70.3222 34.8993C70.2425 34.9259 70.1728 34.9635 70.113 35.0122C70.051 35.0631 70.0023 35.124 69.9669 35.1949C69.9315 35.2657 69.9138 35.3454 69.9138 35.434H68.9906C68.9906 35.2369 69.0305 35.0576 69.1102 34.896C69.1921 34.7344 69.3039 34.5949 69.4456 34.4776C69.5872 34.3625 69.7533 34.2728 69.9437 34.2086C70.1363 34.1444 70.3433 34.1123 70.5646 34.1123C70.8037 34.1123 71.0229 34.1422 71.2221 34.202C71.4214 34.2595 71.5918 34.3459 71.7335 34.461C71.8752 34.5783 71.9848 34.7233 72.0623 34.896C72.142 35.0665 72.1818 35.2646 72.1818 35.4904C72.1818 35.5945 72.1663 35.6974 72.1353 35.7992C72.1043 35.8989 72.059 35.994 71.9992 36.0848C71.9394 36.1756 71.8652 36.2597 71.7767 36.3372C71.6881 36.4125 71.5863 36.4778 71.4712 36.5331C71.6062 36.5818 71.7225 36.6438 71.8199 36.7191C71.9195 36.7943 72.0014 36.8796 72.0656 36.9748C72.1298 37.0722 72.1774 37.1784 72.2084 37.2936C72.2394 37.4087 72.2549 37.5304 72.2549 37.6588C72.2549 37.8846 72.2117 38.0861 72.1254 38.2632C72.039 38.4403 71.9206 38.5886 71.7701 38.7082C71.6195 38.8299 71.4402 38.9229 71.2321 38.9871C71.0262 39.0491 70.8037 39.0801 70.5646 39.0801C70.3587 39.0801 70.1573 39.0524 69.9603 38.9971C69.7654 38.9395 69.5917 38.8532 69.4389 38.7381C69.2862 38.6252 69.1633 38.4824 69.0703 38.3097C68.9795 38.137 68.9342 37.9333 68.9342 37.6987H69.8573C69.8573 37.7917 69.875 37.878 69.9105 37.9577C69.9459 38.0352 69.9968 38.1016 70.0632 38.1569C70.1274 38.2145 70.2038 38.2599 70.2923 38.2931C70.3809 38.3241 70.4783 38.3396 70.5846 38.3396C70.7041 38.3396 70.8115 38.323 70.9067 38.2898C71.0019 38.2566 71.0816 38.2079 71.1458 38.1437C71.2077 38.0861 71.2542 38.0153 71.2852 37.9311C71.3184 37.847 71.335 37.7529 71.335 37.6489C71.335 37.5183 71.3162 37.4065 71.2786 37.3135C71.241 37.2205 71.1867 37.1441 71.1159 37.0843C71.0428 37.0246 70.9554 36.9803 70.8535 36.9515C70.7539 36.9227 70.641 36.9084 70.5148 36.9084H70.0134V36.1911Z" stroke="white" mask="url(#path-12-outside-2_866_217)"/>
<path d="M14.0322 44.8145L15.1179 43.7646C13.6444 43.8693 12.2097 43.6722 10.814 43.1734C9.41824 42.6746 8.17457 41.8608 7.08296 40.7318C5.30808 38.8963 4.35835 36.7242 4.23377 34.2157C4.1092 31.7071 4.79579 29.4166 6.29354 27.3442C6.43852 27.132 6.64808 27.0254 6.92222 27.0244C7.19636 27.0234 7.42939 27.1221 7.62132 27.3206C7.81373 27.5196 7.93262 27.759 7.97799 28.0387C8.02336 28.3184 7.97309 28.5768 7.82718 28.8139C6.74447 30.4619 6.2634 32.2536 6.38397 34.189C6.50454 36.1243 7.25458 37.8053 8.63408 39.232C9.54524 40.1753 10.5949 40.8407 11.7829 41.2282C12.971 41.6157 14.1904 41.7449 15.4412 41.6157L14.1996 40.3317C13.9956 40.1218 13.899 39.8734 13.9097 39.5865C13.9205 39.2996 14.0357 39.0499 14.2554 38.8375C14.4751 38.626 14.7283 38.5194 15.0149 38.5179C15.3015 38.5163 15.5468 38.621 15.7507 38.8319L18.6297 41.8092C18.8326 42.0201 18.929 42.2688 18.9188 42.5552C18.9086 42.8416 18.7936 43.091 18.5739 43.3035L15.4716 46.3032C15.2529 46.5157 15 46.6225 14.7129 46.6236C14.4258 46.6246 14.1803 46.5197 13.9763 46.3088C13.7724 46.0989 13.6757 45.8505 13.6865 45.5636C13.6972 45.2767 13.8124 45.027 14.0322 44.8145Z" fill="white"/>
</svg>
