<?xml version="1.0" encoding="utf-8"?>
<!-- Generator: Adobe Illustrator 28.3.0, SVG Export Plug-In . SVG Version: 6.00 Build 0)  -->
<svg version="1.1" id="Layer_1" xmlns="http://www.w3.org/2000/svg" xmlns:xlink="http://www.w3.org/1999/xlink" x="0px" y="0px"
	 viewBox="0 0 150 150" style="enable-background:new 0 0 150 150;" xml:space="preserve">
<style type="text/css">
	
		.st0{clip-path:url(#SVGID_00000075866786504407402450000005387255911826732722_);fill-rule:evenodd;clip-rule:evenodd;fill:#FFFFFF;}
</style>
<g>
	<defs>
		<rect id="SVGID_1_" width="150" height="150"/>
	</defs>
	<clipPath id="SVGID_00000147202028723693308820000008580024298876642192_">
		<use xlink:href="#SVGID_1_"  style="overflow:visible;"/>
	</clipPath>
	
		<path style="clip-path:url(#SVGID_00000147202028723693308820000008580024298876642192_);fill-rule:evenodd;clip-rule:evenodd;fill:#FFFFFF;" d="
		M54.9,58.2c-1.5,0-2.8-0.6-3.9-1.6c-1-1.1-1.6-2.5-1.6-4v-5.6c-2.9,0-5.7,1.2-7.8,3.3c-2.1,2.1-3.2,4.9-3.2,7.9v7.4h73.2v-7.4
		c0-3-1.2-5.8-3.2-7.9c-2.1-2.1-4.8-3.3-7.8-3.3v5.6c0,1.5-0.6,2.9-1.6,3.9c-1,1.1-2.4,1.6-3.9,1.6s-2.8-0.6-3.9-1.6
		c-1-1-1.6-2.5-1.6-3.9v-5.6H60.4v5.6c0,1.5-0.6,2.9-1.6,4C57.7,57.7,56.3,58.2,54.9,58.2L54.9,58.2z M89.6,35.9H60.4v-5.6
		c0-1.5-0.6-2.9-1.6-4c-1-1-2.4-1.6-3.9-1.6c-1.5,0-2.8,0.6-3.9,1.6c-1,1-1.6,2.5-1.6,4v5.6c-5.8,0-11.4,2.3-15.5,6.5
		c-4.1,4.2-6.4,9.9-6.4,15.8v44.7c0,5.9,2.3,11.6,6.4,15.8c4.1,4.2,9.7,6.5,15.5,6.5h51.2c5.8,0,11.4-2.3,15.5-6.5s6.4-9.9,6.4-15.8
		V58.3c0-5.9-2.3-11.6-6.4-15.8s-9.7-6.5-15.5-6.5v-5.6c0-1.5-0.6-2.9-1.6-4c-1-1-2.4-1.6-3.9-1.6s-2.8,0.6-3.9,1.6
		c-1,1-1.6,2.5-1.6,4L89.6,35.9L89.6,35.9z M38.4,76.9v26c0,3,1.2,5.8,3.2,7.9c2.1,2.1,4.8,3.3,7.8,3.3h51.2c2.9,0,5.7-1.2,7.8-3.3
		c2.1-2.1,3.2-4.9,3.2-7.9v-26H38.4z"/>
</g>
</svg>
