<?xml version="1.0" encoding="UTF-8"?>
<svg id="Layer_1" data-name="Layer 1" xmlns="http://www.w3.org/2000/svg" xmlns:xlink="http://www.w3.org/1999/xlink" viewBox="0 0 150 150">
  <defs>
    <style>
      .cls-1 {
        fill: none;
      }

      .cls-1, .cls-2 {
        stroke-width: 0px;
      }

      .cls-2 {
        fill: #fff;
        fill-rule: evenodd;
      }

      .cls-3 {
        clip-path: url(#clippath);
      }
    </style>
    <clipPath id="clippath">
      <rect class="cls-1" width="150" height="150"/>
    </clipPath>
  </defs>
  <g class="cls-3">
    <path class="cls-2" d="M54.88,58.24c-1.46,0-2.85-.59-3.88-1.63-1.03-1.05-1.61-2.47-1.61-3.95v-5.56c-2.91,0-5.7,1.18-7.76,3.27s-3.21,4.93-3.21,7.89v7.44h73.15v-7.44c0-2.96-1.16-5.8-3.21-7.89-2.06-2.09-4.85-3.27-7.76-3.27v5.58c0,1.48-.58,2.9-1.61,3.95-1.03,1.05-2.42,1.63-3.88,1.63s-2.85-.59-3.88-1.63c-1.03-1.05-1.61-2.47-1.61-3.95v-5.58h-29.26v5.56c0,1.48-.58,2.9-1.61,3.95-1.03,1.05-2.42,1.63-3.88,1.63ZM89.63,35.94h-29.26v-5.6c0-1.48-.58-2.9-1.61-3.95-1.03-1.05-2.42-1.63-3.88-1.63s-2.85.59-3.88,1.63c-1.03,1.05-1.61,2.47-1.61,3.95v5.6c-5.82,0-11.4,2.35-15.52,6.54-4.12,4.19-6.43,9.86-6.43,15.79v44.65c0,5.92,2.31,11.6,6.43,15.79,4.12,4.19,9.7,6.54,15.52,6.54h51.2c5.82,0,11.4-2.35,15.52-6.54,4.12-4.19,6.43-9.86,6.43-15.79v-44.65c0-5.92-2.31-11.6-6.43-15.79-4.12-4.19-9.7-6.54-15.52-6.54v-5.58c0-1.48-.58-2.9-1.61-3.95-1.03-1.05-2.42-1.63-3.88-1.63s-2.85.59-3.88,1.63c-1.03,1.05-1.61,2.47-1.61,3.95v5.58ZM38.43,76.87v26.04c0,2.96,1.16,5.8,3.21,7.89,2.06,2.09,4.85,3.27,7.76,3.27h51.2c2.91,0,5.7-1.18,7.76-3.27,2.06-2.09,3.21-4.93,3.21-7.89v-26.04H38.43Z"/>
  </g>
</svg>