<svg width="53" height="56" viewBox="0 0 53 56" fill="none" xmlns="http://www.w3.org/2000/svg">
<path fill-rule="evenodd" clip-rule="evenodd" d="M15.2885 18.6598C14.4775 18.6598 13.6998 18.332 13.1263 17.7487C12.5529 17.1653 12.2308 16.3741 12.2308 15.5491V12.4509C10.6089 12.4509 9.0534 13.1064 7.90654 14.2731C6.75968 15.4398 6.11538 17.0222 6.11538 18.6722V22.8197H46.8846V18.6722C46.8846 17.0222 46.2403 15.4398 45.0935 14.2731C43.9466 13.1064 42.3911 12.4509 40.7692 12.4509V15.5615C40.7692 16.3865 40.4471 17.1777 39.8737 17.7611C39.3002 18.3445 38.5225 18.6722 37.7115 18.6722C36.9006 18.6722 36.1229 18.3445 35.5494 17.7611C34.976 17.1777 34.6538 16.3865 34.6538 15.5615V12.4509H18.3462V15.5491C18.3462 16.3741 18.024 17.1653 17.4506 17.7487C16.8771 18.332 16.0994 18.6598 15.2885 18.6598ZM34.6538 6.2296H18.3462V3.11065C18.3462 2.28565 18.024 1.49445 17.4506 0.911089C16.8771 0.327728 16.0994 0 15.2885 0C14.4775 0 13.6998 0.327728 13.1263 0.911089C12.5529 1.49445 12.2308 2.28565 12.2308 3.11065V6.2296C8.98697 6.2296 5.87602 7.54051 3.58231 9.87395C1.2886 12.2074 0 15.3722 0 18.6722V43.5574C0 46.8574 1.2886 50.0222 3.58231 52.3556C5.87602 54.6891 8.98697 56 12.2308 56H40.7692C44.013 56 47.124 54.6891 49.4177 52.3556C51.7114 50.0222 53 46.8574 53 43.5574V18.6722C53 15.3722 51.7114 12.2074 49.4177 9.87395C47.124 7.54051 44.013 6.2296 40.7692 6.2296V3.11895C40.7692 2.29395 40.4471 1.50274 39.8737 0.919383C39.3002 0.336023 38.5225 0.00829496 37.7115 0.00829496C36.9006 0.00829496 36.1229 0.336023 35.5494 0.919383C34.976 1.50274 34.6538 2.29395 34.6538 3.11895V6.2296ZM6.11538 29.041V43.5574C6.11538 45.2074 6.75968 46.7898 7.90654 47.9565C9.0534 49.1232 10.6089 49.7787 12.2308 49.7787H40.7692C42.3911 49.7787 43.9466 49.1232 45.0935 47.9565C46.2403 46.7898 46.8846 45.2074 46.8846 43.5574V29.041H6.11538Z" fill="white"/>
</svg>
