<?xml version="1.0" encoding="UTF-8"?>
<svg id="Layer_1" data-name="Layer 1" xmlns="http://www.w3.org/2000/svg" xmlns:xlink="http://www.w3.org/1999/xlink" viewBox="0 0 150 150">
  <defs>
    <style>
      .cls-1 {
        fill: none;
      }

      .cls-1, .cls-2 {
        stroke-width: 0px;
      }

      .cls-2 {
        fill: #fff;
      }

      .cls-3 {
        clip-path: url(#clippath);
      }
    </style>
    <clipPath id="clippath">
      <rect class="cls-1" width="150" height="150"/>
    </clipPath>
  </defs>
  <g class="cls-3">
    <g>
      <polygon class="cls-2" points="68.84 62.87 66.13 56.5 63.44 62.89 56.5 63.49 61.77 68.03 60.18 74.81 66.13 71.21 72.1 74.81 70.51 68.01 75.78 63.47 68.84 62.87"/>
      <path class="cls-2" d="M81.7,46.8c-2.23,1.24-5.04,1.94-7.75,1.94s-5.54-.72-7.75-1.94c-2.21,1.22-5.04,1.94-7.75,1.94s-5.52-.7-7.75-1.94l-3.88,3.88s3.88,3.88,3.88,7.75-3.88,11.63-3.88,15.51c0,7.75,19.39,11.63,19.39,11.63,0,0,19.39-3.88,19.39-11.63,0-3.88-3.88-11.63-3.88-15.51s3.88-7.75,3.88-7.75l-3.88-3.88ZM66.19,81.62c-8.65-1.86-15.51-5.68-15.51-7.68,0-1.3.97-4.21,1.74-6.53,1.09-3.3,2.13-6.42,2.13-8.98s-.97-4.85-2.09-6.71c1.9.58,3.95.89,5.97.89,2.62,0,5.35-.54,7.75-1.53,2.4.99,5.14,1.53,7.75,1.53,2.04,0,4.07-.31,5.97-.89-1.12,1.86-2.09,4.21-2.09,6.71s1.05,5.68,2.13,8.98c.78,2.33,1.74,5.23,1.74,6.53,0,2-6.84,5.82-15.51,7.68Z"/>
      <path class="cls-2" d="M117.04,56.46c-2.44-2.44-5.69-3.79-9.14-3.79h-5.87v-10.57c0-3.45-1.34-6.7-3.79-9.14-2.44-2.44-5.69-3.79-9.14-3.79h-47c-3.45,0-6.7,1.34-9.14,3.79-2.44,2.44-3.79,5.69-3.79,9.14v56.4c0,5.96,2.32,11.57,6.54,15.79,4.22,4.22,9.82,6.54,15.78,6.54h56.4c7.85,0,12.92-6,12.92-15.27v-39.95c0-3.45-1.34-6.7-3.78-9.14ZM51.5,113.77c-4.08,0-7.92-1.59-10.8-4.47-2.88-2.88-4.47-6.72-4.47-10.8v-56.4c0-1.57.61-3.04,1.72-4.15,1.09-1.09,2.61-1.72,4.15-1.72h47c1.57,0,3.04.61,4.15,1.72,1.11,1.11,1.72,2.59,1.72,4.15v61.09c0,.07,0,.17,0,.25v2.1c0,3.07.57,5.77,1.6,8.03.03.06.05.13.07.2h-45.14ZM113.77,105.55c0,3.07-.76,8.22-5.87,8.22-2.49,0-3.94-1.23-4.78-2.84-.68-1.56-1.09-3.97-1.09-7.69v-43.52h5.87c1.57,0,3.05.61,4.15,1.72,1.11,1.11,1.72,2.59,1.72,4.15v39.95Z"/>
    </g>
  </g>
</svg>