<svg width="52" height="52" viewBox="0 0 52 52" fill="none" xmlns="http://www.w3.org/2000/svg">
<path d="M21 12.431C22.364 12.992 23.915 13.3 25.4 13.3C26.555 13.3 27.71 13.124 28.788 12.794C28.15 13.85 27.6 15.181 27.6 16.6C27.6 18.052 28.194 19.823 28.81 21.693C29.25 23.013 29.8 24.663 29.8 25.4C29.8 26.533 25.917 28.7 21 29.756C16.094 28.7 12.2 26.533 12.2 25.4C12.2 24.663 12.75 23.013 13.19 21.693C13.806 19.823 14.4 18.052 14.4 16.6C14.4 15.181 13.85 13.85 13.212 12.794C14.29 13.124 15.456 13.3 16.6 13.3C18.085 13.3 19.636 12.992 21 12.431ZM29.8 10C28.535 10.704 26.94 11.1 25.4 11.1C23.86 11.1 22.254 10.693 21 10C19.746 10.693 18.14 11.1 16.6 11.1C15.06 11.1 13.465 10.704 12.2 10L10 12.2C10 12.2 12.2 14.4 12.2 16.6C12.2 18.8 10 23.2 10 25.4C10 29.8 21 32 21 32C21 32 32 29.8 32 25.4C32 23.2 29.8 18.8 29.8 16.6C29.8 14.4 32 12.2 32 12.2L29.8 10ZM24.355 25.895L20.967 23.849L17.59 25.895L18.492 22.045L15.5 19.471L19.438 19.13L20.967 15.5L22.507 19.119L26.445 19.46L23.453 22.034L24.355 25.895Z" fill="white"/>
<path d="M44.6667 50H12.6667C9.83769 50 7.12458 48.8762 5.12419 46.8758C3.12381 44.8754 2 42.1623 2 39.3333V7.33333C2 5.91885 2.5619 4.56229 3.5621 3.5621C4.56229 2.5619 5.91885 2 7.33333 2H34C35.4145 2 36.771 2.5619 37.7712 3.5621C38.7714 4.56229 39.3333 5.91885 39.3333 7.33333V42C39.3333 46.4187 40.248 50 44.6667 50Z" stroke="white" stroke-width="4" stroke-linecap="round" stroke-linejoin="round"/>
<path d="M50.0002 20.6666C50.0002 19.2521 49.4383 17.8955 48.4381 16.8954C47.4379 15.8952 46.0813 15.3333 44.6668 15.3333H39.3335V43.3333C39.3335 47.0133 40.9868 49.9999 44.6668 49.9999C48.3468 49.9999 50.0002 47.0133 50.0002 43.3333V20.6666Z" stroke="white" stroke-width="4" stroke-linecap="round" stroke-linejoin="round"/>
</svg>
