<?xml version="1.0" encoding="UTF-8"?>
<svg id="Layer_1" data-name="Layer 1" xmlns="http://www.w3.org/2000/svg" xmlns:xlink="http://www.w3.org/1999/xlink" viewBox="0 0 150 150">
  <defs>
    <style>
      .cls-1 {
        fill: none;
      }

      .cls-1, .cls-2 {
        stroke-width: 0px;
      }

      .cls-2 {
        fill: #fff;
        fill-rule: evenodd;
      }

      .cls-3 {
        clip-path: url(#clippath);
      }
    </style>
    <clipPath id="clippath">
      <rect class="cls-1" width="150" height="150"/>
    </clipPath>
  </defs>
  <g class="cls-3">
    <path class="cls-2" d="M57.47,43.27h4.38l3.1-3.1,7.55-7.55c.33-.33.72-.59,1.15-.77.43-.18.89-.27,1.35-.27s.92.09,1.35.27c.43.18.82.44,1.14.77l7.55,7.55,3.1,3.1h15.06c.94,0,1.83.37,2.49,1.03.66.66,1.03,1.56,1.03,2.49v15.06l3.1,3.1,7.55,7.55c.33.33.59.72.77,1.14.18.43.27.89.27,1.35s-.09.92-.27,1.35c-.18.43-.44.82-.77,1.14l-7.55,7.55-3.1,3.1v15.06c0,.94-.37,1.83-1.03,2.49-.66.66-1.56,1.03-2.49,1.03h-15.06l-3.1,3.1-7.55,7.55c-.66.66-1.56,1.03-2.49,1.03s-1.83-.37-2.49-1.03l-7.56-7.55-3.1-3.1h-15.06c-.94,0-1.83-.37-2.49-1.03-.66-.66-1.03-1.56-1.03-2.49v-15.06l-3.1-3.1-7.55-7.55c-.33-.33-.59-.72-.77-1.14-.18-.43-.27-.89-.27-1.35s.09-.92.27-1.35c.18-.43.44-.82.77-1.14l7.55-7.55,3.1-3.1v-15.06c0-.94.37-1.83,1.03-2.49.66-.66,1.56-1.03,2.49-1.03h10.68ZM84.98,25.14c-1.31-1.31-2.87-2.35-4.58-3.06-1.71-.71-3.55-1.08-5.4-1.08s-3.69.37-5.4,1.08c-1.71.71-3.27,1.75-4.58,3.06l-7.54,7.55h-10.69c-3.74,0-7.33,1.49-9.97,4.13-2.65,2.64-4.13,6.23-4.13,9.97v10.68l-7.55,7.55c-1.31,1.31-2.35,2.87-3.06,4.58-.71,1.71-1.08,3.55-1.08,5.4s.37,3.69,1.08,5.4c.71,1.71,1.75,3.27,3.06,4.58l7.55,7.54v10.69c0,3.74,1.49,7.33,4.13,9.97,2.65,2.64,6.23,4.13,9.97,4.13h10.68l7.55,7.55c1.31,1.31,2.87,2.35,4.58,3.06,1.71.71,3.55,1.08,5.4,1.08s3.69-.37,5.4-1.08c1.71-.71,3.27-1.75,4.58-3.06l7.54-7.55h10.69c3.74,0,7.33-1.49,9.97-4.13s4.13-6.23,4.13-9.97v-10.68l7.55-7.55c1.31-1.31,2.35-2.87,3.06-4.58.71-1.71,1.08-3.55,1.08-5.4s-.37-3.69-1.08-5.4c-.71-1.71-1.75-3.27-3.06-4.58l-7.55-7.55v-10.68c0-3.74-1.49-7.33-4.13-9.97-2.65-2.64-6.23-4.13-9.97-4.13h-10.69l-7.55-7.55ZM96.86,64.07c.84-1.12,1.2-2.53,1-3.92-.2-1.39-.94-2.64-2.06-3.48-1.12-.84-2.53-1.2-3.92-1-1.39.2-2.64.94-3.48,2.06l-17.49,23.33-9.8-9.79c-1-.93-2.33-1.44-3.7-1.42-1.37.02-2.68.58-3.65,1.55-.97.97-1.52,2.28-1.55,3.65-.02,1.37.48,2.7,1.42,3.7l14.1,14.1c.54.54,1.18.95,1.89,1.21.71.27,1.47.37,2.22.32s1.49-.27,2.16-.63c.67-.36,1.24-.86,1.7-1.47l21.16-28.21Z"/>
  </g>
</svg>