<svg width="59" height="59" viewBox="0 0 59 59" fill="none" xmlns="http://www.w3.org/2000/svg">
<path fill-rule="evenodd" clip-rule="evenodd" d="M19.9242 12.1642H22.3167L24.0119 10.4692L28.1342 6.3471C28.3132 6.16772 28.5257 6.02541 28.7598 5.9283C28.9938 5.83119 29.2447 5.78121 29.4981 5.78121C29.7515 5.78121 30.0023 5.83119 30.2364 5.9283C30.4704 6.02541 30.683 6.16772 30.8619 6.3471L34.9842 10.4692L36.6794 12.1642H44.9087C45.4196 12.1642 45.9095 12.3672 46.2708 12.7284C46.632 13.0896 46.835 13.5796 46.835 14.0904V22.3191L48.5301 24.0142L52.6525 28.1363C52.8319 28.3152 52.9742 28.5277 53.0713 28.7618C53.1684 28.9958 53.2184 29.2466 53.2184 29.5C53.2184 29.7534 53.1684 30.0042 53.0713 30.2382C52.9742 30.4723 52.8319 30.6848 52.6525 30.8637L48.5301 34.9858L46.835 36.6809V44.9096C46.835 45.4204 46.632 45.9104 46.2708 46.2716C45.9095 46.6328 45.4196 46.8358 44.9087 46.8358H36.6833L34.9881 48.5308L30.8619 52.6529C30.5007 53.014 30.0108 53.2169 29.5 53.2169C28.9892 53.2169 28.4993 53.014 28.1381 52.6529L24.0081 48.5308L22.3167 46.8358H14.0875C13.5766 46.8358 13.0866 46.6328 12.7254 46.2716C12.3641 45.9104 12.1612 45.4204 12.1612 44.9096V36.6809L10.466 34.9858L6.34367 30.8637C6.16427 30.6848 6.02195 30.4723 5.92483 30.2382C5.82772 30.0042 5.77774 29.7534 5.77774 29.5C5.77774 29.2466 5.82772 28.9958 5.92483 28.7618C6.02195 28.5277 6.16427 28.3152 6.34367 28.1363L10.466 24.0142L12.1612 22.3191V14.0904C12.1612 13.5796 12.3641 13.0896 12.7254 12.7284C13.0866 12.3672 13.5766 12.1642 14.0875 12.1642H19.9242ZM34.9496 2.25971C34.234 1.54335 33.3841 0.975051 32.4487 0.587313C31.5133 0.199574 30.5107 0 29.4981 0C28.4855 0 27.4828 0.199574 26.5474 0.587313C25.612 0.975051 24.7622 1.54335 24.0466 2.25971L19.9281 6.38563H14.0875C12.0439 6.38563 10.084 7.19738 8.63902 8.64231C7.194 10.0872 6.38219 12.047 6.38219 14.0904V19.9268L2.25986 24.0489C1.54345 24.7644 0.975114 25.6142 0.587351 26.5495C0.199588 27.4849 0 28.4875 0 29.5C0 30.5125 0.199588 31.5151 0.587351 32.4505C0.975114 33.3858 1.54345 34.2356 2.25986 34.9511L6.38219 39.0694V44.9096C6.38219 46.953 7.194 48.9128 8.63902 50.3577C10.084 51.8026 12.0439 52.6144 14.0875 52.6144H19.9242L24.0466 56.7403C24.7622 57.4567 25.612 58.0249 26.5474 58.4127C27.4828 58.8004 28.4855 59 29.4981 59C30.5107 59 31.5133 58.8004 32.4487 58.4127C33.3841 58.0249 34.234 57.4567 34.9496 56.7403L39.068 52.6144H44.9087C46.9522 52.6144 48.9121 51.8026 50.3571 50.3577C51.8021 48.9128 52.614 46.953 52.614 44.9096V39.0732L56.7401 34.9511C57.4565 34.2356 58.0249 33.3858 58.4126 32.4505C58.8004 31.5151 59 30.5125 59 29.5C59 28.4875 58.8004 27.4849 58.4126 26.5495C58.0249 25.6142 57.4565 24.7644 56.7401 24.0489L52.6178 19.9268V14.0904C52.6178 12.047 51.806 10.0872 50.361 8.64231C48.916 7.19738 46.9561 6.38563 44.9125 6.38563H39.0719L34.9496 2.25971ZM41.4413 23.5288C41.9011 22.9158 42.0985 22.1452 41.9901 21.3866C41.8818 20.628 41.4765 19.9435 40.8634 19.4838C40.2503 19.024 39.4797 18.8266 38.7211 18.935C37.9624 19.0433 37.2779 19.4486 36.8181 20.0616L27.2635 32.8054L21.9084 27.4582C21.3606 26.9479 20.6361 26.67 19.8876 26.6832C19.139 26.6964 18.4248 26.9997 17.8954 27.529C17.366 28.0584 17.0627 28.7726 17.0495 29.5211C17.0363 30.2696 17.3142 30.9941 17.8246 31.5418L25.5298 39.2466C25.8225 39.5391 26.1745 39.7654 26.5622 39.9101C26.9499 40.0549 27.3641 40.1146 27.7769 40.0854C28.1897 40.0562 28.5914 39.9387 28.9548 39.7408C29.3182 39.5429 29.6348 39.2692 29.8833 38.9384L41.4413 23.5288Z" fill="white"/>
</svg>
