<svg width="66" height="83" viewBox="0 0 66 83" fill="none" xmlns="http://www.w3.org/2000/svg">
<path d="M0 8.25C0 6.06196 0.869194 3.96354 2.41637 2.41637C3.96354 0.869194 6.06196 0 8.25 0H41.25C42.3439 0.000233629 43.393 0.434984 44.1664 1.20862L64.7914 21.8336C65.565 22.607 65.9998 23.6561 66 24.75V74.25C66 76.438 65.1308 78.5365 63.5836 80.0836C62.0365 81.6308 59.938 82.5 57.75 82.5H8.25C6.06196 82.5 3.96354 81.6308 2.41637 80.0836C0.869194 78.5365 0 76.438 0 74.25V8.25ZM56.0423 24.75L41.25 9.95775V24.75H56.0423ZM33 8.25H8.25V74.25H57.75V33H37.125C36.031 33 34.9818 32.5654 34.2082 31.7918C33.4346 31.0182 33 29.969 33 28.875V8.25ZM48.2914 42.4586C49.0647 43.2322 49.4991 44.2812 49.4991 45.375C49.4991 46.4688 49.0647 47.5178 48.2914 48.2914L31.7914 64.7914C31.0178 65.5647 29.9688 65.9991 28.875 65.9991C27.7812 65.9991 26.7322 65.5647 25.9586 64.7914L17.7086 56.5414C17.3146 56.1609 17.0004 55.7057 16.7842 55.2024C16.568 54.6992 16.4542 54.1579 16.4495 53.6102C16.4447 53.0624 16.5491 52.5193 16.7565 52.0123C16.9639 51.5054 17.2702 51.0448 17.6575 50.6575C18.0448 50.2702 18.5054 49.9639 19.0123 49.7565C19.5193 49.5491 20.0624 49.4447 20.6102 49.4495C21.1579 49.4542 21.6992 49.568 22.2024 49.7842C22.7057 50.0004 23.1609 50.3146 23.5414 50.7086L28.875 56.0423L42.4586 42.4586C43.2322 41.6853 44.2812 41.2509 45.375 41.2509C46.4688 41.2509 47.5178 41.6853 48.2914 42.4586Z" fill="white"/>
</svg>
