<svg width="661" height="365" viewBox="0 0 661 365" fill="none" xmlns="http://www.w3.org/2000/svg">
<path d="M27.004 30.11H62.389V43.34H27.004V30.11ZM28.264 60.35H68.269V74H11.359V0.499995H66.904V14.15H28.264V60.35ZM72.7906 74L98.0956 40.82L97.7806 49.85L73.5256 17.51H91.9006L107.231 38.615L100.301 38.825L116.156 17.51H133.586L109.226 49.535V40.715L134.426 74H115.841L99.7756 51.53L106.601 52.475L90.6406 74H72.7906ZM175.767 74.84C171.007 74.84 166.842 73.79 163.272 71.69C159.702 69.59 156.902 66.405 154.872 62.135C152.912 57.795 151.932 52.335 151.932 45.755C151.932 39.105 152.877 33.645 154.767 29.375C156.657 25.105 159.387 21.92 162.957 19.82C166.527 17.72 170.797 16.67 175.767 16.67C181.087 16.67 185.847 17.895 190.047 20.345C194.317 22.725 197.677 26.085 200.127 30.425C202.647 34.765 203.907 39.875 203.907 45.755C203.907 51.705 202.647 56.85 200.127 61.19C197.677 65.53 194.317 68.89 190.047 71.27C185.847 73.65 181.087 74.84 175.767 74.84ZM142.377 94.37V17.51H158.022V29.06L157.707 45.86L158.757 62.555V94.37H142.377ZM172.932 61.4C175.662 61.4 178.077 60.77 180.177 59.51C182.347 58.25 184.062 56.465 185.322 54.155C186.652 51.775 187.317 48.975 187.317 45.755C187.317 42.465 186.652 39.665 185.322 37.355C184.062 35.045 182.347 33.26 180.177 32C178.077 30.74 175.662 30.11 172.932 30.11C170.202 30.11 167.752 30.74 165.582 32C163.412 33.26 161.697 35.045 160.437 37.355C159.177 39.665 158.547 42.465 158.547 45.755C158.547 48.975 159.177 51.775 160.437 54.155C161.697 56.465 163.412 58.25 165.582 59.51C167.752 60.77 170.202 61.4 172.932 61.4ZM242.907 74.84C236.467 74.84 230.797 73.58 225.897 71.06C221.067 68.54 217.322 65.11 214.662 60.77C212.002 56.36 210.672 51.355 210.672 45.755C210.672 40.085 211.967 35.08 214.557 30.74C217.217 26.33 220.822 22.9 225.372 20.45C229.922 17.93 235.067 16.67 240.807 16.67C246.337 16.67 251.307 17.86 255.717 20.24C260.197 22.55 263.732 25.91 266.322 30.32C268.912 34.66 270.207 39.875 270.207 45.965C270.207 46.595 270.172 47.33 270.102 48.17C270.032 48.94 269.962 49.675 269.892 50.375H224.007V40.82H261.282L254.982 43.655C254.982 40.715 254.387 38.16 253.197 35.99C252.007 33.82 250.362 32.14 248.262 30.95C246.162 29.69 243.712 29.06 240.912 29.06C238.112 29.06 235.627 29.69 233.457 30.95C231.357 32.14 229.712 33.855 228.522 36.095C227.332 38.265 226.737 40.855 226.737 43.865V46.385C226.737 49.465 227.402 52.195 228.732 54.575C230.132 56.885 232.057 58.67 234.507 59.93C237.027 61.12 239.967 61.715 243.327 61.715C246.337 61.715 248.962 61.26 251.202 60.35C253.512 59.44 255.612 58.075 257.502 56.255L266.217 65.705C263.627 68.645 260.372 70.92 256.452 72.53C252.532 74.07 248.017 74.84 242.907 74.84ZM281.112 74V17.51H296.757V33.47L294.552 28.85C296.232 24.86 298.927 21.85 302.637 19.82C306.347 17.72 310.862 16.67 316.182 16.67V31.79C315.482 31.72 314.852 31.685 314.292 31.685C313.732 31.615 313.137 31.58 312.507 31.58C308.027 31.58 304.387 32.875 301.587 35.465C298.857 37.985 297.492 41.94 297.492 47.33V74H281.112ZM350.97 74.84C344.32 74.84 339.14 73.16 335.43 69.8C331.72 66.37 329.865 61.295 329.865 54.575V5.015H346.245V54.365C346.245 56.745 346.875 58.6 348.135 59.93C349.395 61.19 351.11 61.82 353.28 61.82C355.87 61.82 358.075 61.12 359.895 59.72L364.305 71.27C362.625 72.46 360.595 73.37 358.215 74C355.905 74.56 353.49 74.84 350.97 74.84ZM321.15 31.37V18.77H360.315V31.37H321.15ZM398.637 74.84C392.617 74.84 387.262 73.58 382.572 71.06C377.952 68.54 374.277 65.11 371.547 60.77C368.887 56.36 367.557 51.355 367.557 45.755C367.557 40.085 368.887 35.08 371.547 30.74C374.277 26.33 377.952 22.9 382.572 20.45C387.262 17.93 392.617 16.67 398.637 16.67C404.587 16.67 409.907 17.93 414.597 20.45C419.287 22.9 422.962 26.295 425.622 30.635C428.282 34.975 429.612 40.015 429.612 45.755C429.612 51.355 428.282 56.36 425.622 60.77C422.962 65.11 419.287 68.54 414.597 71.06C409.907 73.58 404.587 74.84 398.637 74.84ZM398.637 61.4C401.367 61.4 403.817 60.77 405.987 59.51C408.157 58.25 409.872 56.465 411.132 54.155C412.392 51.775 413.022 48.975 413.022 45.755C413.022 42.465 412.392 39.665 411.132 37.355C409.872 35.045 408.157 33.26 405.987 32C403.817 30.74 401.367 30.11 398.637 30.11C395.907 30.11 393.457 30.74 391.287 32C389.117 33.26 387.367 35.045 386.037 37.355C384.777 39.665 384.147 42.465 384.147 45.755C384.147 48.975 384.777 51.775 386.037 54.155C387.367 56.465 389.117 58.25 391.287 59.51C393.457 60.77 395.907 61.4 398.637 61.4ZM459.565 74.84C454.735 74.84 450.08 74.28 445.6 73.16C441.19 71.97 437.69 70.5 435.1 68.75L440.56 56.99C443.15 58.6 446.195 59.93 449.695 60.98C453.265 61.96 456.765 62.45 460.195 62.45C463.975 62.45 466.635 61.995 468.175 61.085C469.785 60.175 470.59 58.915 470.59 57.305C470.59 55.975 469.96 54.995 468.7 54.365C467.51 53.665 465.9 53.14 463.87 52.79C461.84 52.44 459.6 52.09 457.15 51.74C454.77 51.39 452.355 50.935 449.905 50.375C447.455 49.745 445.215 48.835 443.185 47.645C441.155 46.455 439.51 44.845 438.25 42.815C437.06 40.785 436.465 38.16 436.465 34.94C436.465 31.37 437.48 28.22 439.51 25.49C441.61 22.76 444.62 20.625 448.54 19.085C452.46 17.475 457.15 16.67 462.61 16.67C466.46 16.67 470.38 17.09 474.37 17.93C478.36 18.77 481.685 19.995 484.345 21.605L478.885 33.26C476.155 31.65 473.39 30.565 470.59 30.005C467.86 29.375 465.2 29.06 462.61 29.06C458.97 29.06 456.31 29.55 454.63 30.53C452.95 31.51 452.11 32.77 452.11 34.31C452.11 35.71 452.705 36.76 453.895 37.46C455.155 38.16 456.8 38.72 458.83 39.14C460.86 39.56 463.065 39.945 465.445 40.295C467.895 40.575 470.345 41.03 472.795 41.66C475.245 42.29 477.45 43.2 479.41 44.39C481.44 45.51 483.085 47.085 484.345 49.115C485.605 51.075 486.235 53.665 486.235 56.885C486.235 60.385 485.185 63.5 483.085 66.23C480.985 68.89 477.94 70.99 473.95 72.53C470.03 74.07 465.235 74.84 459.565 74.84ZM554.113 74.84C547.673 74.84 542.003 73.58 537.103 71.06C532.273 68.54 528.528 65.11 525.868 60.77C523.208 56.36 521.878 51.355 521.878 45.755C521.878 40.085 523.173 35.08 525.763 30.74C528.423 26.33 532.028 22.9 536.578 20.45C541.128 17.93 546.273 16.67 552.013 16.67C557.543 16.67 562.513 17.86 566.923 20.24C571.403 22.55 574.938 25.91 577.528 30.32C580.118 34.66 581.413 39.875 581.413 45.965C581.413 46.595 581.378 47.33 581.308 48.17C581.238 48.94 581.168 49.675 581.098 50.375H535.213V40.82H572.488L566.188 43.655C566.188 40.715 565.593 38.16 564.403 35.99C563.213 33.82 561.568 32.14 559.468 30.95C557.368 29.69 554.918 29.06 552.118 29.06C549.318 29.06 546.833 29.69 544.663 30.95C542.563 32.14 540.918 33.855 539.728 36.095C538.538 38.265 537.943 40.855 537.943 43.865V46.385C537.943 49.465 538.608 52.195 539.938 54.575C541.338 56.885 543.263 58.67 545.713 59.93C548.233 61.12 551.173 61.715 554.533 61.715C557.543 61.715 560.168 61.26 562.408 60.35C564.718 59.44 566.818 58.075 568.708 56.255L577.423 65.705C574.833 68.645 571.578 70.92 567.658 72.53C563.738 74.07 559.223 74.84 554.113 74.84ZM626.653 16.67C631.133 16.67 635.123 17.58 638.623 19.4C642.193 21.15 644.993 23.88 647.023 27.59C649.053 31.23 650.068 35.92 650.068 41.66V74H633.688V44.18C633.688 39.63 632.673 36.27 630.643 34.1C628.683 31.93 625.883 30.845 622.243 30.845C619.653 30.845 617.308 31.405 615.208 32.525C613.178 33.575 611.568 35.22 610.378 37.46C609.258 39.7 608.698 42.57 608.698 46.07V74H592.318V17.51H607.963V33.155L605.023 28.43C607.053 24.65 609.958 21.745 613.738 19.715C617.518 17.685 621.823 16.67 626.653 16.67ZM23.9072 164.14C20.3606 164.14 16.9306 163.697 13.6172 162.81C10.3506 161.97 7.62056 160.687 5.42723 158.96L9.76723 151.12C11.3539 152.427 13.3606 153.453 15.7872 154.2C18.2606 154.993 20.6872 155.39 23.0672 155.39C26.9406 155.39 29.7406 154.527 31.4672 152.8C33.2406 151.073 34.1272 148.507 34.1272 145.1V139.43L34.8272 129.98L34.6872 120.46V112.34H45.0472V143.7C45.0472 150.7 43.2272 155.857 39.5872 159.17C35.9472 162.483 30.7206 164.14 23.9072 164.14ZM22.2272 148.18C18.7272 148.18 15.5539 147.433 12.7072 145.94C9.90723 144.4 7.64389 142.277 5.91723 139.57C4.23723 136.817 3.39723 133.62 3.39723 129.98C3.39723 126.293 4.23723 123.097 5.91723 120.39C7.64389 117.637 9.90723 115.513 12.7072 114.02C15.5539 112.527 18.7272 111.78 22.2272 111.78C25.4006 111.78 28.2006 112.433 30.6272 113.74C33.0539 115 34.9439 116.983 36.2972 119.69C37.6506 122.35 38.3272 125.78 38.3272 129.98C38.3272 134.133 37.6506 137.563 36.2972 140.27C34.9439 142.93 33.0539 144.913 30.6272 146.22C28.2006 147.527 25.4006 148.18 22.2272 148.18ZM24.3972 139.22C26.3106 139.22 28.0139 138.847 29.5072 138.1C31.0006 137.307 32.1672 136.21 33.0072 134.81C33.8472 133.41 34.2672 131.8 34.2672 129.98C34.2672 128.113 33.8472 126.503 33.0072 125.15C32.1672 123.75 31.0006 122.677 29.5072 121.93C28.0139 121.137 26.3106 120.74 24.3972 120.74C22.4839 120.74 20.7806 121.137 19.2872 121.93C17.7939 122.677 16.6039 123.75 15.7172 125.15C14.8772 126.503 14.4572 128.113 14.4572 129.98C14.4572 131.8 14.8772 133.41 15.7172 134.81C16.6039 136.21 17.7939 137.307 19.2872 138.1C20.7806 138.847 22.4839 139.22 24.3972 139.22ZM73.9009 150.56C69.6076 150.56 65.8276 149.72 62.5609 148.04C59.3409 146.36 56.8442 144.073 55.0709 141.18C53.2976 138.24 52.4109 134.903 52.4109 131.17C52.4109 127.39 53.2742 124.053 55.0009 121.16C56.7742 118.22 59.1776 115.933 62.2109 114.3C65.2442 112.62 68.6742 111.78 72.5009 111.78C76.1876 111.78 79.5009 112.573 82.4409 114.16C85.4276 115.7 87.7842 117.94 89.5109 120.88C91.2376 123.773 92.1009 127.25 92.1009 131.31C92.1009 131.73 92.0776 132.22 92.0309 132.78C91.9842 133.293 91.9376 133.783 91.8909 134.25H61.3009V127.88H86.1509L81.9509 129.77C81.9509 127.81 81.5542 126.107 80.7609 124.66C79.9676 123.213 78.8709 122.093 77.4709 121.3C76.0709 120.46 74.4376 120.04 72.5709 120.04C70.7042 120.04 69.0476 120.46 67.6009 121.3C66.2009 122.093 65.1042 123.237 64.3109 124.73C63.5176 126.177 63.1209 127.903 63.1209 129.91V131.59C63.1209 133.643 63.5642 135.463 64.4509 137.05C65.3842 138.59 66.6676 139.78 68.3009 140.62C69.9809 141.413 71.9409 141.81 74.1809 141.81C76.1876 141.81 77.9376 141.507 79.4309 140.9C80.9709 140.293 82.3709 139.383 83.6309 138.17L89.4409 144.47C87.7142 146.43 85.5442 147.947 82.9309 149.02C80.3176 150.047 77.3076 150.56 73.9009 150.56ZM112.041 150.56C108.821 150.56 105.718 150.187 102.731 149.44C99.7911 148.647 97.4577 147.667 95.7311 146.5L99.3711 138.66C101.098 139.733 103.128 140.62 105.461 141.32C107.841 141.973 110.174 142.3 112.461 142.3C114.981 142.3 116.754 141.997 117.781 141.39C118.854 140.783 119.391 139.943 119.391 138.87C119.391 137.983 118.971 137.33 118.131 136.91C117.338 136.443 116.264 136.093 114.911 135.86C113.558 135.627 112.064 135.393 110.431 135.16C108.844 134.927 107.234 134.623 105.601 134.25C103.968 133.83 102.474 133.223 101.121 132.43C99.7677 131.637 98.6711 130.563 97.8311 129.21C97.0377 127.857 96.6411 126.107 96.6411 123.96C96.6411 121.58 97.3177 119.48 98.6711 117.66C100.071 115.84 102.078 114.417 104.691 113.39C107.304 112.317 110.431 111.78 114.071 111.78C116.638 111.78 119.251 112.06 121.911 112.62C124.571 113.18 126.788 113.997 128.561 115.07L124.921 122.84C123.101 121.767 121.258 121.043 119.391 120.67C117.571 120.25 115.798 120.04 114.071 120.04C111.644 120.04 109.871 120.367 108.751 121.02C107.631 121.673 107.071 122.513 107.071 123.54C107.071 124.473 107.468 125.173 108.261 125.64C109.101 126.107 110.198 126.48 111.551 126.76C112.904 127.04 114.374 127.297 115.961 127.53C117.594 127.717 119.228 128.02 120.861 128.44C122.494 128.86 123.964 129.467 125.271 130.26C126.624 131.007 127.721 132.057 128.561 133.41C129.401 134.717 129.821 136.443 129.821 138.59C129.821 140.923 129.121 143 127.721 144.82C126.321 146.593 124.291 147.993 121.631 149.02C119.018 150.047 115.821 150.56 112.041 150.56ZM151.959 150.56C147.525 150.56 144.072 149.44 141.599 147.2C139.125 144.913 137.889 141.53 137.889 137.05V104.01H148.809V136.91C148.809 138.497 149.229 139.733 150.069 140.62C150.909 141.46 152.052 141.88 153.499 141.88C155.225 141.88 156.695 141.413 157.909 140.48L160.849 148.18C159.729 148.973 158.375 149.58 156.789 150C155.249 150.373 153.639 150.56 151.959 150.56ZM132.079 121.58V113.18H158.189V121.58H132.079ZM183.736 150.56C179.723 150.56 176.153 149.72 173.026 148.04C169.946 146.36 167.496 144.073 165.676 141.18C163.903 138.24 163.016 134.903 163.016 131.17C163.016 127.39 163.903 124.053 165.676 121.16C167.496 118.22 169.946 115.933 173.026 114.3C176.153 112.62 179.723 111.78 183.736 111.78C187.703 111.78 191.25 112.62 194.376 114.3C197.503 115.933 199.953 118.197 201.726 121.09C203.5 123.983 204.386 127.343 204.386 131.17C204.386 134.903 203.5 138.24 201.726 141.18C199.953 144.073 197.503 146.36 194.376 148.04C191.25 149.72 187.703 150.56 183.736 150.56ZM183.736 141.6C185.556 141.6 187.19 141.18 188.636 140.34C190.083 139.5 191.226 138.31 192.066 136.77C192.906 135.183 193.326 133.317 193.326 131.17C193.326 128.977 192.906 127.11 192.066 125.57C191.226 124.03 190.083 122.84 188.636 122C187.19 121.16 185.556 120.74 183.736 120.74C181.916 120.74 180.283 121.16 178.836 122C177.39 122.84 176.223 124.03 175.336 125.57C174.496 127.11 174.076 128.977 174.076 131.17C174.076 133.317 174.496 135.183 175.336 136.77C176.223 138.31 177.39 139.5 178.836 140.34C180.283 141.18 181.916 141.6 183.736 141.6ZM211.686 150V112.34H222.116V122.98L220.646 119.9C221.766 117.24 223.562 115.233 226.036 113.88C228.509 112.48 231.519 111.78 235.066 111.78V121.86C234.599 121.813 234.179 121.79 233.806 121.79C233.432 121.743 233.036 121.72 232.616 121.72C229.629 121.72 227.202 122.583 225.336 124.31C223.516 125.99 222.606 128.627 222.606 132.22V150H211.686ZM241.559 150V112.34H252.479V150H241.559ZM240.649 107.51L250.099 97.43H261.859L249.189 107.51H240.649ZM285.713 150V142.65L285.013 141.04V127.88C285.013 125.547 284.29 123.727 282.843 122.42C281.443 121.113 279.273 120.46 276.333 120.46C274.327 120.46 272.343 120.787 270.383 121.44C268.47 122.047 266.837 122.887 265.483 123.96L261.563 116.33C263.617 114.883 266.09 113.763 268.983 112.97C271.877 112.177 274.817 111.78 277.803 111.78C283.543 111.78 288 113.133 291.173 115.84C294.347 118.547 295.933 122.77 295.933 128.51V150H285.713ZM274.233 150.56C271.293 150.56 268.773 150.07 266.673 149.09C264.573 148.063 262.963 146.687 261.843 144.96C260.723 143.233 260.163 141.297 260.163 139.15C260.163 136.91 260.7 134.95 261.773 133.27C262.893 131.59 264.643 130.283 267.023 129.35C269.403 128.37 272.507 127.88 276.333 127.88H286.343V134.25H277.523C274.957 134.25 273.183 134.67 272.203 135.51C271.27 136.35 270.803 137.4 270.803 138.66C270.803 140.06 271.34 141.18 272.413 142.02C273.533 142.813 275.05 143.21 276.963 143.21C278.783 143.21 280.417 142.79 281.863 141.95C283.31 141.063 284.36 139.78 285.013 138.1L286.693 143.14C285.9 145.567 284.453 147.41 282.353 148.67C280.253 149.93 277.547 150.56 274.233 150.56ZM335.861 150L320.041 112.34H331.311L344.471 144.75H338.871L352.521 112.34H363.021L347.131 150H335.861ZM385.141 150.56C380.848 150.56 377.068 149.72 373.801 148.04C370.581 146.36 368.084 144.073 366.311 141.18C364.538 138.24 363.651 134.903 363.651 131.17C363.651 127.39 364.514 124.053 366.241 121.16C368.014 118.22 370.418 115.933 373.451 114.3C376.484 112.62 379.914 111.78 383.741 111.78C387.428 111.78 390.741 112.573 393.681 114.16C396.668 115.7 399.024 117.94 400.751 120.88C402.478 123.773 403.341 127.25 403.341 131.31C403.341 131.73 403.318 132.22 403.271 132.78C403.224 133.293 403.178 133.783 403.131 134.25H372.541V127.88H397.391L393.191 129.77C393.191 127.81 392.794 126.107 392.001 124.66C391.208 123.213 390.111 122.093 388.711 121.3C387.311 120.46 385.678 120.04 383.811 120.04C381.944 120.04 380.288 120.46 378.841 121.3C377.441 122.093 376.344 123.237 375.551 124.73C374.758 126.177 374.361 127.903 374.361 129.91V131.59C374.361 133.643 374.804 135.463 375.691 137.05C376.624 138.59 377.908 139.78 379.541 140.62C381.221 141.413 383.181 141.81 385.421 141.81C387.428 141.81 389.178 141.507 390.671 140.9C392.211 140.293 393.611 139.383 394.871 138.17L400.681 144.47C398.954 146.43 396.784 147.947 394.171 149.02C391.558 150.047 388.548 150.56 385.141 150.56ZM433.501 111.78C436.488 111.78 439.148 112.387 441.481 113.6C443.861 114.767 445.728 116.587 447.081 119.06C448.435 121.487 449.111 124.613 449.111 128.44V150H438.191V130.12C438.191 127.087 437.515 124.847 436.161 123.4C434.855 121.953 432.988 121.23 430.561 121.23C428.835 121.23 427.271 121.603 425.871 122.35C424.518 123.05 423.445 124.147 422.651 125.64C421.905 127.133 421.531 129.047 421.531 131.38V150H410.611V98.06H421.531V122.77L419.081 119.62C420.435 117.1 422.371 115.163 424.891 113.81C427.411 112.457 430.281 111.78 433.501 111.78ZM459.01 150V112.34H469.93V150H459.01ZM464.47 107.09C462.463 107.09 460.83 106.507 459.57 105.34C458.31 104.173 457.68 102.727 457.68 101C457.68 99.2733 458.31 97.8267 459.57 96.66C460.83 95.4933 462.463 94.91 464.47 94.91C466.476 94.91 468.11 95.47 469.37 96.59C470.63 97.6633 471.26 99.0633 471.26 100.79C471.26 102.61 470.63 104.127 469.37 105.34C468.156 106.507 466.523 107.09 464.47 107.09ZM498.264 150.56C494.204 150.56 490.588 149.743 487.414 148.11C484.241 146.43 481.744 144.12 479.924 141.18C478.151 138.24 477.264 134.903 477.264 131.17C477.264 127.39 478.151 124.053 479.924 121.16C481.744 118.22 484.241 115.933 487.414 114.3C490.588 112.62 494.204 111.78 498.264 111.78C502.231 111.78 505.684 112.62 508.624 114.3C511.564 115.933 513.734 118.29 515.134 121.37L506.664 125.92C505.684 124.147 504.448 122.84 502.954 122C501.508 121.16 499.921 120.74 498.194 120.74C496.328 120.74 494.648 121.16 493.154 122C491.661 122.84 490.471 124.03 489.584 125.57C488.744 127.11 488.324 128.977 488.324 131.17C488.324 133.363 488.744 135.23 489.584 136.77C490.471 138.31 491.661 139.5 493.154 140.34C494.648 141.18 496.328 141.6 498.194 141.6C499.921 141.6 501.508 141.203 502.954 140.41C504.448 139.57 505.684 138.24 506.664 136.42L515.134 141.04C513.734 144.073 511.564 146.43 508.624 148.11C505.684 149.743 502.231 150.56 498.264 150.56ZM537.312 150.56C534.185 150.56 531.385 149.953 528.912 148.74C526.485 147.527 524.595 145.683 523.242 143.21C521.889 140.69 521.212 137.493 521.212 133.62V112.34H532.132V132.01C532.132 135.137 532.785 137.447 534.092 138.94C535.445 140.387 537.335 141.11 539.762 141.11C541.442 141.11 542.935 140.76 544.242 140.06C545.549 139.313 546.575 138.193 547.322 136.7C548.069 135.16 548.442 133.247 548.442 130.96V112.34H559.362V150H549.002V139.64L550.892 142.65C549.632 145.263 547.765 147.247 545.292 148.6C542.865 149.907 540.205 150.56 537.312 150.56ZM569.478 150V98.06H580.398V150H569.478ZM613.633 150V142.65L612.933 141.04V127.88C612.933 125.547 612.21 123.727 610.763 122.42C609.363 121.113 607.193 120.46 604.253 120.46C602.246 120.46 600.263 120.787 598.303 121.44C596.39 122.047 594.756 122.887 593.403 123.96L589.483 116.33C591.536 114.883 594.01 113.763 596.903 112.97C599.796 112.177 602.736 111.78 605.723 111.78C611.463 111.78 615.92 113.133 619.093 115.84C622.266 118.547 623.853 122.77 623.853 128.51V150H613.633ZM602.153 150.56C599.213 150.56 596.693 150.07 594.593 149.09C592.493 148.063 590.883 146.687 589.763 144.96C588.643 143.233 588.083 141.297 588.083 139.15C588.083 136.91 588.62 134.95 589.693 133.27C590.813 131.59 592.563 130.283 594.943 129.35C597.323 128.37 600.426 127.88 604.253 127.88H614.263V134.25H605.443C602.876 134.25 601.103 134.67 600.123 135.51C599.19 136.35 598.723 137.4 598.723 138.66C598.723 140.06 599.26 141.18 600.333 142.02C601.453 142.813 602.97 143.21 604.883 143.21C606.703 143.21 608.336 142.79 609.783 141.95C611.23 141.063 612.28 139.78 612.933 138.1L614.613 143.14C613.82 145.567 612.373 147.41 610.273 148.67C608.173 149.93 605.466 150.56 602.153 150.56ZM633.736 150V112.34H644.166V122.98L642.696 119.9C643.816 117.24 645.613 115.233 648.086 113.88C650.56 112.48 653.57 111.78 657.116 111.78V121.86C656.65 121.813 656.23 121.79 655.856 121.79C655.483 121.743 655.086 121.72 654.666 121.72C651.68 121.72 649.253 122.583 647.386 124.31C645.566 125.99 644.656 128.627 644.656 132.22V150H633.736ZM303.022 225.424C300.337 225.424 297.917 224.823 295.761 223.622C293.606 222.385 291.892 220.672 290.62 218.481C289.384 216.29 288.765 213.711 288.765 210.743C288.765 207.74 289.384 205.143 290.62 202.952C291.892 200.761 293.606 199.065 295.761 197.864C297.917 196.663 300.337 196.062 303.022 196.062C305.425 196.062 307.527 196.592 309.329 197.652C311.131 198.712 312.527 200.32 313.516 202.475C314.506 204.63 315 207.386 315 210.743C315 214.064 314.523 216.82 313.569 219.011C312.615 221.166 311.237 222.774 309.435 223.834C307.669 224.894 305.531 225.424 303.022 225.424ZM304.453 218.64C305.796 218.64 307.015 218.322 308.11 217.686C309.206 217.05 310.071 216.149 310.707 214.983C311.379 213.782 311.714 212.368 311.714 210.743C311.714 209.082 311.379 207.669 310.707 206.503C310.071 205.337 309.206 204.436 308.11 203.8C307.015 203.164 305.796 202.846 304.453 202.846C303.075 202.846 301.839 203.164 300.743 203.8C299.648 204.436 298.765 205.337 298.093 206.503C297.457 207.669 297.139 209.082 297.139 210.743C297.139 212.368 297.457 213.782 298.093 214.983C298.765 216.149 299.648 217.05 300.743 217.686C301.839 218.322 303.075 218.64 304.453 218.64ZM311.926 225V219.17L312.085 210.69L311.555 202.263V185.674H319.823V225H311.926ZM341.627 225.424C338.376 225.424 335.514 224.788 333.041 223.516C330.603 222.244 328.712 220.513 327.37 218.322C326.027 216.096 325.356 213.57 325.356 210.743C325.356 207.881 326.009 205.355 327.317 203.164C328.659 200.938 330.479 199.207 332.776 197.97C335.072 196.698 337.669 196.062 340.567 196.062C343.358 196.062 345.867 196.663 348.093 197.864C350.354 199.03 352.138 200.726 353.446 202.952C354.753 205.143 355.407 207.775 355.407 210.849C355.407 211.167 355.389 211.538 355.354 211.962C355.318 212.351 355.283 212.722 355.248 213.075H332.087V208.252H350.902L347.722 209.683C347.722 208.199 347.421 206.909 346.821 205.814C346.22 204.719 345.39 203.871 344.33 203.27C343.27 202.634 342.033 202.316 340.62 202.316C339.206 202.316 337.952 202.634 336.857 203.27C335.797 203.871 334.966 204.736 334.366 205.867C333.765 206.962 333.465 208.27 333.465 209.789V211.061C333.465 212.616 333.8 213.994 334.472 215.195C335.178 216.361 336.15 217.262 337.387 217.898C338.659 218.499 340.143 218.799 341.839 218.799C343.358 218.799 344.683 218.569 345.814 218.11C346.98 217.651 348.04 216.962 348.994 216.043L353.393 220.813C352.085 222.297 350.442 223.445 348.464 224.258C346.485 225.035 344.206 225.424 341.627 225.424ZM360.911 225V185.674H369.179V225H360.911ZM13.3727 271.158H36.6257V279.852H13.3727V271.158ZM14.2007 291.03H40.4897V300H3.09175V251.7H39.5927V260.67H14.2007V291.03ZM60.8442 300.552C57.6702 300.552 54.6112 300.184 51.6672 299.448C48.7692 298.666 46.4692 297.7 44.7672 296.55L48.3552 288.822C50.0572 289.88 52.0582 290.754 54.3582 291.444C56.7042 292.088 59.0042 292.41 61.2582 292.41C63.7422 292.41 65.4902 292.111 66.5022 291.513C67.5602 290.915 68.0892 290.087 68.0892 289.029C68.0892 288.155 67.6752 287.511 66.8472 287.097C66.0652 286.637 65.0072 286.292 63.6732 286.062C62.3392 285.832 60.8672 285.602 59.2572 285.372C57.6932 285.142 56.1062 284.843 54.4962 284.475C52.8862 284.061 51.4142 283.463 50.0802 282.681C48.7462 281.899 47.6652 280.841 46.8372 279.507C46.0552 278.173 45.6642 276.448 45.6642 274.332C45.6642 271.986 46.3312 269.916 47.6652 268.122C49.0452 266.328 51.0232 264.925 53.5992 263.913C56.1752 262.855 59.2572 262.326 62.8452 262.326C65.3752 262.326 67.9512 262.602 70.5732 263.154C73.1952 263.706 75.3802 264.511 77.1282 265.569L73.5402 273.228C71.7462 272.17 69.9292 271.457 68.0892 271.089C66.2952 270.675 64.5472 270.468 62.8452 270.468C60.4532 270.468 58.7052 270.79 57.6012 271.434C56.4972 272.078 55.9452 272.906 55.9452 273.918C55.9452 274.838 56.3362 275.528 57.1182 275.988C57.9462 276.448 59.0272 276.816 60.3612 277.092C61.6952 277.368 63.1442 277.621 64.7082 277.851C66.3182 278.035 67.9282 278.334 69.5382 278.748C71.1482 279.162 72.5972 279.76 73.8852 280.542C75.2192 281.278 76.3002 282.313 77.1282 283.647C77.9562 284.935 78.3702 286.637 78.3702 288.753C78.3702 291.053 77.6802 293.1 76.3002 294.894C74.9202 296.642 72.9192 298.022 70.2972 299.034C67.7212 300.046 64.5702 300.552 60.8442 300.552ZM100.191 300.552C95.8215 300.552 92.4175 299.448 89.9795 297.24C87.5415 294.986 86.3225 291.651 86.3225 287.235V254.667H97.0865V287.097C97.0865 288.661 97.5005 289.88 98.3285 290.754C99.1565 291.582 100.283 291.996 101.709 291.996C103.411 291.996 104.86 291.536 106.056 290.616L108.954 298.206C107.85 298.988 106.516 299.586 104.952 300C103.434 300.368 101.847 300.552 100.191 300.552ZM80.5955 271.986V263.706H106.332V271.986H80.5955ZM137.767 300V292.755L137.077 291.168V278.196C137.077 275.896 136.364 274.102 134.938 272.814C133.558 271.526 131.419 270.882 128.521 270.882C126.543 270.882 124.588 271.204 122.656 271.848C120.77 272.446 119.16 273.274 117.826 274.332L113.962 266.811C115.986 265.385 118.424 264.281 121.276 263.499C124.128 262.717 127.026 262.326 129.97 262.326C135.628 262.326 140.021 263.66 143.149 266.328C146.277 268.996 147.841 273.159 147.841 278.817V300H137.767ZM126.451 300.552C123.553 300.552 121.069 300.069 118.999 299.103C116.929 298.091 115.342 296.734 114.238 295.032C113.134 293.33 112.582 291.421 112.582 289.305C112.582 287.097 113.111 285.165 114.169 283.509C115.273 281.853 116.998 280.565 119.344 279.645C121.69 278.679 124.749 278.196 128.521 278.196H138.388V284.475H129.694C127.164 284.475 125.416 284.889 124.45 285.717C123.53 286.545 123.07 287.58 123.07 288.822C123.07 290.202 123.599 291.306 124.657 292.134C125.761 292.916 127.256 293.307 129.142 293.307C130.936 293.307 132.546 292.893 133.972 292.065C135.398 291.191 136.433 289.926 137.077 288.27L138.733 293.238C137.951 295.63 136.525 297.447 134.455 298.689C132.385 299.931 129.717 300.552 126.451 300.552ZM173.791 300.552C170.295 300.552 167.144 299.77 164.338 298.206C161.532 296.596 159.301 294.365 157.645 291.513C156.035 288.661 155.23 285.303 155.23 281.439C155.23 277.529 156.035 274.148 157.645 271.296C159.301 268.444 161.532 266.236 164.338 264.672C167.144 263.108 170.295 262.326 173.791 262.326C176.919 262.326 179.656 263.016 182.002 264.396C184.348 265.776 186.165 267.869 187.453 270.675C188.741 273.481 189.385 277.069 189.385 281.439C189.385 285.763 188.764 289.351 187.522 292.203C186.28 295.009 184.486 297.102 182.14 298.482C179.84 299.862 177.057 300.552 173.791 300.552ZM175.654 291.72C177.402 291.72 178.989 291.306 180.415 290.478C181.841 289.65 182.968 288.477 183.796 286.959C184.67 285.395 185.107 283.555 185.107 281.439C185.107 279.277 184.67 277.437 183.796 275.919C182.968 274.401 181.841 273.228 180.415 272.4C178.989 271.572 177.402 271.158 175.654 271.158C173.86 271.158 172.25 271.572 170.824 272.4C169.398 273.228 168.248 274.401 167.374 275.919C166.546 277.437 166.132 279.277 166.132 281.439C166.132 283.555 166.546 285.395 167.374 286.959C168.248 288.477 169.398 289.65 170.824 290.478C172.25 291.306 173.86 291.72 175.654 291.72ZM185.383 300V292.41L185.59 281.37L184.9 270.399V248.802H195.664V300H185.383ZM223.291 300.552C219.335 300.552 215.816 299.724 212.734 298.068C209.698 296.412 207.283 294.158 205.489 291.306C203.741 288.408 202.867 285.119 202.867 281.439C202.867 277.713 203.741 274.424 205.489 271.572C207.283 268.674 209.698 266.42 212.734 264.81C215.816 263.154 219.335 262.326 223.291 262.326C227.201 262.326 230.697 263.154 233.779 264.81C236.861 266.42 239.276 268.651 241.024 271.503C242.772 274.355 243.646 277.667 243.646 281.439C243.646 285.119 242.772 288.408 241.024 291.306C239.276 294.158 236.861 296.412 233.779 298.068C230.697 299.724 227.201 300.552 223.291 300.552ZM223.291 291.72C225.085 291.72 226.695 291.306 228.121 290.478C229.547 289.65 230.674 288.477 231.502 286.959C232.33 285.395 232.744 283.555 232.744 281.439C232.744 279.277 232.33 277.437 231.502 275.919C230.674 274.401 229.547 273.228 228.121 272.4C226.695 271.572 225.085 271.158 223.291 271.158C221.497 271.158 219.887 271.572 218.461 272.4C217.035 273.228 215.885 274.401 215.011 275.919C214.183 277.437 213.769 279.277 213.769 281.439C213.769 283.555 214.183 285.395 215.011 286.959C215.885 288.477 217.035 289.65 218.461 290.478C219.887 291.306 221.497 291.72 223.291 291.72ZM286.321 300.552C282.825 300.552 279.674 299.77 276.868 298.206C274.062 296.596 271.831 294.365 270.175 291.513C268.565 288.661 267.76 285.303 267.76 281.439C267.76 277.529 268.565 274.148 270.175 271.296C271.831 268.444 274.062 266.236 276.868 264.672C279.674 263.108 282.825 262.326 286.321 262.326C289.449 262.326 292.186 263.016 294.532 264.396C296.878 265.776 298.695 267.869 299.983 270.675C301.271 273.481 301.915 277.069 301.915 281.439C301.915 285.763 301.294 289.351 300.052 292.203C298.81 295.009 297.016 297.102 294.67 298.482C292.37 299.862 289.587 300.552 286.321 300.552ZM288.184 291.72C289.932 291.72 291.519 291.306 292.945 290.478C294.371 289.65 295.498 288.477 296.326 286.959C297.2 285.395 297.637 283.555 297.637 281.439C297.637 279.277 297.2 277.437 296.326 275.919C295.498 274.401 294.371 273.228 292.945 272.4C291.519 271.572 289.932 271.158 288.184 271.158C286.39 271.158 284.78 271.572 283.354 272.4C281.928 273.228 280.778 274.401 279.904 275.919C279.076 277.437 278.662 279.277 278.662 281.439C278.662 283.555 279.076 285.395 279.904 286.959C280.778 288.477 281.928 289.65 283.354 290.478C284.78 291.306 286.39 291.72 288.184 291.72ZM297.913 300V292.41L298.12 281.37L297.43 270.399V248.802H308.194V300H297.913ZM336.579 300.552C332.347 300.552 328.621 299.724 325.401 298.068C322.227 296.412 319.766 294.158 318.018 291.306C316.27 288.408 315.396 285.119 315.396 281.439C315.396 277.713 316.247 274.424 317.949 271.572C319.697 268.674 322.066 266.42 325.056 264.81C328.046 263.154 331.427 262.326 335.199 262.326C338.833 262.326 342.099 263.108 344.997 264.672C347.941 266.19 350.264 268.398 351.966 271.296C353.668 274.148 354.519 277.575 354.519 281.577C354.519 281.991 354.496 282.474 354.45 283.026C354.404 283.532 354.358 284.015 354.312 284.475H324.159V278.196H348.654L344.514 280.059C344.514 278.127 344.123 276.448 343.341 275.022C342.559 273.596 341.478 272.492 340.098 271.71C338.718 270.882 337.108 270.468 335.268 270.468C333.428 270.468 331.795 270.882 330.369 271.71C328.989 272.492 327.908 273.619 327.126 275.091C326.344 276.517 325.953 278.219 325.953 280.197V281.853C325.953 283.877 326.39 285.671 327.264 287.235C328.184 288.753 329.449 289.926 331.059 290.754C332.715 291.536 334.647 291.927 336.855 291.927C338.833 291.927 340.558 291.628 342.03 291.03C343.548 290.432 344.928 289.535 346.17 288.339L351.897 294.549C350.195 296.481 348.056 297.976 345.48 299.034C342.904 300.046 339.937 300.552 336.579 300.552ZM381.985 300V251.7H391.231L411.793 285.786H406.894L427.111 251.7H436.288L436.426 300H425.938L425.869 267.777H427.801L411.655 294.894H406.618L390.127 267.777H392.473V300H381.985ZM464.791 300.552C460.835 300.552 457.316 299.724 454.234 298.068C451.198 296.412 448.783 294.158 446.989 291.306C445.241 288.408 444.367 285.119 444.367 281.439C444.367 277.713 445.241 274.424 446.989 271.572C448.783 268.674 451.198 266.42 454.234 264.81C457.316 263.154 460.835 262.326 464.791 262.326C468.701 262.326 472.197 263.154 475.279 264.81C478.361 266.42 480.776 268.651 482.524 271.503C484.272 274.355 485.146 277.667 485.146 281.439C485.146 285.119 484.272 288.408 482.524 291.306C480.776 294.158 478.361 296.412 475.279 298.068C472.197 299.724 468.701 300.552 464.791 300.552ZM464.791 291.72C466.585 291.72 468.195 291.306 469.621 290.478C471.047 289.65 472.174 288.477 473.002 286.959C473.83 285.395 474.244 283.555 474.244 281.439C474.244 279.277 473.83 277.437 473.002 275.919C472.174 274.401 471.047 273.228 469.621 272.4C468.195 271.572 466.585 271.158 464.791 271.158C462.997 271.158 461.387 271.572 459.961 272.4C458.535 273.228 457.385 274.401 456.511 275.919C455.683 277.437 455.269 279.277 455.269 281.439C455.269 283.555 455.683 285.395 456.511 286.959C457.385 288.477 458.535 289.65 459.961 290.478C461.387 291.306 462.997 291.72 464.791 291.72ZM492.341 300V262.878H502.622V273.366L501.173 270.33C502.277 267.708 504.048 265.73 506.486 264.396C508.924 263.016 511.891 262.326 515.387 262.326V272.262C514.927 272.216 514.513 272.193 514.145 272.193C513.777 272.147 513.386 272.124 512.972 272.124C510.028 272.124 507.636 272.975 505.796 274.677C504.002 276.333 503.105 278.932 503.105 282.474V300H492.341ZM539.873 300.552C535.641 300.552 531.915 299.724 528.695 298.068C525.521 296.412 523.06 294.158 521.312 291.306C519.564 288.408 518.69 285.119 518.69 281.439C518.69 277.713 519.541 274.424 521.243 271.572C522.991 268.674 525.36 266.42 528.35 264.81C531.34 263.154 534.721 262.326 538.493 262.326C542.127 262.326 545.393 263.108 548.291 264.672C551.235 266.19 553.558 268.398 555.26 271.296C556.962 274.148 557.813 277.575 557.813 281.577C557.813 281.991 557.79 282.474 557.744 283.026C557.698 283.532 557.652 284.015 557.606 284.475H527.453V278.196H551.948L547.808 280.059C547.808 278.127 547.417 276.448 546.635 275.022C545.853 273.596 544.772 272.492 543.392 271.71C542.012 270.882 540.402 270.468 538.562 270.468C536.722 270.468 535.089 270.882 533.663 271.71C532.283 272.492 531.202 273.619 530.42 275.091C529.638 276.517 529.247 278.219 529.247 280.197V281.853C529.247 283.877 529.684 285.671 530.558 287.235C531.478 288.753 532.743 289.926 534.353 290.754C536.009 291.536 537.941 291.927 540.149 291.927C542.127 291.927 543.852 291.628 545.324 291.03C546.842 290.432 548.222 289.535 549.464 288.339L555.191 294.549C553.489 296.481 551.35 297.976 548.774 299.034C546.198 300.046 543.231 300.552 539.873 300.552ZM564.979 300V248.802H575.743V300H564.979ZM603.397 300.552C599.441 300.552 595.922 299.724 592.84 298.068C589.804 296.412 587.389 294.158 585.595 291.306C583.847 288.408 582.973 285.119 582.973 281.439C582.973 277.713 583.847 274.424 585.595 271.572C587.389 268.674 589.804 266.42 592.84 264.81C595.922 263.154 599.441 262.326 603.397 262.326C607.307 262.326 610.803 263.154 613.885 264.81C616.967 266.42 619.382 268.651 621.13 271.503C622.878 274.355 623.752 277.667 623.752 281.439C623.752 285.119 622.878 288.408 621.13 291.306C619.382 294.158 616.967 296.412 613.885 298.068C610.803 299.724 607.307 300.552 603.397 300.552ZM603.397 291.72C605.191 291.72 606.801 291.306 608.227 290.478C609.653 289.65 610.78 288.477 611.608 286.959C612.436 285.395 612.85 283.555 612.85 281.439C612.85 279.277 612.436 277.437 611.608 275.919C610.78 274.401 609.653 273.228 608.227 272.4C606.801 271.572 605.191 271.158 603.397 271.158C601.603 271.158 599.993 271.572 598.567 272.4C597.141 273.228 595.991 274.401 595.117 275.919C594.289 277.437 593.875 279.277 593.875 281.439C593.875 283.555 594.289 285.395 595.117 286.959C595.991 288.477 597.141 289.65 598.567 290.478C599.993 291.306 601.603 291.72 603.397 291.72ZM643.436 300.552C640.262 300.552 637.203 300.184 634.259 299.448C631.361 298.666 629.061 297.7 627.359 296.55L630.947 288.822C632.649 289.88 634.65 290.754 636.95 291.444C639.296 292.088 641.596 292.41 643.85 292.41C646.334 292.41 648.082 292.111 649.094 291.513C650.152 290.915 650.681 290.087 650.681 289.029C650.681 288.155 650.267 287.511 649.439 287.097C648.657 286.637 647.599 286.292 646.265 286.062C644.931 285.832 643.459 285.602 641.849 285.372C640.285 285.142 638.698 284.843 637.088 284.475C635.478 284.061 634.006 283.463 632.672 282.681C631.338 281.899 630.257 280.841 629.429 279.507C628.647 278.173 628.256 276.448 628.256 274.332C628.256 271.986 628.923 269.916 630.257 268.122C631.637 266.328 633.615 264.925 636.191 263.913C638.767 262.855 641.849 262.326 645.437 262.326C647.967 262.326 650.543 262.602 653.165 263.154C655.787 263.706 657.972 264.511 659.72 265.569L656.132 273.228C654.338 272.17 652.521 271.457 650.681 271.089C648.887 270.675 647.139 270.468 645.437 270.468C643.045 270.468 641.297 270.79 640.193 271.434C639.089 272.078 638.537 272.906 638.537 273.918C638.537 274.838 638.928 275.528 639.71 275.988C640.538 276.448 641.619 276.816 642.953 277.092C644.287 277.368 645.736 277.621 647.3 277.851C648.91 278.035 650.52 278.334 652.13 278.748C653.74 279.162 655.189 279.76 656.477 280.542C657.811 281.278 658.892 282.313 659.72 283.647C660.548 284.935 660.962 286.637 660.962 288.753C660.962 291.053 660.272 293.1 658.892 294.894C657.512 296.642 655.511 298.022 652.889 299.034C650.313 300.046 647.162 300.552 643.436 300.552Z" fill="#747474"/>
<path d="M19.9058 364.576C16.2578 364.576 12.9698 363.76 10.0418 362.128C7.11384 360.448 4.78584 358.12 3.05784 355.144C1.37784 352.168 0.537844 348.664 0.537844 344.632C0.537844 340.552 1.37784 337.024 3.05784 334.048C4.78584 331.072 7.11384 328.768 10.0418 327.136C12.9698 325.504 16.2578 324.688 19.9058 324.688C23.1698 324.688 26.0258 325.408 28.4738 326.848C30.9218 328.288 32.8178 330.472 34.1618 333.4C35.5058 336.328 36.1778 340.072 36.1778 344.632C36.1778 349.144 35.5298 352.888 34.2338 355.864C32.9378 358.792 31.0658 360.976 28.6178 362.416C26.2178 363.856 23.3138 364.576 19.9058 364.576ZM21.8498 355.36C23.6738 355.36 25.3298 354.928 26.8178 354.064C28.3058 353.2 29.4818 351.976 30.3458 350.392C31.2578 348.76 31.7138 346.84 31.7138 344.632C31.7138 342.376 31.2578 340.456 30.3458 338.872C29.4818 337.288 28.3058 336.064 26.8178 335.2C25.3298 334.336 23.6738 333.904 21.8498 333.904C19.9778 333.904 18.2978 334.336 16.8098 335.2C15.3218 336.064 14.1218 337.288 13.2098 338.872C12.3458 340.456 11.9138 342.376 11.9138 344.632C11.9138 346.84 12.3458 348.76 13.2098 350.392C14.1218 351.976 15.3218 353.2 16.8098 354.064C18.2978 354.928 19.9778 355.36 21.8498 355.36ZM32.0018 364V356.08L32.2178 344.56L31.4978 333.112V310.576H42.7298V364H32.0018ZM72.3494 364.576C67.9334 364.576 64.0454 363.712 60.6854 361.984C57.3734 360.256 54.8054 357.904 52.9814 354.928C51.1574 351.904 50.2454 348.472 50.2454 344.632C50.2454 340.744 51.1334 337.312 52.9094 334.336C54.7334 331.312 57.2054 328.96 60.3254 327.28C63.4454 325.552 66.9734 324.688 70.9094 324.688C74.7014 324.688 78.1094 325.504 81.1334 327.136C84.2054 328.72 86.6294 331.024 88.4054 334.048C90.1814 337.024 91.0694 340.6 91.0694 344.776C91.0694 345.208 91.0454 345.712 90.9974 346.288C90.9494 346.816 90.9014 347.32 90.8534 347.8H59.3894V341.248H84.9494L80.6294 343.192C80.6294 341.176 80.2214 339.424 79.4054 337.936C78.5894 336.448 77.4614 335.296 76.0214 334.48C74.5814 333.616 72.9014 333.184 70.9814 333.184C69.0614 333.184 67.3574 333.616 65.8694 334.48C64.4294 335.296 63.3014 336.472 62.4854 338.008C61.6694 339.496 61.2614 341.272 61.2614 343.336V345.064C61.2614 347.176 61.7174 349.048 62.6294 350.68C63.5894 352.264 64.9094 353.488 66.5894 354.352C68.3174 355.168 70.3334 355.576 72.6374 355.576C74.7014 355.576 76.5014 355.264 78.0374 354.64C79.6214 354.016 81.0614 353.08 82.3574 351.832L88.3334 358.312C86.5574 360.328 84.3254 361.888 81.6374 362.992C78.9494 364.048 75.8534 364.576 72.3494 364.576ZM111.579 364.576C108.267 364.576 105.075 364.192 102.003 363.424C98.9793 362.608 96.5793 361.6 94.8033 360.4L98.5473 352.336C100.323 353.44 102.411 354.352 104.811 355.072C107.259 355.744 109.659 356.08 112.011 356.08C114.603 356.08 116.427 355.768 117.483 355.144C118.587 354.52 119.139 353.656 119.139 352.552C119.139 351.64 118.707 350.968 117.843 350.536C117.027 350.056 115.923 349.696 114.531 349.456C113.139 349.216 111.603 348.976 109.923 348.736C108.291 348.496 106.635 348.184 104.955 347.8C103.275 347.368 101.739 346.744 100.347 345.928C98.9553 345.112 97.8273 344.008 96.9633 342.616C96.1473 341.224 95.7393 339.424 95.7393 337.216C95.7393 334.768 96.4353 332.608 97.8273 330.736C99.2673 328.864 101.331 327.4 104.019 326.344C106.707 325.24 109.923 324.688 113.667 324.688C116.307 324.688 118.995 324.976 121.731 325.552C124.467 326.128 126.747 326.968 128.571 328.072L124.827 336.064C122.955 334.96 121.059 334.216 119.139 333.832C117.267 333.4 115.443 333.184 113.667 333.184C111.171 333.184 109.347 333.52 108.195 334.192C107.043 334.864 106.467 335.728 106.467 336.784C106.467 337.744 106.875 338.464 107.691 338.944C108.555 339.424 109.683 339.808 111.075 340.096C112.467 340.384 113.979 340.648 115.611 340.888C117.291 341.08 118.971 341.392 120.651 341.824C122.331 342.256 123.843 342.88 125.187 343.696C126.579 344.464 127.707 345.544 128.571 346.936C129.435 348.28 129.867 350.056 129.867 352.264C129.867 354.664 129.147 356.8 127.707 358.672C126.267 360.496 124.179 361.936 121.443 362.992C118.755 364.048 115.467 364.576 111.579 364.576ZM153.429 364.576C149.781 364.576 146.493 363.76 143.565 362.128C140.637 360.448 138.309 358.12 136.581 355.144C134.901 352.168 134.061 348.664 134.061 344.632C134.061 340.552 134.901 337.024 136.581 334.048C138.309 331.072 140.637 328.768 143.565 327.136C146.493 325.504 149.781 324.688 153.429 324.688C156.693 324.688 159.549 325.408 161.997 326.848C164.445 328.288 166.341 330.472 167.685 333.4C169.029 336.328 169.701 340.072 169.701 344.632C169.701 349.144 169.053 352.888 167.757 355.864C166.461 358.792 164.589 360.976 162.141 362.416C159.741 363.856 156.837 364.576 153.429 364.576ZM155.373 355.36C157.197 355.36 158.853 354.928 160.341 354.064C161.829 353.2 163.005 351.976 163.869 350.392C164.781 348.76 165.237 346.84 165.237 344.632C165.237 342.376 164.781 340.456 163.869 338.872C163.005 337.288 161.829 336.064 160.341 335.2C158.853 334.336 157.197 333.904 155.373 333.904C153.501 333.904 151.821 334.336 150.333 335.2C148.845 336.064 147.645 337.288 146.733 338.872C145.869 340.456 145.437 342.376 145.437 344.632C145.437 346.84 145.869 348.76 146.733 350.392C147.645 351.976 148.845 353.2 150.333 354.064C151.821 354.928 153.501 355.36 155.373 355.36ZM165.525 364V356.08L165.741 344.56L165.021 333.112V310.576H176.253V364H165.525ZM205.873 364.576C201.457 364.576 197.569 363.712 194.209 361.984C190.897 360.256 188.329 357.904 186.505 354.928C184.681 351.904 183.769 348.472 183.769 344.632C183.769 340.744 184.657 337.312 186.433 334.336C188.257 331.312 190.729 328.96 193.849 327.28C196.969 325.552 200.497 324.688 204.433 324.688C208.225 324.688 211.633 325.504 214.657 327.136C217.729 328.72 220.153 331.024 221.929 334.048C223.705 337.024 224.593 340.6 224.593 344.776C224.593 345.208 224.569 345.712 224.521 346.288C224.473 346.816 224.425 347.32 224.377 347.8H192.913V341.248H218.473L214.153 343.192C214.153 341.176 213.745 339.424 212.929 337.936C212.113 336.448 210.985 335.296 209.545 334.48C208.105 333.616 206.425 333.184 204.505 333.184C202.585 333.184 200.881 333.616 199.393 334.48C197.953 335.296 196.825 336.472 196.009 338.008C195.193 339.496 194.785 341.272 194.785 343.336V345.064C194.785 347.176 195.241 349.048 196.153 350.68C197.113 352.264 198.433 353.488 200.113 354.352C201.841 355.168 203.857 355.576 206.161 355.576C208.225 355.576 210.025 355.264 211.561 354.64C213.145 354.016 214.585 353.08 215.881 351.832L221.857 358.312C220.081 360.328 217.849 361.888 215.161 362.992C212.473 364.048 209.377 364.576 205.873 364.576ZM271.685 364.576C267.269 364.576 263.381 363.712 260.021 361.984C256.709 360.256 254.141 357.904 252.317 354.928C250.493 351.904 249.581 348.472 249.581 344.632C249.581 340.744 250.469 337.312 252.245 334.336C254.069 331.312 256.541 328.96 259.661 327.28C262.781 325.552 266.309 324.688 270.245 324.688C274.037 324.688 277.445 325.504 280.469 327.136C283.541 328.72 285.965 331.024 287.741 334.048C289.517 337.024 290.405 340.6 290.405 344.776C290.405 345.208 290.381 345.712 290.333 346.288C290.285 346.816 290.237 347.32 290.189 347.8H258.725V341.248H284.285L279.965 343.192C279.965 341.176 279.557 339.424 278.741 337.936C277.925 336.448 276.797 335.296 275.357 334.48C273.917 333.616 272.237 333.184 270.317 333.184C268.397 333.184 266.693 333.616 265.205 334.48C263.765 335.296 262.637 336.472 261.821 338.008C261.005 339.496 260.597 341.272 260.597 343.336V345.064C260.597 347.176 261.053 349.048 261.965 350.68C262.925 352.264 264.245 353.488 265.925 354.352C267.653 355.168 269.669 355.576 271.973 355.576C274.037 355.576 275.837 355.264 277.373 354.64C278.957 354.016 280.397 353.08 281.693 351.832L287.669 358.312C285.893 360.328 283.661 361.888 280.973 362.992C278.285 364.048 275.189 364.576 271.685 364.576ZM297.883 364V310.576H309.115V364H297.883ZM363.69 364V356.44L362.97 354.784V341.248C362.97 338.848 362.226 336.976 360.738 335.632C359.298 334.288 357.066 333.616 354.042 333.616C351.978 333.616 349.938 333.952 347.922 334.624C345.954 335.248 344.274 336.112 342.882 337.216L338.85 329.368C340.962 327.88 343.506 326.728 346.482 325.912C349.458 325.096 352.482 324.688 355.554 324.688C361.458 324.688 366.042 326.08 369.306 328.864C372.57 331.648 374.202 335.992 374.202 341.896V364H363.69ZM351.882 364.576C348.858 364.576 346.266 364.072 344.106 363.064C341.946 362.008 340.29 360.592 339.138 358.816C337.986 357.04 337.41 355.048 337.41 352.84C337.41 350.536 337.962 348.52 339.066 346.792C340.218 345.064 342.018 343.72 344.466 342.76C346.914 341.752 350.106 341.248 354.042 341.248H364.338V347.8H355.266C352.626 347.8 350.802 348.232 349.794 349.096C348.834 349.96 348.354 351.04 348.354 352.336C348.354 353.776 348.906 354.928 350.01 355.792C351.162 356.608 352.722 357.016 354.69 357.016C356.562 357.016 358.242 356.584 359.73 355.72C361.218 354.808 362.298 353.488 362.97 351.76L364.698 356.944C363.882 359.44 362.394 361.336 360.234 362.632C358.074 363.928 355.29 364.576 351.882 364.576ZM407.912 324.688C410.984 324.688 413.72 325.312 416.12 326.56C418.568 327.76 420.488 329.632 421.88 332.176C423.272 334.672 423.968 337.888 423.968 341.824V364H412.736V343.552C412.736 340.432 412.04 338.128 410.648 336.64C409.304 335.152 407.384 334.408 404.888 334.408C403.112 334.408 401.504 334.792 400.064 335.56C398.672 336.28 397.568 337.408 396.752 338.944C395.984 340.48 395.6 342.448 395.6 344.848V364H384.368V325.264H395.096V335.992L393.08 332.752C394.472 330.16 396.464 328.168 399.056 326.776C401.648 325.384 404.6 324.688 407.912 324.688ZM409.64 320.512C408.392 320.512 407.288 320.296 406.328 319.864C405.368 319.384 404.504 318.856 403.736 318.28C402.968 317.656 402.248 317.128 401.576 316.696C400.904 316.216 400.232 315.976 399.56 315.976C398.6 315.976 397.808 316.336 397.184 317.056C396.56 317.728 396.2 318.712 396.104 320.008H390.416C390.512 316.792 391.304 314.248 392.792 312.376C394.28 310.456 396.296 309.496 398.84 309.496C400.088 309.496 401.192 309.736 402.152 310.216C403.112 310.648 403.976 311.176 404.744 311.8C405.56 312.424 406.304 312.976 406.976 313.456C407.648 313.888 408.296 314.104 408.92 314.104C409.928 314.104 410.744 313.768 411.368 313.096C411.992 312.376 412.328 311.416 412.376 310.216H418.064C418.016 313.288 417.224 315.784 415.688 317.704C414.2 319.576 412.184 320.512 409.64 320.512ZM452.862 364.576C448.734 364.576 445.062 363.712 441.846 361.984C438.678 360.256 436.158 357.904 434.286 354.928C432.462 351.904 431.55 348.472 431.55 344.632C431.55 340.744 432.462 337.312 434.286 334.336C436.158 331.312 438.678 328.96 441.846 327.28C445.062 325.552 448.734 324.688 452.862 324.688C456.942 324.688 460.59 325.552 463.806 327.28C467.022 328.96 469.542 331.288 471.366 334.264C473.19 337.24 474.102 340.696 474.102 344.632C474.102 348.472 473.19 351.904 471.366 354.928C469.542 357.904 467.022 360.256 463.806 361.984C460.59 363.712 456.942 364.576 452.862 364.576ZM452.862 355.36C454.734 355.36 456.414 354.928 457.902 354.064C459.39 353.2 460.566 351.976 461.43 350.392C462.294 348.76 462.726 346.84 462.726 344.632C462.726 342.376 462.294 340.456 461.43 338.872C460.566 337.288 459.39 336.064 457.902 335.2C456.414 334.336 454.734 333.904 452.862 333.904C450.99 333.904 449.31 334.336 447.822 335.2C446.334 336.064 445.134 337.288 444.222 338.872C443.358 340.456 442.926 342.376 442.926 344.632C442.926 346.84 443.358 348.76 444.222 350.392C445.134 351.976 446.334 353.2 447.822 354.064C449.31 354.928 450.99 355.36 452.862 355.36ZM499.192 364V356.44L518.632 338.08C520.168 336.688 521.296 335.44 522.016 334.336C522.736 333.232 523.216 332.224 523.456 331.312C523.744 330.4 523.888 329.56 523.888 328.792C523.888 326.776 523.192 325.24 521.8 324.184C520.456 323.08 518.464 322.528 515.824 322.528C513.712 322.528 511.744 322.936 509.92 323.752C508.144 324.568 506.632 325.84 505.384 327.568L496.888 322.096C498.808 319.216 501.496 316.936 504.952 315.256C508.408 313.576 512.392 312.736 516.904 312.736C520.648 312.736 523.912 313.36 526.696 314.608C529.528 315.808 531.712 317.512 533.248 319.72C534.832 321.928 535.624 324.568 535.624 327.64C535.624 329.272 535.408 330.904 534.976 332.536C534.592 334.12 533.776 335.8 532.528 337.576C531.328 339.352 529.552 341.344 527.2 343.552L511.072 358.744L508.84 354.496H537.28V364H499.192ZM563.693 364.864C559.565 364.864 555.869 363.856 552.605 361.84C549.341 359.776 546.773 356.8 544.901 352.912C543.029 349.024 542.093 344.32 542.093 338.8C542.093 333.28 543.029 328.576 544.901 324.688C546.773 320.8 549.341 317.848 552.605 315.832C555.869 313.768 559.565 312.736 563.693 312.736C567.869 312.736 571.565 313.768 574.781 315.832C578.045 317.848 580.613 320.8 582.485 324.688C584.357 328.576 585.293 333.28 585.293 338.8C585.293 344.32 584.357 349.024 582.485 352.912C580.613 356.8 578.045 359.776 574.781 361.84C571.565 363.856 567.869 364.864 563.693 364.864ZM563.693 355C565.661 355 567.365 354.448 568.805 353.344C570.293 352.24 571.445 350.488 572.261 348.088C573.125 345.688 573.557 342.592 573.557 338.8C573.557 335.008 573.125 331.912 572.261 329.512C571.445 327.112 570.293 325.36 568.805 324.256C567.365 323.152 565.661 322.6 563.693 322.6C561.773 322.6 560.069 323.152 558.581 324.256C557.141 325.36 555.989 327.112 555.125 329.512C554.309 331.912 553.901 335.008 553.901 338.8C553.901 342.592 554.309 345.688 555.125 348.088C555.989 350.488 557.141 352.24 558.581 353.344C560.069 354.448 561.773 355 563.693 355ZM598.455 364V317.92L603.495 322.96H588.375V313.6H610.119V364H598.455ZM636.586 312.736C641.242 312.736 645.25 313.696 648.61 315.616C651.97 317.536 654.562 320.344 656.386 324.04C658.21 327.688 659.122 332.248 659.122 337.72C659.122 343.528 658.018 348.448 655.81 352.48C653.65 356.512 650.65 359.584 646.81 361.696C642.97 363.808 638.506 364.864 633.418 364.864C630.778 364.864 628.234 364.576 625.786 364C623.338 363.424 621.226 362.56 619.45 361.408L623.77 352.84C625.162 353.8 626.65 354.472 628.234 354.856C629.818 355.192 631.474 355.36 633.202 355.36C637.522 355.36 640.954 354.04 643.498 351.4C646.09 348.76 647.386 344.848 647.386 339.664C647.386 338.8 647.362 337.84 647.314 336.784C647.266 335.728 647.146 334.672 646.954 333.616L650.122 336.64C649.306 338.512 648.154 340.096 646.666 341.392C645.178 342.64 643.45 343.6 641.482 344.272C639.514 344.896 637.306 345.208 634.858 345.208C631.642 345.208 628.714 344.56 626.074 343.264C623.482 341.968 621.394 340.144 619.81 337.792C618.274 335.44 617.506 332.68 617.506 329.512C617.506 326.056 618.346 323.08 620.026 320.584C621.754 318.088 624.058 316.168 626.938 314.824C629.866 313.432 633.082 312.736 636.586 312.736ZM637.306 321.448C635.626 321.448 634.162 321.76 632.914 322.384C631.666 322.96 630.682 323.824 629.962 324.976C629.242 326.08 628.882 327.4 628.882 328.936C628.882 331.24 629.65 333.088 631.186 334.48C632.77 335.824 634.858 336.496 637.45 336.496C639.13 336.496 640.618 336.184 641.914 335.56C643.258 334.888 644.29 333.976 645.01 332.824C645.73 331.672 646.09 330.376 646.09 328.936C646.09 327.496 645.73 326.224 645.01 325.12C644.338 323.968 643.354 323.08 642.058 322.456C640.762 321.784 639.178 321.448 637.306 321.448Z" fill="#7286D3"/>
</svg>
