<svg width="381" height="356" viewBox="0 0 381 356" fill="none" xmlns="http://www.w3.org/2000/svg">
<path d="M20.8121 55V15.808H5.35608V6.7H47.4461V15.808H31.9901V55H20.8121ZM67.5558 55.552C64.4738 55.552 61.7138 54.954 59.2758 53.758C56.8838 52.562 55.0208 50.745 53.6868 48.307C52.3528 45.823 51.6858 42.672 51.6858 38.854V17.878H62.4498V37.267C62.4498 40.349 63.0938 42.626 64.3818 44.098C65.7158 45.524 67.5788 46.237 69.9708 46.237C71.6268 46.237 73.0988 45.892 74.3868 45.202C75.6748 44.466 76.6868 43.362 77.4228 41.89C78.1588 40.372 78.5268 38.486 78.5268 36.232V17.878H89.2908V55H79.0788V44.788L80.9418 47.755C79.6998 50.331 77.8598 52.286 75.4218 53.62C73.0298 54.908 70.4078 55.552 67.5558 55.552ZM133.984 55.552C129.614 55.552 126.21 54.448 123.772 52.24C121.334 49.986 120.115 46.651 120.115 42.235V9.667H130.879V42.097C130.879 43.661 131.293 44.88 132.121 45.754C132.949 46.582 134.076 46.996 135.502 46.996C137.204 46.996 138.653 46.536 139.849 45.616L142.747 53.206C141.643 53.988 140.309 54.586 138.745 55C137.227 55.368 135.64 55.552 133.984 55.552ZM114.388 26.986V18.706H140.125V26.986H114.388ZM148.789 55V17.878H159.07V28.366L157.621 25.33C158.725 22.708 160.496 20.73 162.934 19.396C165.372 18.016 168.339 17.326 171.835 17.326V27.262C171.375 27.216 170.961 27.193 170.593 27.193C170.225 27.147 169.834 27.124 169.42 27.124C166.476 27.124 164.084 27.975 162.244 29.677C160.45 31.333 159.553 33.932 159.553 37.474V55H148.789ZM198.58 55V47.755L197.89 46.168V33.196C197.89 30.896 197.177 29.102 195.751 27.814C194.371 26.526 192.232 25.882 189.334 25.882C187.356 25.882 185.401 26.204 183.469 26.848C181.583 27.446 179.973 28.274 178.639 29.332L174.775 21.811C176.799 20.385 179.237 19.281 182.089 18.499C184.941 17.717 187.839 17.326 190.783 17.326C196.441 17.326 200.834 18.66 203.962 21.328C207.09 23.996 208.654 28.159 208.654 33.817V55H198.58ZM187.264 55.552C184.366 55.552 181.882 55.069 179.812 54.103C177.742 53.091 176.155 51.734 175.051 50.032C173.947 48.33 173.395 46.421 173.395 44.305C173.395 42.097 173.924 40.165 174.982 38.509C176.086 36.853 177.811 35.565 180.157 34.645C182.503 33.679 185.562 33.196 189.334 33.196H199.201V39.475H190.507C187.977 39.475 186.229 39.889 185.263 40.717C184.343 41.545 183.883 42.58 183.883 43.822C183.883 45.202 184.412 46.306 185.47 47.134C186.574 47.916 188.069 48.307 189.955 48.307C191.749 48.307 193.359 47.893 194.785 47.065C196.211 46.191 197.246 44.926 197.89 43.27L199.546 48.238C198.764 50.63 197.338 52.447 195.268 53.689C193.198 54.931 190.53 55.552 187.264 55.552ZM185.608 13.117L194.923 3.181H206.515L194.026 13.117H185.608ZM265.937 17.326C268.881 17.326 271.48 17.924 273.734 19.12C276.034 20.27 277.828 22.064 279.116 24.502C280.45 26.894 281.117 29.976 281.117 33.748V55H270.353V35.404C270.353 32.414 269.732 30.206 268.49 28.78C267.248 27.354 265.5 26.641 263.246 26.641C261.682 26.641 260.279 27.009 259.037 27.745C257.795 28.435 256.829 29.493 256.139 30.919C255.449 32.345 255.104 34.162 255.104 36.37V55H244.34V35.404C244.34 32.414 243.719 30.206 242.477 28.78C241.281 27.354 239.556 26.641 237.302 26.641C235.738 26.641 234.335 27.009 233.093 27.745C231.851 28.435 230.885 29.493 230.195 30.919C229.505 32.345 229.16 34.162 229.16 36.37V55H218.396V17.878H228.677V28.021L226.745 25.054C228.033 22.524 229.85 20.615 232.196 19.327C234.588 17.993 237.302 17.326 240.338 17.326C243.742 17.326 246.709 18.2 249.239 19.948C251.815 21.65 253.517 24.272 254.345 27.814L250.55 26.779C251.792 23.881 253.77 21.581 256.484 19.879C259.244 18.177 262.395 17.326 265.937 17.326ZM290.765 55V17.878H301.529V55H290.765ZM296.147 12.703C294.169 12.703 292.559 12.128 291.317 10.978C290.075 9.828 289.454 8.402 289.454 6.7C289.454 4.998 290.075 3.572 291.317 2.422C292.559 1.272 294.169 0.696996 296.147 0.696996C298.125 0.696996 299.735 1.249 300.977 2.353C302.219 3.411 302.84 4.791 302.84 6.493C302.84 8.287 302.219 9.782 300.977 10.978C299.781 12.128 298.171 12.703 296.147 12.703ZM326.699 55.552C322.329 55.552 318.925 54.448 316.487 52.24C314.049 49.986 312.83 46.651 312.83 42.235V9.667H323.594V42.097C323.594 43.661 324.008 44.88 324.836 45.754C325.664 46.582 326.791 46.996 328.217 46.996C329.919 46.996 331.368 46.536 332.564 45.616L335.462 53.206C334.358 53.988 333.024 54.586 331.46 55C329.942 55.368 328.355 55.552 326.699 55.552ZM307.103 26.986V18.706H332.84V26.986H307.103ZM358.782 55.552C354.55 55.552 350.824 54.724 347.604 53.068C344.43 51.412 341.969 49.158 340.221 46.306C338.473 43.408 337.599 40.119 337.599 36.439C337.599 32.713 338.45 29.424 340.152 26.572C341.9 23.674 344.269 21.42 347.259 19.81C350.249 18.154 353.63 17.326 357.402 17.326C361.036 17.326 364.302 18.108 367.2 19.672C370.144 21.19 372.467 23.398 374.169 26.296C375.871 29.148 376.722 32.575 376.722 36.577C376.722 36.991 376.699 37.474 376.653 38.026C376.607 38.532 376.561 39.015 376.515 39.475H346.362V33.196H370.857L366.717 35.059C366.717 33.127 366.326 31.448 365.544 30.022C364.762 28.596 363.681 27.492 362.301 26.71C360.921 25.882 359.311 25.468 357.471 25.468C355.631 25.468 353.998 25.882 352.572 26.71C351.192 27.492 350.111 28.619 349.329 30.091C348.547 31.517 348.156 33.219 348.156 35.197V36.853C348.156 38.877 348.593 40.671 349.467 42.235C350.387 43.753 351.652 44.926 353.262 45.754C354.918 46.536 356.85 46.927 359.058 46.927C361.036 46.927 362.761 46.628 364.233 46.03C365.751 45.432 367.131 44.535 368.373 43.339L374.1 49.549C372.398 51.481 370.259 52.976 367.683 54.034C365.107 55.046 362.14 55.552 358.782 55.552ZM8.62383 144V69.8H24.2238V144H8.62383ZM38.702 144V90.2H54.302V144H38.702ZM46.502 82.7C43.6353 82.7 41.302 81.8667 39.502 80.2C37.702 78.5333 36.802 76.4667 36.802 74C36.802 71.5333 37.702 69.4667 39.502 67.8C41.302 66.1333 43.6353 65.3 46.502 65.3C49.3686 65.3 51.702 66.1 53.502 67.7C55.302 69.2333 56.202 71.2333 56.202 73.7C56.202 76.3 55.302 78.4667 53.502 80.2C51.7686 81.8667 49.4353 82.7 46.502 82.7ZM86.8801 144.8C82.2801 144.8 77.8467 144.267 73.5801 143.2C69.3801 142.067 66.0467 140.667 63.5801 139L68.7801 127.8C71.2467 129.333 74.1467 130.6 77.4801 131.6C80.8801 132.533 84.2134 133 87.4801 133C91.0801 133 93.6134 132.567 95.0801 131.7C96.6134 130.833 97.3801 129.633 97.3801 128.1C97.3801 126.833 96.7801 125.9 95.5801 125.3C94.4467 124.633 92.9134 124.133 90.9801 123.8C89.0467 123.467 86.9134 123.133 84.5801 122.8C82.3134 122.467 80.0134 122.033 77.6801 121.5C75.3467 120.9 73.2134 120.033 71.2801 118.9C69.3467 117.767 67.7801 116.233 66.5801 114.3C65.4467 112.367 64.8801 109.867 64.8801 106.8C64.8801 103.4 65.8467 100.4 67.7801 97.8C69.7801 95.2 72.6467 93.1667 76.3801 91.7C80.1134 90.1667 84.5801 89.4 89.7801 89.4C93.4467 89.4 97.1801 89.8 100.98 90.6C104.78 91.4 107.947 92.5667 110.48 94.1L105.28 105.2C102.68 103.667 100.047 102.633 97.3801 102.1C94.7801 101.5 92.2467 101.2 89.7801 101.2C86.3134 101.2 83.7801 101.667 82.1801 102.6C80.5801 103.533 79.7801 104.733 79.7801 106.2C79.7801 107.533 80.3467 108.533 81.4801 109.2C82.6801 109.867 84.2467 110.4 86.1801 110.8C88.1134 111.2 90.2134 111.567 92.4801 111.9C94.8134 112.167 97.1467 112.6 99.4801 113.2C101.813 113.8 103.913 114.667 105.78 115.8C107.713 116.867 109.28 118.367 110.48 120.3C111.68 122.167 112.28 124.633 112.28 127.7C112.28 131.033 111.28 134 109.28 136.6C107.28 139.133 104.38 141.133 100.58 142.6C96.8467 144.067 92.2801 144.8 86.8801 144.8ZM143.905 144.8C137.572 144.8 132.638 143.2 129.105 140C125.572 136.733 123.805 131.9 123.805 125.5V78.3H139.405V125.3C139.405 127.567 140.005 129.333 141.205 130.6C142.405 131.8 144.038 132.4 146.105 132.4C148.572 132.4 150.672 131.733 152.405 130.4L156.605 141.4C155.005 142.533 153.072 143.4 150.805 144C148.605 144.533 146.305 144.8 143.905 144.8ZM115.505 103.4V91.4H152.805V103.4H115.505ZM189.302 144.8C183.569 144.8 178.469 143.6 174.002 141.2C169.602 138.8 166.102 135.533 163.502 131.4C160.969 127.2 159.702 122.433 159.702 117.1C159.702 111.7 160.969 106.933 163.502 102.8C166.102 98.6 169.602 95.3333 174.002 93C178.469 90.6 183.569 89.4 189.302 89.4C194.969 89.4 200.035 90.6 204.502 93C208.969 95.3333 212.469 98.5667 215.002 102.7C217.535 106.833 218.802 111.633 218.802 117.1C218.802 122.433 217.535 127.2 215.002 131.4C212.469 135.533 208.969 138.8 204.502 141.2C200.035 143.6 194.969 144.8 189.302 144.8ZM189.302 132C191.902 132 194.235 131.4 196.302 130.2C198.369 129 200.002 127.3 201.202 125.1C202.402 122.833 203.002 120.167 203.002 117.1C203.002 113.967 202.402 111.3 201.202 109.1C200.002 106.9 198.369 105.2 196.302 104C194.235 102.8 191.902 102.2 189.302 102.2C186.702 102.2 184.369 102.8 182.302 104C180.235 105.2 178.569 106.9 177.302 109.1C176.102 111.3 175.502 113.967 175.502 117.1C175.502 120.167 176.102 122.833 177.302 125.1C178.569 127.3 180.235 129 182.302 130.2C184.369 131.4 186.702 132 189.302 132ZM284.25 144.8C278.116 144.8 272.716 143.6 268.05 141.2C263.45 138.8 259.883 135.533 257.35 131.4C254.816 127.2 253.55 122.433 253.55 117.1C253.55 111.7 254.783 106.933 257.25 102.8C259.783 98.6 263.216 95.3333 267.55 93C271.883 90.6 276.783 89.4 282.25 89.4C287.516 89.4 292.25 90.5333 296.45 92.8C300.716 95 304.083 98.2 306.55 102.4C309.016 106.533 310.25 111.5 310.25 117.3C310.25 117.9 310.216 118.6 310.15 119.4C310.083 120.133 310.016 120.833 309.95 121.5H266.25V112.4H301.75L295.75 115.1C295.75 112.3 295.183 109.867 294.05 107.8C292.916 105.733 291.35 104.133 289.35 103C287.35 101.8 285.016 101.2 282.35 101.2C279.683 101.2 277.316 101.8 275.25 103C273.25 104.133 271.683 105.767 270.55 107.9C269.416 109.967 268.85 112.433 268.85 115.3V117.7C268.85 120.633 269.483 123.233 270.75 125.5C272.083 127.7 273.916 129.4 276.25 130.6C278.65 131.733 281.45 132.3 284.65 132.3C287.516 132.3 290.016 131.867 292.15 131C294.35 130.133 296.35 128.833 298.15 127.1L306.45 136.1C303.983 138.9 300.883 141.067 297.15 142.6C293.416 144.067 289.116 144.8 284.25 144.8ZM353.336 89.4C357.602 89.4 361.402 90.2667 364.736 92C368.136 93.6667 370.802 96.2667 372.736 99.8C374.669 103.267 375.636 107.733 375.636 113.2V144H360.036V115.6C360.036 111.267 359.069 108.067 357.136 106C355.269 103.933 352.602 102.9 349.136 102.9C346.669 102.9 344.436 103.433 342.436 104.5C340.502 105.5 338.969 107.067 337.836 109.2C336.769 111.333 336.236 114.067 336.236 117.4V144H320.636V90.2H335.536V105.1L332.736 100.6C334.669 97 337.436 94.2333 341.036 92.3C344.636 90.3667 348.736 89.4 353.336 89.4Z" fill="#747474"/>
<path d="M34.2278 258.524C28.0471 258.524 21.9088 257.72 15.8128 256.111C9.7168 254.418 4.55213 252.047 0.318801 248.999L8.3198 233.251C11.7065 235.706 15.6435 237.654 20.1308 239.093C24.6181 240.532 29.1478 241.252 33.7198 241.252C38.8845 241.252 42.9485 240.236 45.9118 238.204C48.8751 236.172 50.3568 233.378 50.3568 229.822C50.3568 226.435 49.0445 223.768 46.4198 221.821C43.7951 219.874 39.5618 218.9 33.7198 218.9H24.3218V205.311L49.0868 177.244L51.3728 184.61H4.7638V168.1H66.9938V181.435L42.3558 209.502L31.9418 203.533H37.9108C48.8328 203.533 57.0878 205.988 62.6758 210.899C68.2638 215.81 71.0578 222.117 71.0578 229.822C71.0578 234.817 69.7455 239.516 67.1208 243.919C64.4961 248.237 60.4745 251.751 55.0558 254.46C49.6371 257.169 42.6945 258.524 34.2278 258.524ZM150.052 258.016C143.617 258.016 137.817 256.577 132.653 253.698C127.488 250.735 123.382 246.628 120.334 241.379C117.37 236.13 115.889 229.949 115.889 222.837C115.889 215.64 117.37 209.417 120.334 204.168C123.382 198.919 127.488 194.855 132.653 191.976C137.817 189.097 143.617 187.658 150.052 187.658C155.809 187.658 160.847 188.928 165.165 191.468C169.483 194.008 172.827 197.86 175.198 203.025C177.568 208.19 178.754 214.794 178.754 222.837C178.754 230.796 177.611 237.4 175.325 242.649C173.039 247.814 169.737 251.666 165.419 254.206C161.185 256.746 156.063 258.016 150.052 258.016ZM153.481 241.76C156.698 241.76 159.619 240.998 162.244 239.474C164.868 237.95 166.943 235.791 168.467 232.997C170.075 230.118 170.88 226.732 170.88 222.837C170.88 218.858 170.075 215.471 168.467 212.677C166.943 209.883 164.868 207.724 162.244 206.2C159.619 204.676 156.698 203.914 153.481 203.914C150.179 203.914 147.215 204.676 144.591 206.2C141.966 207.724 139.849 209.883 138.241 212.677C136.717 215.471 135.955 218.858 135.955 222.837C135.955 226.732 136.717 230.118 138.241 232.997C139.849 235.791 141.966 237.95 144.591 239.474C147.215 240.998 150.179 241.76 153.481 241.76ZM171.388 257V243.03L171.769 222.71L170.499 202.517V162.766H190.311V257H171.388ZM208.647 257V188.674H228.459V257H208.647ZM206.996 179.911L224.141 161.623H245.477L222.49 179.911H206.996ZM288.757 257V243.665L287.487 240.744V216.868C287.487 212.635 286.174 209.333 283.55 206.962C281.01 204.591 277.073 203.406 271.739 203.406C268.098 203.406 264.5 203.999 260.944 205.184C257.472 206.285 254.509 207.809 252.054 209.756L244.942 195.913C248.667 193.288 253.154 191.256 258.404 189.817C263.653 188.378 268.987 187.658 274.406 187.658C284.82 187.658 292.905 190.113 298.663 195.024C304.42 199.935 307.299 207.597 307.299 218.011V257H288.757ZM267.929 258.016C262.595 258.016 258.023 257.127 254.213 255.349C250.403 253.486 247.482 250.989 245.45 247.856C243.418 244.723 242.402 241.21 242.402 237.315C242.402 233.251 243.375 229.695 245.323 226.647C247.355 223.599 250.53 221.228 254.848 219.535C259.166 217.757 264.796 216.868 271.739 216.868H289.9V228.425H273.898C269.241 228.425 266.024 229.187 264.246 230.711C262.552 232.235 261.706 234.14 261.706 236.426C261.706 238.966 262.679 240.998 264.627 242.522C266.659 243.961 269.41 244.681 272.882 244.681C276.184 244.681 279.147 243.919 281.772 242.395C284.396 240.786 286.301 238.458 287.487 235.41L290.535 244.554C289.095 248.957 286.471 252.301 282.661 254.587C278.851 256.873 273.94 258.016 267.929 258.016ZM348.216 258.016C342.374 258.016 336.744 257.339 331.325 255.984C325.991 254.545 321.758 252.767 318.625 250.65L325.229 236.426C328.362 238.373 332.045 239.982 336.278 241.252C340.596 242.437 344.83 243.03 348.978 243.03C353.55 243.03 356.768 242.48 358.63 241.379C360.578 240.278 361.551 238.754 361.551 236.807C361.551 235.198 360.789 234.013 359.265 233.251C357.826 232.404 355.879 231.769 353.423 231.346C350.968 230.923 348.259 230.499 345.295 230.076C342.417 229.653 339.496 229.102 336.532 228.425C333.569 227.663 330.86 226.562 328.404 225.123C325.949 223.684 323.959 221.736 322.435 219.281C320.996 216.826 320.276 213.651 320.276 209.756C320.276 205.438 321.504 201.628 323.959 198.326C326.499 195.024 330.14 192.442 334.881 190.579C339.623 188.632 345.295 187.658 351.899 187.658C356.556 187.658 361.297 188.166 366.123 189.182C370.949 190.198 374.971 191.68 378.188 193.627L371.584 207.724C368.282 205.777 364.938 204.464 361.551 203.787C358.249 203.025 355.032 202.644 351.899 202.644C347.497 202.644 344.279 203.237 342.247 204.422C340.215 205.607 339.199 207.131 339.199 208.994C339.199 210.687 339.919 211.957 341.358 212.804C342.882 213.651 344.872 214.328 347.327 214.836C349.783 215.344 352.45 215.81 355.328 216.233C358.292 216.572 361.255 217.122 364.218 217.884C367.182 218.646 369.849 219.747 372.219 221.186C374.675 222.541 376.664 224.446 378.188 226.901C379.712 229.272 380.474 232.404 380.474 236.299C380.474 240.532 379.204 244.3 376.664 247.602C374.124 250.819 370.441 253.359 365.615 255.222C360.874 257.085 355.074 258.016 348.216 258.016ZM45.2476 300.946C49.4716 300.946 53.2336 301.804 56.5336 303.52C59.8996 305.17 62.5396 307.744 64.4536 311.242C66.3676 314.674 67.3246 319.096 67.3246 324.508V355H51.8806V326.884C51.8806 322.594 50.9236 319.426 49.0096 317.38C47.1616 315.334 44.5216 314.311 41.0896 314.311C38.6476 314.311 36.4366 314.839 34.4566 315.895C32.5426 316.885 31.0246 318.436 29.9026 320.548C28.8466 322.66 28.3186 325.366 28.3186 328.666V355H12.8746V281.542H28.3186V316.489L24.8536 312.034C26.7676 308.47 29.5066 305.731 33.0706 303.817C36.6346 301.903 40.6936 300.946 45.2476 300.946ZM113.994 355V344.605L113.004 342.328V323.716C113.004 320.416 111.981 317.842 109.935 315.994C107.955 314.146 104.886 313.222 100.728 313.222C97.8898 313.222 95.0848 313.684 92.3128 314.608C89.6068 315.466 87.2968 316.654 85.3828 318.172L79.8388 307.381C82.7428 305.335 86.2408 303.751 90.3328 302.629C94.4248 301.507 98.5828 300.946 102.807 300.946C110.925 300.946 117.228 302.86 121.716 306.688C126.204 310.516 128.448 316.489 128.448 324.607V355H113.994ZM97.7578 355.792C93.5998 355.792 90.0358 355.099 87.0658 353.713C84.0958 352.261 81.8188 350.314 80.2348 347.872C78.6508 345.43 77.8588 342.691 77.8588 339.655C77.8588 336.487 78.6178 333.715 80.1358 331.339C81.7198 328.963 84.1948 327.115 87.5608 325.795C90.9268 324.409 95.3158 323.716 100.728 323.716H114.885V332.725H102.411C98.7808 332.725 96.2728 333.319 94.8868 334.507C93.5668 335.695 92.9068 337.18 92.9068 338.962C92.9068 340.942 93.6658 342.526 95.1838 343.714C96.7678 344.836 98.9128 345.397 101.619 345.397C104.193 345.397 106.503 344.803 108.549 343.615C110.595 342.361 112.08 340.546 113.004 338.17L115.38 345.298C114.258 348.73 112.212 351.337 109.242 353.119C106.272 354.901 102.444 355.792 97.7578 355.792ZM95.3818 294.907L108.747 280.651H125.379L107.46 294.907H95.3818ZM173.907 355.792C169.221 355.792 165.195 354.802 161.829 352.822C158.463 350.842 155.889 347.839 154.107 343.813C152.325 339.721 151.434 334.573 151.434 328.369C151.434 322.099 152.358 316.951 154.206 312.925C156.12 308.899 158.76 305.896 162.126 303.916C165.492 301.936 169.419 300.946 173.907 300.946C178.923 300.946 183.411 302.068 187.371 304.312C191.397 306.556 194.565 309.724 196.875 313.816C199.251 317.908 200.439 322.759 200.439 328.369C200.439 333.913 199.251 338.731 196.875 342.823C194.565 346.915 191.397 350.116 187.371 352.426C183.411 354.67 178.923 355.792 173.907 355.792ZM142.425 355V281.542H157.869V312.529L156.879 328.27L157.176 344.11V355H142.425ZM171.234 343.12C173.808 343.12 176.085 342.526 178.065 341.338C180.111 340.15 181.728 338.467 182.916 336.289C184.17 334.045 184.797 331.405 184.797 328.369C184.797 325.267 184.17 322.627 182.916 320.449C181.728 318.271 180.111 316.588 178.065 315.4C176.085 314.212 173.808 313.618 171.234 313.618C168.66 313.618 166.35 314.212 164.304 315.4C162.258 316.588 160.641 318.271 159.453 320.449C158.265 322.627 157.671 325.267 157.671 328.369C157.671 331.405 158.265 334.045 159.453 336.289C160.641 338.467 162.258 340.15 164.304 341.338C166.35 342.526 168.66 343.12 171.234 343.12ZM210.778 355V301.738H226.222V355H210.778ZM218.5 294.313C215.662 294.313 213.352 293.488 211.57 291.838C209.788 290.188 208.897 288.142 208.897 285.7C208.897 283.258 209.788 281.212 211.57 279.562C213.352 277.912 215.662 277.087 218.5 277.087C221.338 277.087 223.648 277.879 225.43 279.463C227.212 280.981 228.103 282.961 228.103 285.403C228.103 287.977 227.212 290.122 225.43 291.838C223.714 293.488 221.404 294.313 218.5 294.313ZM240.555 355V281.542H255.999V355H240.555ZM296.766 355.792C290.694 355.792 285.348 354.604 280.728 352.228C276.174 349.852 272.643 346.618 270.135 342.526C267.627 338.368 266.373 333.649 266.373 328.369C266.373 323.023 267.594 318.304 270.036 314.212C272.544 310.054 275.943 306.82 280.233 304.51C284.523 302.134 289.374 300.946 294.786 300.946C300 300.946 304.686 302.068 308.844 304.312C313.068 306.49 316.401 309.658 318.843 313.816C321.285 317.908 322.506 322.825 322.506 328.567C322.506 329.161 322.473 329.854 322.407 330.646C322.341 331.372 322.275 332.065 322.209 332.725H278.946V323.716H314.091L308.151 326.389C308.151 323.617 307.59 321.208 306.468 319.162C305.346 317.116 303.795 315.532 301.815 314.41C299.835 313.222 297.525 312.628 294.885 312.628C292.245 312.628 289.902 313.222 287.856 314.41C285.876 315.532 284.325 317.149 283.203 319.261C282.081 321.307 281.52 323.749 281.52 326.587V328.963C281.52 331.867 282.147 334.441 283.401 336.685C284.721 338.863 286.536 340.546 288.846 341.734C291.222 342.856 293.994 343.417 297.162 343.417C300 343.417 302.475 342.988 304.587 342.13C306.765 341.272 308.745 339.985 310.527 338.269L318.744 347.179C316.302 349.951 313.233 352.096 309.537 353.614C305.841 355.066 301.584 355.792 296.766 355.792ZM350.707 355.792C346.153 355.792 341.764 355.264 337.54 354.208C333.382 353.086 330.082 351.7 327.64 350.05L332.788 338.962C335.23 340.48 338.101 341.734 341.401 342.724C344.767 343.648 348.067 344.11 351.301 344.11C354.865 344.11 357.373 343.681 358.825 342.823C360.343 341.965 361.102 340.777 361.102 339.259C361.102 338.005 360.508 337.081 359.32 336.487C358.198 335.827 356.68 335.332 354.766 335.002C352.852 334.672 350.74 334.342 348.43 334.012C346.186 333.682 343.909 333.253 341.599 332.725C339.289 332.131 337.177 331.273 335.263 330.151C333.349 329.029 331.798 327.511 330.61 325.597C329.488 323.683 328.927 321.208 328.927 318.172C328.927 314.806 329.884 311.836 331.798 309.262C333.778 306.688 336.616 304.675 340.312 303.223C344.008 301.705 348.43 300.946 353.578 300.946C357.208 300.946 360.904 301.342 364.666 302.134C368.428 302.926 371.563 304.081 374.071 305.599L368.923 316.588C366.349 315.07 363.742 314.047 361.102 313.519C358.528 312.925 356.02 312.628 353.578 312.628C350.146 312.628 347.638 313.09 346.054 314.014C344.47 314.938 343.678 316.126 343.678 317.578C343.678 318.898 344.239 319.888 345.361 320.548C346.549 321.208 348.1 321.736 350.014 322.132C351.928 322.528 354.007 322.891 356.251 323.221C358.561 323.485 360.871 323.914 363.181 324.508C365.491 325.102 367.57 325.96 369.418 327.082C371.332 328.138 372.883 329.623 374.071 331.537C375.259 333.385 375.853 335.827 375.853 338.863C375.853 342.163 374.863 345.1 372.883 347.674C370.903 350.182 368.032 352.162 364.27 353.614C360.574 355.066 356.053 355.792 350.707 355.792Z" fill="#7286D3"/>
</svg>
