<?xml version="1.0" encoding="utf-8"?>
<!-- Generator: Adobe Illustrator 28.2.0, SVG Export Plug-In . SVG Version: 6.00 Build 0)  -->
<svg version="1.1" id="Layer_1" xmlns="http://www.w3.org/2000/svg" xmlns:xlink="http://www.w3.org/1999/xlink" x="0px" y="0px"
	 viewBox="0 0 661 365" style="enable-background:new 0 0 661 365;" xml:space="preserve">
<style type="text/css">
	.st0{fill:#747474;}
	.st1{fill:#7286D3;}
</style>
<path class="st0" d="M27,30.1h35.4v13.2H27V30.1z M28.3,60.3h40V74H11.4V0.5h55.5v13.7H28.3V60.3z M72.8,74l25.3-33.2l-0.3,9
	L73.5,17.5h18.4l15.3,21.1l-6.9,0.2l15.9-21.3h17.4l-24.4,32v-8.8L134.4,74h-18.6L99.8,51.5l6.8,0.9L90.6,74H72.8z M175.8,74.8
	c-4.8,0-8.9-1-12.5-3.1c-3.6-2.1-6.4-5.3-8.4-9.6c-2-4.3-2.9-9.8-2.9-16.4c0-6.7,0.9-12.1,2.8-16.4s4.6-7.5,8.2-9.6
	c3.6-2.1,7.8-3.1,12.8-3.1c5.3,0,10.1,1.2,14.3,3.7c4.3,2.4,7.6,5.7,10.1,10.1c2.5,4.3,3.8,9.5,3.8,15.3c0,6-1.3,11.1-3.8,15.4
	c-2.4,4.3-5.8,7.7-10.1,10.1C185.8,73.7,181.1,74.8,175.8,74.8z M142.4,94.4V17.5H158v11.5l-0.3,16.8l1.1,16.7v31.8H142.4z
	 M172.9,61.4c2.7,0,5.1-0.6,7.2-1.9c2.2-1.3,3.9-3,5.1-5.4c1.3-2.4,2-5.2,2-8.4c0-3.3-0.7-6.1-2-8.4c-1.3-2.3-3-4.1-5.1-5.4
	c-2.1-1.3-4.5-1.9-7.2-1.9c-2.7,0-5.2,0.6-7.4,1.9c-2.2,1.3-3.9,3-5.1,5.4c-1.3,2.3-1.9,5.1-1.9,8.4c0,3.2,0.6,6,1.9,8.4
	c1.3,2.3,3,4.1,5.1,5.4C167.8,60.8,170.2,61.4,172.9,61.4z M242.9,74.8c-6.4,0-12.1-1.3-17-3.8c-4.8-2.5-8.6-5.9-11.2-10.3
	c-2.7-4.4-4-9.4-4-15c0-5.7,1.3-10.7,3.9-15c2.7-4.4,6.3-7.8,10.8-10.3c4.6-2.5,9.7-3.8,15.4-3.8c5.5,0,10.5,1.2,14.9,3.6
	c4.5,2.3,8,5.7,10.6,10.1c2.6,4.3,3.9,9.6,3.9,15.6c0,0.6,0,1.4-0.1,2.2c-0.1,0.8-0.1,1.5-0.2,2.2H224v-9.6h37.3l-6.3,2.8
	c0-2.9-0.6-5.5-1.8-7.7c-1.2-2.2-2.8-3.9-4.9-5c-2.1-1.3-4.5-1.9-7.3-1.9s-5.3,0.6-7.5,1.9c-2.1,1.2-3.7,2.9-4.9,5.1
	c-1.2,2.2-1.8,4.8-1.8,7.8v2.5c0,3.1,0.7,5.8,2,8.2c1.4,2.3,3.3,4.1,5.8,5.4c2.5,1.2,5.5,1.8,8.8,1.8c3,0,5.6-0.5,7.9-1.4
	c2.3-0.9,4.4-2.3,6.3-4.1l8.7,9.5c-2.6,2.9-5.8,5.2-9.8,6.8C252.5,74.1,248,74.8,242.9,74.8z M281.1,74V17.5h15.6v16l-2.2-4.6
	c1.7-4,4.4-7,8.1-9c3.7-2.1,8.2-3.1,13.5-3.1v15.1c-0.7-0.1-1.3-0.1-1.9-0.1c-0.6-0.1-1.2-0.1-1.8-0.1c-4.5,0-8.1,1.3-10.9,3.9
	c-2.7,2.5-4.1,6.5-4.1,11.9V74H281.1z M351,74.8c-6.6,0-11.8-1.7-15.5-5c-3.7-3.4-5.6-8.5-5.6-15.2V5h16.4v49.4
	c0,2.4,0.6,4.2,1.9,5.6c1.3,1.3,3,1.9,5.1,1.9c2.6,0,4.8-0.7,6.6-2.1l4.4,11.5c-1.7,1.2-3.7,2.1-6.1,2.7
	C355.9,74.6,353.5,74.8,351,74.8z M321.1,31.4V18.8h39.2v12.6H321.1z M398.6,74.8c-6,0-11.4-1.3-16.1-3.8c-4.6-2.5-8.3-5.9-11-10.3
	c-2.7-4.4-4-9.4-4-15c0-5.7,1.3-10.7,4-15c2.7-4.4,6.4-7.8,11-10.3c4.7-2.5,10-3.8,16.1-3.8c6,0,11.3,1.3,16,3.8
	c4.7,2.4,8.4,5.8,11,10.2s4,9.4,4,15.1c0,5.6-1.3,10.6-4,15c-2.7,4.3-6.3,7.8-11,10.3C409.9,73.6,404.6,74.8,398.6,74.8z
	 M398.6,61.4c2.7,0,5.2-0.6,7.4-1.9c2.2-1.3,3.9-3,5.1-5.4c1.3-2.4,1.9-5.2,1.9-8.4c0-3.3-0.6-6.1-1.9-8.4c-1.3-2.3-3-4.1-5.1-5.4
	c-2.2-1.3-4.6-1.9-7.4-1.9c-2.7,0-5.2,0.6-7.4,1.9c-2.2,1.3-3.9,3-5.2,5.4c-1.3,2.3-1.9,5.1-1.9,8.4c0,3.2,0.6,6,1.9,8.4
	c1.3,2.3,3.1,4.1,5.2,5.4C393.5,60.8,395.9,61.4,398.6,61.4z M459.6,74.8c-4.8,0-9.5-0.6-14-1.7c-4.4-1.2-7.9-2.7-10.5-4.4l5.5-11.8
	c2.6,1.6,5.6,2.9,9.1,4c3.6,1,7.1,1.5,10.5,1.5c3.8,0,6.4-0.5,8-1.4c1.6-0.9,2.4-2.2,2.4-3.8c0-1.3-0.6-2.3-1.9-2.9
	c-1.2-0.7-2.8-1.2-4.8-1.6c-2-0.4-4.3-0.7-6.7-1c-2.4-0.4-4.8-0.8-7.2-1.4c-2.5-0.6-4.7-1.5-6.7-2.7s-3.7-2.8-4.9-4.8
	c-1.2-2-1.8-4.7-1.8-7.9c0-3.6,1-6.7,3-9.4c2.1-2.7,5.1-4.9,9-6.4c3.9-1.6,8.6-2.4,14.1-2.4c3.9,0,7.8,0.4,11.8,1.3s7.3,2.1,10,3.7
	l-5.5,11.7c-2.7-1.6-5.5-2.7-8.3-3.3c-2.7-0.6-5.4-0.9-8-0.9c-3.6,0-6.3,0.5-8,1.5c-1.7,1-2.5,2.2-2.5,3.8c0,1.4,0.6,2.4,1.8,3.1
	c1.3,0.7,2.9,1.3,4.9,1.7c2,0.4,4.2,0.8,6.6,1.2c2.4,0.3,4.9,0.7,7.4,1.4c2.4,0.6,4.7,1.5,6.6,2.7c2,1.1,3.7,2.7,4.9,4.7
	c1.3,2,1.9,4.5,1.9,7.8c0,3.5-1,6.6-3.1,9.3c-2.1,2.7-5.1,4.8-9.1,6.3C470,74.1,465.2,74.8,459.6,74.8z M554.1,74.8
	c-6.4,0-12.1-1.3-17-3.8c-4.8-2.5-8.6-5.9-11.2-10.3c-2.7-4.4-4-9.4-4-15c0-5.7,1.3-10.7,3.9-15c2.7-4.4,6.3-7.8,10.8-10.3
	c4.5-2.5,9.7-3.8,15.4-3.8c5.5,0,10.5,1.2,14.9,3.6c4.5,2.3,8,5.7,10.6,10.1c2.6,4.3,3.9,9.6,3.9,15.6c0,0.6,0,1.4-0.1,2.2
	c-0.1,0.8-0.1,1.5-0.2,2.2h-45.9v-9.6h37.3l-6.3,2.8c0-2.9-0.6-5.5-1.8-7.7c-1.2-2.2-2.8-3.9-4.9-5c-2.1-1.3-4.5-1.9-7.4-1.9
	c-2.8,0-5.3,0.6-7.5,1.9c-2.1,1.2-3.7,2.9-4.9,5.1c-1.2,2.2-1.8,4.8-1.8,7.8v2.5c0,3.1,0.7,5.8,2,8.2c1.4,2.3,3.3,4.1,5.8,5.4
	c2.5,1.2,5.5,1.8,8.8,1.8c3,0,5.6-0.5,7.9-1.4c2.3-0.9,4.4-2.3,6.3-4.1l8.7,9.5c-2.6,2.9-5.8,5.2-9.8,6.8
	C563.7,74.1,559.2,74.8,554.1,74.8z M626.7,16.7c4.5,0,8.5,0.9,12,2.7c3.6,1.8,6.4,4.5,8.4,8.2c2,3.6,3,8.3,3,14.1V74h-16.4V44.2
	c0-4.5-1-7.9-3-10.1c-2-2.2-4.8-3.3-8.4-3.3c-2.6,0-4.9,0.6-7,1.7c-2,1-3.6,2.7-4.8,4.9c-1.1,2.2-1.7,5.1-1.7,8.6V74h-16.4V17.5H608
	v15.6l-2.9-4.7c2-3.8,4.9-6.7,8.7-8.7C617.5,17.7,621.8,16.7,626.7,16.7z M23.9,164.1c-3.5,0-7-0.4-10.3-1.3c-3.3-0.8-6-2.1-8.2-3.8
	l4.3-7.8c1.6,1.3,3.6,2.3,6,3.1c2.5,0.8,4.9,1.2,7.3,1.2c3.9,0,6.7-0.9,8.4-2.6c1.8-1.7,2.7-4.3,2.7-7.7v-5.7l0.7-9.4l-0.1-9.5v-8.1
	H45v31.4c0,7-1.8,12.2-5.5,15.5S30.7,164.1,23.9,164.1z M22.2,148.2c-3.5,0-6.7-0.7-9.5-2.2c-2.8-1.5-5.1-3.7-6.8-6.4
	c-1.7-2.8-2.5-6-2.5-9.6c0-3.7,0.8-6.9,2.5-9.6c1.7-2.8,4-4.9,6.8-6.4c2.8-1.5,6-2.2,9.5-2.2c3.2,0,6,0.7,8.4,2
	c2.4,1.3,4.3,3.2,5.7,6c1.4,2.7,2,6.1,2,10.3c0,4.2-0.7,7.6-2,10.3c-1.4,2.7-3.2,4.6-5.7,5.9C28.2,147.5,25.4,148.2,22.2,148.2z
	 M24.4,139.2c1.9,0,3.6-0.4,5.1-1.1c1.5-0.8,2.7-1.9,3.5-3.3c0.8-1.4,1.3-3,1.3-4.8c0-1.9-0.4-3.5-1.3-4.8c-0.8-1.4-2-2.5-3.5-3.2
	c-1.5-0.8-3.2-1.2-5.1-1.2c-1.9,0-3.6,0.4-5.1,1.2c-1.5,0.7-2.7,1.8-3.6,3.2c-0.8,1.4-1.3,3-1.3,4.8c0,1.8,0.4,3.4,1.3,4.8
	c0.9,1.4,2.1,2.5,3.6,3.3C20.8,138.8,22.5,139.2,24.4,139.2z M73.9,150.6c-4.3,0-8.1-0.8-11.3-2.5c-3.2-1.7-5.7-4-7.5-6.9
	c-1.8-2.9-2.7-6.3-2.7-10c0-3.8,0.9-7.1,2.6-10c1.8-2.9,4.2-5.2,7.2-6.9c3-1.7,6.5-2.5,10.3-2.5c3.7,0,7,0.8,9.9,2.4
	c3,1.5,5.3,3.8,7.1,6.7c1.7,2.9,2.6,6.4,2.6,10.4c0,0.4,0,0.9-0.1,1.5c0,0.5-0.1,1-0.1,1.5H61.3v-6.4h24.9l-4.2,1.9
	c0-2-0.4-3.7-1.2-5.1c-0.8-1.4-1.9-2.6-3.3-3.4c-1.4-0.8-3-1.3-4.9-1.3s-3.5,0.4-5,1.3c-1.4,0.8-2.5,1.9-3.3,3.4
	c-0.8,1.4-1.2,3.2-1.2,5.2v1.7c0,2.1,0.4,3.9,1.3,5.5c0.9,1.5,2.2,2.7,3.9,3.6c1.7,0.8,3.6,1.2,5.9,1.2c2,0,3.8-0.3,5.2-0.9
	c1.5-0.6,2.9-1.5,4.2-2.7l5.8,6.3c-1.7,2-3.9,3.5-6.5,4.6C80.3,150,77.3,150.6,73.9,150.6z M112,150.6c-3.2,0-6.3-0.4-9.3-1.1
	c-2.9-0.8-5.3-1.8-7-2.9l3.6-7.8c1.7,1.1,3.8,2,6.1,2.7c2.4,0.7,4.7,1,7,1c2.5,0,4.3-0.3,5.3-0.9c1.1-0.6,1.6-1.4,1.6-2.5
	c0-0.9-0.4-1.5-1.3-2c-0.8-0.5-1.9-0.8-3.2-1.1c-1.4-0.2-2.8-0.5-4.5-0.7c-1.6-0.2-3.2-0.5-4.8-0.9c-1.6-0.4-3.1-1-4.5-1.8
	c-1.4-0.8-2.4-1.9-3.3-3.2c-0.8-1.4-1.2-3.1-1.2-5.3c0-2.4,0.7-4.5,2-6.3c1.4-1.8,3.4-3.2,6-4.3c2.6-1.1,5.7-1.6,9.4-1.6
	c2.6,0,5.2,0.3,7.8,0.8c2.7,0.6,4.9,1.4,6.7,2.4l-3.6,7.8c-1.8-1.1-3.7-1.8-5.5-2.2c-1.8-0.4-3.6-0.6-5.3-0.6c-2.4,0-4.2,0.3-5.3,1
	s-1.7,1.5-1.7,2.5c0,0.9,0.4,1.6,1.2,2.1c0.8,0.5,1.9,0.8,3.3,1.1c1.4,0.3,2.8,0.5,4.4,0.8c1.6,0.2,3.3,0.5,4.9,0.9s3.1,1,4.4,1.8
	c1.4,0.7,2.4,1.8,3.3,3.2c0.8,1.3,1.3,3,1.3,5.2c0,2.3-0.7,4.4-2.1,6.2c-1.4,1.8-3.4,3.2-6.1,4.2C119,150,115.8,150.6,112,150.6z
	 M152,150.6c-4.4,0-7.9-1.1-10.4-3.4c-2.5-2.3-3.7-5.7-3.7-10.1v-33h10.9v32.9c0,1.6,0.4,2.8,1.3,3.7c0.8,0.8,2,1.3,3.4,1.3
	c1.7,0,3.2-0.5,4.4-1.4l2.9,7.7c-1.1,0.8-2.5,1.4-4.1,1.8C155.2,150.4,153.6,150.6,152,150.6z M132.1,121.6v-8.4h26.1v8.4H132.1z
	 M183.7,150.6c-4,0-7.6-0.8-10.7-2.5c-3.1-1.7-5.5-4-7.4-6.9c-1.8-2.9-2.7-6.3-2.7-10c0-3.8,0.9-7.1,2.7-10c1.8-2.9,4.3-5.2,7.4-6.9
	c3.1-1.7,6.7-2.5,10.7-2.5c4,0,7.5,0.8,10.6,2.5c3.1,1.6,5.6,3.9,7.3,6.8c1.8,2.9,2.7,6.3,2.7,10.1c0,3.7-0.9,7.1-2.7,10
	c-1.8,2.9-4.2,5.2-7.3,6.9C191.2,149.7,187.7,150.6,183.7,150.6z M183.7,141.6c1.8,0,3.5-0.4,4.9-1.3c1.4-0.8,2.6-2,3.4-3.6
	c0.8-1.6,1.3-3.5,1.3-5.6c0-2.2-0.4-4.1-1.3-5.6c-0.8-1.5-2-2.7-3.4-3.6c-1.4-0.8-3.1-1.3-4.9-1.3c-1.8,0-3.5,0.4-4.9,1.3
	c-1.4,0.8-2.6,2-3.5,3.6c-0.8,1.5-1.3,3.4-1.3,5.6c0,2.1,0.4,4,1.3,5.6c0.9,1.5,2.1,2.7,3.5,3.6
	C180.3,141.2,181.9,141.6,183.7,141.6z M211.7,150v-37.7h10.4V123l-1.5-3.1c1.1-2.7,2.9-4.7,5.4-6c2.5-1.4,5.5-2.1,9-2.1v10.1
	c-0.5,0-0.9-0.1-1.3-0.1c-0.4,0-0.8-0.1-1.2-0.1c-3,0-5.4,0.9-7.3,2.6c-1.8,1.7-2.7,4.3-2.7,7.9V150H211.7z M241.6,150v-37.7h10.9
	V150H241.6z M240.6,107.5l9.4-10.1h11.8l-12.7,10.1H240.6z M285.7,150v-7.4L285,141v-13.2c0-2.3-0.7-4.2-2.2-5.5
	c-1.4-1.3-3.6-2-6.5-2c-2,0-4,0.3-6,1c-1.9,0.6-3.5,1.4-4.9,2.5l-3.9-7.6c2.1-1.4,4.5-2.6,7.4-3.4c2.9-0.8,5.8-1.2,8.8-1.2
	c5.7,0,10.2,1.4,13.4,4.1c3.2,2.7,4.8,6.9,4.8,12.7V150H285.7z M274.2,150.6c-2.9,0-5.5-0.5-7.6-1.5c-2.1-1-3.7-2.4-4.8-4.1
	c-1.1-1.7-1.7-3.7-1.7-5.8c0-2.2,0.5-4.2,1.6-5.9c1.1-1.7,2.9-3,5.2-3.9c2.4-1,5.5-1.5,9.3-1.5h10v6.4h-8.8c-2.6,0-4.3,0.4-5.3,1.3
	c-0.9,0.8-1.4,1.9-1.4,3.2c0,1.4,0.5,2.5,1.6,3.4c1.1,0.8,2.6,1.2,4.6,1.2c1.8,0,3.5-0.4,4.9-1.3c1.4-0.9,2.5-2.2,3.1-3.8l1.7,5
	c-0.8,2.4-2.2,4.3-4.3,5.5S277.5,150.6,274.2,150.6z M335.9,150L320,112.3h11.3l13.2,32.4h-5.6l13.6-32.4H363L347.1,150H335.9z
	 M385.1,150.6c-4.3,0-8.1-0.8-11.3-2.5c-3.2-1.7-5.7-4-7.5-6.9c-1.8-2.9-2.7-6.3-2.7-10c0-3.8,0.9-7.1,2.6-10
	c1.8-2.9,4.2-5.2,7.2-6.9c3-1.7,6.5-2.5,10.3-2.5c3.7,0,7,0.8,9.9,2.4c3,1.5,5.3,3.8,7.1,6.7c1.7,2.9,2.6,6.4,2.6,10.4
	c0,0.4,0,0.9-0.1,1.5c0,0.5-0.1,1-0.1,1.5h-30.6v-6.4h24.9l-4.2,1.9c0-2-0.4-3.7-1.2-5.1c-0.8-1.4-1.9-2.6-3.3-3.4
	c-1.4-0.8-3-1.3-4.9-1.3s-3.5,0.4-5,1.3c-1.4,0.8-2.5,1.9-3.3,3.4c-0.8,1.4-1.2,3.2-1.2,5.2v1.7c0,2.1,0.4,3.9,1.3,5.5
	c0.9,1.5,2.2,2.7,3.8,3.6c1.7,0.8,3.6,1.2,5.9,1.2c2,0,3.8-0.3,5.2-0.9c1.5-0.6,2.9-1.5,4.2-2.7l5.8,6.3c-1.7,2-3.9,3.5-6.5,4.6
	C391.6,150,388.5,150.6,385.1,150.6z M433.5,111.8c3,0,5.6,0.6,8,1.8c2.4,1.2,4.2,3,5.6,5.5c1.4,2.4,2,5.6,2,9.4V150h-10.9v-19.9
	c0-3-0.7-5.3-2-6.7c-1.3-1.4-3.2-2.2-5.6-2.2c-1.7,0-3.3,0.4-4.7,1.1c-1.4,0.7-2.4,1.8-3.2,3.3c-0.7,1.5-1.1,3.4-1.1,5.7V150h-10.9
	V98.1h10.9v24.7l-2.5-3.1c1.4-2.5,3.3-4.5,5.8-5.8C427.4,112.5,430.3,111.8,433.5,111.8z M459,150v-37.7h10.9V150H459z M464.5,107.1
	c-2,0-3.6-0.6-4.9-1.8c-1.3-1.2-1.9-2.6-1.9-4.3c0-1.7,0.6-3.2,1.9-4.3c1.3-1.2,2.9-1.8,4.9-1.8c2,0,3.6,0.6,4.9,1.7
	c1.3,1.1,1.9,2.5,1.9,4.2c0,1.8-0.6,3.3-1.9,4.5C468.2,106.5,466.5,107.1,464.5,107.1z M498.3,150.6c-4.1,0-7.7-0.8-10.9-2.4
	c-3.2-1.7-5.7-4-7.5-6.9c-1.8-2.9-2.7-6.3-2.7-10c0-3.8,0.9-7.1,2.7-10c1.8-2.9,4.3-5.2,7.5-6.9c3.2-1.7,6.8-2.5,10.9-2.5
	c4,0,7.4,0.8,10.4,2.5c2.9,1.6,5.1,4,6.5,7.1l-8.5,4.5c-1-1.8-2.2-3.1-3.7-3.9c-1.4-0.8-3-1.3-4.8-1.3c-1.9,0-3.5,0.4-5,1.3
	c-1.5,0.8-2.7,2-3.6,3.6c-0.8,1.5-1.3,3.4-1.3,5.6c0,2.2,0.4,4.1,1.3,5.6c0.9,1.5,2.1,2.7,3.6,3.6c1.5,0.8,3.2,1.3,5,1.3
	c1.7,0,3.3-0.4,4.8-1.2c1.5-0.8,2.7-2.2,3.7-4l8.5,4.6c-1.4,3-3.6,5.4-6.5,7.1C505.7,149.7,502.2,150.6,498.3,150.6z M537.3,150.6
	c-3.1,0-5.9-0.6-8.4-1.8c-2.4-1.2-4.3-3.1-5.7-5.5c-1.4-2.5-2-5.7-2-9.6v-21.3h10.9V132c0,3.1,0.7,5.4,2,6.9
	c1.4,1.4,3.2,2.2,5.7,2.2c1.7,0,3.2-0.4,4.5-1.1c1.3-0.7,2.3-1.9,3.1-3.4c0.7-1.5,1.1-3.5,1.1-5.7v-18.6h10.9V150H549v-10.4l1.9,3
	c-1.3,2.6-3.1,4.6-5.6,6C542.9,149.9,540.2,150.6,537.3,150.6z M569.5,150V98.1h10.9V150H569.5z M613.6,150v-7.4l-0.7-1.6v-13.2
	c0-2.3-0.7-4.2-2.2-5.5c-1.4-1.3-3.6-2-6.5-2c-2,0-4,0.3-6,1c-1.9,0.6-3.5,1.4-4.9,2.5l-3.9-7.6c2.1-1.4,4.5-2.6,7.4-3.4
	s5.8-1.2,8.8-1.2c5.7,0,10.2,1.4,13.4,4.1c3.2,2.7,4.8,6.9,4.8,12.7V150H613.6z M602.2,150.6c-2.9,0-5.5-0.5-7.6-1.5
	c-2.1-1-3.7-2.4-4.8-4.1c-1.1-1.7-1.7-3.7-1.7-5.8c0-2.2,0.5-4.2,1.6-5.9c1.1-1.7,2.9-3,5.2-3.9c2.4-1,5.5-1.5,9.3-1.5h10v6.4h-8.8
	c-2.6,0-4.3,0.4-5.3,1.3c-0.9,0.8-1.4,1.9-1.4,3.2c0,1.4,0.5,2.5,1.6,3.4c1.1,0.8,2.6,1.2,4.5,1.2c1.8,0,3.5-0.4,4.9-1.3
	c1.4-0.9,2.5-2.2,3.1-3.8l1.7,5c-0.8,2.4-2.2,4.3-4.3,5.5C608.2,149.9,605.5,150.6,602.2,150.6z M633.7,150v-37.7h10.4V123l-1.5-3.1
	c1.1-2.7,2.9-4.7,5.4-6c2.5-1.4,5.5-2.1,9-2.1v10.1c-0.5,0-0.9-0.1-1.3-0.1c-0.4,0-0.8-0.1-1.2-0.1c-3,0-5.4,0.9-7.3,2.6
	c-1.8,1.7-2.7,4.3-2.7,7.9V150H633.7z M303,225.4c-2.7,0-5.1-0.6-7.3-1.8c-2.2-1.2-3.9-2.9-5.1-5.1c-1.2-2.2-1.9-4.8-1.9-7.7
	c0-3,0.6-5.6,1.9-7.8c1.3-2.2,3-3.9,5.1-5.1c2.2-1.2,4.6-1.8,7.3-1.8c2.4,0,4.5,0.5,6.3,1.6c1.8,1.1,3.2,2.7,4.2,4.8
	c1,2.2,1.5,4.9,1.5,8.3c0,3.3-0.5,6.1-1.4,8.3c-1,2.2-2.3,3.8-4.1,4.8C307.7,224.9,305.5,225.4,303,225.4z M304.5,218.6
	c1.3,0,2.6-0.3,3.7-1c1.1-0.6,2-1.5,2.6-2.7c0.7-1.2,1-2.6,1-4.2c0-1.7-0.3-3.1-1-4.2c-0.6-1.2-1.5-2.1-2.6-2.7
	c-1.1-0.6-2.3-1-3.7-1c-1.4,0-2.6,0.3-3.7,1c-1.1,0.6-2,1.5-2.7,2.7c-0.6,1.2-1,2.6-1,4.2c0,1.6,0.3,3,1,4.2
	c0.7,1.2,1.6,2.1,2.7,2.7C301.8,218.3,303.1,218.6,304.5,218.6z M311.9,225v-5.8l0.2-8.5l-0.5-8.4v-16.6h8.3V225H311.9z
	 M341.6,225.4c-3.3,0-6.1-0.6-8.6-1.9c-2.4-1.3-4.3-3-5.7-5.2c-1.3-2.2-2-4.8-2-7.6c0-2.9,0.7-5.4,2-7.6c1.3-2.2,3.2-4,5.5-5.2
	c2.3-1.3,4.9-1.9,7.8-1.9c2.8,0,5.3,0.6,7.5,1.8c2.3,1.2,4,2.9,5.4,5.1c1.3,2.2,2,4.8,2,7.9c0,0.3,0,0.7-0.1,1.1
	c0,0.4-0.1,0.8-0.1,1.1h-23.2v-4.8h18.8l-3.2,1.4c0-1.5-0.3-2.8-0.9-3.9c-0.6-1.1-1.4-1.9-2.5-2.5c-1.1-0.6-2.3-1-3.7-1
	c-1.4,0-2.7,0.3-3.8,1c-1.1,0.6-1.9,1.5-2.5,2.6c-0.6,1.1-0.9,2.4-0.9,3.9v1.3c0,1.6,0.3,2.9,1,4.1c0.7,1.2,1.7,2.1,2.9,2.7
	c1.3,0.6,2.8,0.9,4.5,0.9c1.5,0,2.8-0.2,4-0.7c1.2-0.5,2.2-1.1,3.2-2.1l4.4,4.8c-1.3,1.5-3,2.6-4.9,3.4
	C346.5,225,344.2,225.4,341.6,225.4z M360.9,225v-39.3h8.3V225H360.9z M13.4,271.2h23.3v8.7H13.4V271.2z M14.2,291h26.3v9H3.1v-48.3
	h36.5v9H14.2V291z M60.8,300.6c-3.2,0-6.2-0.4-9.2-1.1c-2.9-0.8-5.2-1.7-6.9-2.9l3.6-7.7c1.7,1.1,3.7,1.9,6,2.6c2.3,0.6,4.6,1,6.9,1
	c2.5,0,4.2-0.3,5.2-0.9c1.1-0.6,1.6-1.4,1.6-2.5c0-0.9-0.4-1.5-1.2-1.9c-0.8-0.5-1.8-0.8-3.2-1c-1.3-0.2-2.8-0.5-4.4-0.7
	c-1.6-0.2-3.2-0.5-4.8-0.9c-1.6-0.4-3.1-1-4.4-1.8s-2.4-1.8-3.2-3.2c-0.8-1.3-1.2-3.1-1.2-5.2c0-2.3,0.7-4.4,2-6.2
	c1.4-1.8,3.4-3.2,5.9-4.2c2.6-1.1,5.7-1.6,9.2-1.6c2.5,0,5.1,0.3,7.7,0.8c2.6,0.6,4.8,1.4,6.6,2.4l-3.6,7.7
	c-1.8-1.1-3.6-1.8-5.5-2.1c-1.8-0.4-3.5-0.6-5.2-0.6c-2.4,0-4.1,0.3-5.2,1c-1.1,0.6-1.7,1.5-1.7,2.5c0,0.9,0.4,1.6,1.2,2.1
	c0.8,0.5,1.9,0.8,3.2,1.1c1.3,0.3,2.8,0.5,4.3,0.8c1.6,0.2,3.2,0.5,4.8,0.9c1.6,0.4,3.1,1,4.3,1.8c1.3,0.7,2.4,1.8,3.2,3.1
	c0.8,1.3,1.2,3,1.2,5.1c0,2.3-0.7,4.3-2.1,6.1c-1.4,1.7-3.4,3.1-6,4.1C67.7,300,64.6,300.6,60.8,300.6z M100.2,300.6
	c-4.4,0-7.8-1.1-10.2-3.3c-2.4-2.3-3.7-5.6-3.7-10v-32.6h10.8v32.4c0,1.6,0.4,2.8,1.2,3.7c0.8,0.8,2,1.2,3.4,1.2
	c1.7,0,3.2-0.5,4.3-1.4l2.9,7.6c-1.1,0.8-2.4,1.4-4,1.8C103.4,300.4,101.8,300.6,100.2,300.6z M80.6,272v-8.3h25.7v8.3H80.6z
	 M137.8,300v-7.2l-0.7-1.6v-13c0-2.3-0.7-4.1-2.1-5.4c-1.4-1.3-3.5-1.9-6.4-1.9c-2,0-3.9,0.3-5.9,1c-1.9,0.6-3.5,1.4-4.8,2.5
	l-3.9-7.5c2-1.4,4.5-2.5,7.3-3.3c2.9-0.8,5.8-1.2,8.7-1.2c5.7,0,10.1,1.3,13.2,4c3.1,2.7,4.7,6.8,4.7,12.5V300H137.8z M126.5,300.6
	c-2.9,0-5.4-0.5-7.5-1.4c-2.1-1-3.7-2.4-4.8-4.1c-1.1-1.7-1.7-3.6-1.7-5.7c0-2.2,0.5-4.1,1.6-5.8c1.1-1.7,2.8-2.9,5.2-3.9
	c2.3-1,5.4-1.4,9.2-1.4h9.9v6.3h-8.7c-2.5,0-4.3,0.4-5.2,1.2c-0.9,0.8-1.4,1.9-1.4,3.1c0,1.4,0.5,2.5,1.6,3.3
	c1.1,0.8,2.6,1.2,4.5,1.2c1.8,0,3.4-0.4,4.8-1.2c1.4-0.9,2.5-2.1,3.1-3.8l1.7,5c-0.8,2.4-2.2,4.2-4.3,5.5
	C132.4,299.9,129.7,300.6,126.5,300.6z M173.8,300.6c-3.5,0-6.6-0.8-9.5-2.3c-2.8-1.6-5-3.8-6.7-6.7c-1.6-2.9-2.4-6.2-2.4-10.1
	c0-3.9,0.8-7.3,2.4-10.1c1.7-2.9,3.9-5.1,6.7-6.6s6-2.3,9.5-2.3c3.1,0,5.9,0.7,8.2,2.1c2.3,1.4,4.2,3.5,5.5,6.3
	c1.3,2.8,1.9,6.4,1.9,10.8c0,4.3-0.6,7.9-1.9,10.8c-1.2,2.8-3,4.9-5.4,6.3C179.8,299.9,177.1,300.6,173.8,300.6z M175.7,291.7
	c1.7,0,3.3-0.4,4.8-1.2c1.4-0.8,2.6-2,3.4-3.5c0.9-1.6,1.3-3.4,1.3-5.5c0-2.2-0.4-4-1.3-5.5c-0.8-1.5-2-2.7-3.4-3.5
	c-1.4-0.8-3-1.2-4.8-1.2c-1.8,0-3.4,0.4-4.8,1.2c-1.4,0.8-2.6,2-3.5,3.5c-0.8,1.5-1.2,3.4-1.2,5.5c0,2.1,0.4,4,1.2,5.5
	c0.9,1.5,2,2.7,3.5,3.5C172.2,291.3,173.9,291.7,175.7,291.7z M185.4,300v-7.6l0.2-11l-0.7-11v-21.6h10.8V300H185.4z M223.3,300.6
	c-4,0-7.5-0.8-10.6-2.5c-3-1.7-5.5-3.9-7.2-6.8c-1.7-2.9-2.6-6.2-2.6-9.9c0-3.7,0.9-7,2.6-9.9c1.8-2.9,4.2-5.2,7.2-6.8
	c3.1-1.7,6.6-2.5,10.6-2.5c3.9,0,7.4,0.8,10.5,2.5c3.1,1.6,5.5,3.8,7.2,6.7c1.7,2.9,2.6,6.2,2.6,9.9c0,3.7-0.9,7-2.6,9.9
	c-1.7,2.9-4.2,5.1-7.2,6.8C230.7,299.7,227.2,300.6,223.3,300.6z M223.3,291.7c1.8,0,3.4-0.4,4.8-1.2s2.6-2,3.4-3.5
	c0.8-1.6,1.2-3.4,1.2-5.5c0-2.2-0.4-4-1.2-5.5s-2-2.7-3.4-3.5s-3-1.2-4.8-1.2s-3.4,0.4-4.8,1.2s-2.6,2-3.4,3.5
	c-0.8,1.5-1.2,3.4-1.2,5.5c0,2.1,0.4,4,1.2,5.5c0.9,1.5,2,2.7,3.4,3.5S221.5,291.7,223.3,291.7z M286.3,300.6
	c-3.5,0-6.6-0.8-9.5-2.3c-2.8-1.6-5-3.8-6.7-6.7c-1.6-2.9-2.4-6.2-2.4-10.1c0-3.9,0.8-7.3,2.4-10.1c1.7-2.9,3.9-5.1,6.7-6.6
	s6-2.3,9.5-2.3c3.1,0,5.9,0.7,8.2,2.1c2.3,1.4,4.2,3.5,5.5,6.3s1.9,6.4,1.9,10.8c0,4.3-0.6,7.9-1.9,10.8c-1.2,2.8-3,4.9-5.4,6.3
	C292.4,299.9,289.6,300.6,286.3,300.6z M288.2,291.7c1.7,0,3.3-0.4,4.8-1.2s2.6-2,3.4-3.5c0.9-1.6,1.3-3.4,1.3-5.5
	c0-2.2-0.4-4-1.3-5.5c-0.8-1.5-2-2.7-3.4-3.5s-3-1.2-4.8-1.2c-1.8,0-3.4,0.4-4.8,1.2s-2.6,2-3.5,3.5c-0.8,1.5-1.2,3.4-1.2,5.5
	c0,2.1,0.4,4,1.2,5.5c0.9,1.5,2,2.7,3.5,3.5S286.4,291.7,288.2,291.7z M297.9,300v-7.6l0.2-11l-0.7-11v-21.6h10.8V300H297.9z
	 M336.6,300.6c-4.2,0-8-0.8-11.2-2.5c-3.2-1.7-5.6-3.9-7.4-6.8c-1.7-2.9-2.6-6.2-2.6-9.9c0-3.7,0.9-7,2.6-9.9
	c1.7-2.9,4.1-5.2,7.1-6.8c3-1.7,6.4-2.5,10.1-2.5c3.6,0,6.9,0.8,9.8,2.3c2.9,1.5,5.3,3.7,7,6.6c1.7,2.9,2.6,6.3,2.6,10.3
	c0,0.4,0,0.9-0.1,1.4c0,0.5-0.1,1-0.1,1.4h-30.2v-6.3h24.5l-4.1,1.9c0-1.9-0.4-3.6-1.2-5c-0.8-1.4-1.9-2.5-3.2-3.3
	c-1.4-0.8-3-1.2-4.8-1.2s-3.5,0.4-4.9,1.2c-1.4,0.8-2.5,1.9-3.2,3.4c-0.8,1.4-1.2,3.1-1.2,5.1v1.7c0,2,0.4,3.8,1.3,5.4
	c0.9,1.5,2.2,2.7,3.8,3.5c1.7,0.8,3.6,1.2,5.8,1.2c2,0,3.7-0.3,5.2-0.9c1.5-0.6,2.9-1.5,4.1-2.7l5.7,6.2c-1.7,1.9-3.8,3.4-6.4,4.5
	C342.9,300,339.9,300.6,336.6,300.6z M382,300v-48.3h9.2l20.6,34.1h-4.9l20.2-34.1h9.2l0.1,48.3h-10.5l-0.1-32.2h1.9l-16.1,27.1h-5
	l-16.5-27.1h2.3V300H382z M464.8,300.6c-4,0-7.5-0.8-10.6-2.5c-3-1.7-5.5-3.9-7.2-6.8c-1.7-2.9-2.6-6.2-2.6-9.9c0-3.7,0.9-7,2.6-9.9
	c1.8-2.9,4.2-5.2,7.2-6.8c3.1-1.7,6.6-2.5,10.6-2.5c3.9,0,7.4,0.8,10.5,2.5c3.1,1.6,5.5,3.8,7.2,6.7c1.7,2.9,2.6,6.2,2.6,9.9
	c0,3.7-0.9,7-2.6,9.9c-1.7,2.9-4.2,5.1-7.2,6.8S468.7,300.6,464.8,300.6z M464.8,291.7c1.8,0,3.4-0.4,4.8-1.2s2.6-2,3.4-3.5
	c0.8-1.6,1.2-3.4,1.2-5.5c0-2.2-0.4-4-1.2-5.5c-0.8-1.5-2-2.7-3.4-3.5s-3-1.2-4.8-1.2c-1.8,0-3.4,0.4-4.8,1.2s-2.6,2-3.5,3.5
	c-0.8,1.5-1.2,3.4-1.2,5.5c0,2.1,0.4,4,1.2,5.5c0.9,1.5,2,2.7,3.5,3.5S463,291.7,464.8,291.7z M492.3,300v-37.1h10.3v10.5l-1.4-3
	c1.1-2.6,2.9-4.6,5.3-5.9c2.4-1.4,5.4-2.1,8.9-2.1v9.9c-0.5,0-0.9-0.1-1.2-0.1c-0.4,0-0.8-0.1-1.2-0.1c-2.9,0-5.3,0.9-7.2,2.6
	c-1.8,1.7-2.7,4.3-2.7,7.8V300H492.3z M539.9,300.6c-4.2,0-8-0.8-11.2-2.5c-3.2-1.7-5.6-3.9-7.4-6.8c-1.7-2.9-2.6-6.2-2.6-9.9
	c0-3.7,0.9-7,2.6-9.9c1.7-2.9,4.1-5.2,7.1-6.8c3-1.7,6.4-2.5,10.1-2.5c3.6,0,6.9,0.8,9.8,2.3c2.9,1.5,5.3,3.7,7,6.6
	c1.7,2.9,2.6,6.3,2.6,10.3c0,0.4,0,0.9-0.1,1.4c0,0.5-0.1,1-0.1,1.4h-30.2v-6.3h24.5l-4.1,1.9c0-1.9-0.4-3.6-1.2-5s-1.9-2.5-3.2-3.3
	c-1.4-0.8-3-1.2-4.8-1.2c-1.8,0-3.5,0.4-4.9,1.2c-1.4,0.8-2.5,1.9-3.2,3.4c-0.8,1.4-1.2,3.1-1.2,5.1v1.7c0,2,0.4,3.8,1.3,5.4
	c0.9,1.5,2.2,2.7,3.8,3.5c1.7,0.8,3.6,1.2,5.8,1.2c2,0,3.7-0.3,5.2-0.9c1.5-0.6,2.9-1.5,4.1-2.7l5.7,6.2c-1.7,1.9-3.8,3.4-6.4,4.5
	C546.2,300,543.2,300.6,539.9,300.6z M565,300v-51.2h10.8V300H565z M603.4,300.6c-4,0-7.5-0.8-10.6-2.5c-3-1.7-5.5-3.9-7.2-6.8
	c-1.7-2.9-2.6-6.2-2.6-9.9c0-3.7,0.9-7,2.6-9.9c1.8-2.9,4.2-5.2,7.2-6.8c3.1-1.7,6.6-2.5,10.6-2.5c3.9,0,7.4,0.8,10.5,2.5
	c3.1,1.6,5.5,3.8,7.2,6.7c1.7,2.9,2.6,6.2,2.6,9.9c0,3.7-0.9,7-2.6,9.9c-1.7,2.9-4.2,5.1-7.2,6.8
	C610.8,299.7,607.3,300.6,603.4,300.6z M603.4,291.7c1.8,0,3.4-0.4,4.8-1.2c1.4-0.8,2.6-2,3.4-3.5c0.8-1.6,1.2-3.4,1.2-5.5
	c0-2.2-0.4-4-1.2-5.5c-0.8-1.5-2-2.7-3.4-3.5c-1.4-0.8-3-1.2-4.8-1.2c-1.8,0-3.4,0.4-4.8,1.2c-1.4,0.8-2.6,2-3.5,3.5
	c-0.8,1.5-1.2,3.4-1.2,5.5c0,2.1,0.4,4,1.2,5.5c0.9,1.5,2,2.7,3.5,3.5C600,291.3,601.6,291.7,603.4,291.7z M643.4,300.6
	c-3.2,0-6.2-0.4-9.2-1.1c-2.9-0.8-5.2-1.7-6.9-2.9l3.6-7.7c1.7,1.1,3.7,1.9,6,2.6c2.3,0.6,4.6,1,6.9,1c2.5,0,4.2-0.3,5.2-0.9
	c1.1-0.6,1.6-1.4,1.6-2.5c0-0.9-0.4-1.5-1.2-1.9c-0.8-0.5-1.8-0.8-3.2-1c-1.3-0.2-2.8-0.5-4.4-0.7c-1.6-0.2-3.2-0.5-4.8-0.9
	c-1.6-0.4-3.1-1-4.4-1.8s-2.4-1.8-3.2-3.2c-0.8-1.3-1.2-3.1-1.2-5.2c0-2.3,0.7-4.4,2-6.2c1.4-1.8,3.4-3.2,5.9-4.2
	c2.6-1.1,5.7-1.6,9.2-1.6c2.5,0,5.1,0.3,7.7,0.8c2.6,0.6,4.8,1.4,6.6,2.4l-3.6,7.7c-1.8-1.1-3.6-1.8-5.5-2.1
	c-1.8-0.4-3.5-0.6-5.2-0.6c-2.4,0-4.1,0.3-5.2,1c-1.1,0.6-1.7,1.5-1.7,2.5c0,0.9,0.4,1.6,1.2,2.1c0.8,0.5,1.9,0.8,3.2,1.1
	s2.8,0.5,4.3,0.8c1.6,0.2,3.2,0.5,4.8,0.9c1.6,0.4,3.1,1,4.3,1.8c1.3,0.7,2.4,1.8,3.2,3.1c0.8,1.3,1.2,3,1.2,5.1
	c0,2.3-0.7,4.3-2.1,6.1c-1.4,1.7-3.4,3.1-6,4.1C650.3,300,647.2,300.6,643.4,300.6z"/>
<path class="st1" d="M19.9,364.6c-3.6,0-6.9-0.8-9.9-2.4c-2.9-1.7-5.3-4-7-7c-1.7-3-2.5-6.5-2.5-10.5c0-4.1,0.8-7.6,2.5-10.6
	c1.7-3,4.1-5.3,7-6.9c2.9-1.6,6.2-2.4,9.9-2.4c3.3,0,6.1,0.7,8.6,2.2s4.3,3.6,5.7,6.6c1.3,2.9,2,6.7,2,11.2c0,4.5-0.6,8.3-1.9,11.2
	c-1.3,2.9-3.2,5.1-5.6,6.6C26.2,363.9,23.3,364.6,19.9,364.6z M21.8,355.4c1.8,0,3.5-0.4,5-1.3c1.5-0.9,2.7-2.1,3.5-3.7
	c0.9-1.6,1.4-3.6,1.4-5.8c0-2.3-0.5-4.2-1.4-5.8c-0.9-1.6-2-2.8-3.5-3.7c-1.5-0.9-3.1-1.3-5-1.3c-1.9,0-3.6,0.4-5,1.3
	c-1.5,0.9-2.7,2.1-3.6,3.7c-0.9,1.6-1.3,3.5-1.3,5.8c0,2.2,0.4,4.1,1.3,5.8c0.9,1.6,2.1,2.8,3.6,3.7C18.3,354.9,20,355.4,21.8,355.4
	z M32,364v-7.9l0.2-11.5l-0.7-11.4v-22.5h11.2V364H32z M72.3,364.6c-4.4,0-8.3-0.9-11.7-2.6c-3.3-1.7-5.9-4.1-7.7-7.1
	c-1.8-3-2.7-6.5-2.7-10.3c0-3.9,0.9-7.3,2.7-10.3c1.8-3,4.3-5.4,7.4-7.1c3.1-1.7,6.6-2.6,10.6-2.6c3.8,0,7.2,0.8,10.2,2.4
	c3.1,1.6,5.5,3.9,7.3,6.9c1.8,3,2.7,6.6,2.7,10.7c0,0.4,0,0.9-0.1,1.5c0,0.5-0.1,1-0.1,1.5H59.4v-6.6h25.6l-4.3,1.9
	c0-2-0.4-3.8-1.2-5.3c-0.8-1.5-1.9-2.6-3.4-3.5c-1.4-0.9-3.1-1.3-5-1.3s-3.6,0.4-5.1,1.3c-1.4,0.8-2.6,2-3.4,3.5
	c-0.8,1.5-1.2,3.3-1.2,5.3v1.7c0,2.1,0.5,4,1.4,5.6c1,1.6,2.3,2.8,4,3.7c1.7,0.8,3.7,1.2,6,1.2c2.1,0,3.9-0.3,5.4-0.9
	c1.6-0.6,3-1.6,4.3-2.8l6,6.5c-1.8,2-4,3.6-6.7,4.7C78.9,364,75.9,364.6,72.3,364.6z M111.6,364.6c-3.3,0-6.5-0.4-9.6-1.2
	c-3-0.8-5.4-1.8-7.2-3l3.7-8.1c1.8,1.1,3.9,2,6.3,2.7c2.4,0.7,4.8,1,7.2,1c2.6,0,4.4-0.3,5.5-0.9c1.1-0.6,1.7-1.5,1.7-2.6
	c0-0.9-0.4-1.6-1.3-2c-0.8-0.5-1.9-0.8-3.3-1.1c-1.4-0.2-2.9-0.5-4.6-0.7c-1.6-0.2-3.3-0.6-5-0.9c-1.7-0.4-3.2-1.1-4.6-1.9
	c-1.4-0.8-2.5-1.9-3.4-3.3c-0.8-1.4-1.2-3.2-1.2-5.4c0-2.4,0.7-4.6,2.1-6.5c1.4-1.9,3.5-3.3,6.2-4.4c2.7-1.1,5.9-1.7,9.6-1.7
	c2.6,0,5.3,0.3,8.1,0.9s5,1.4,6.8,2.5l-3.7,8c-1.9-1.1-3.8-1.8-5.7-2.2c-1.9-0.4-3.7-0.6-5.5-0.6c-2.5,0-4.3,0.3-5.5,1
	c-1.2,0.7-1.7,1.5-1.7,2.6c0,1,0.4,1.7,1.2,2.2c0.9,0.5,2,0.9,3.4,1.2c1.4,0.3,2.9,0.6,4.5,0.8c1.7,0.2,3.4,0.5,5,0.9
	s3.2,1.1,4.5,1.9c1.4,0.8,2.5,1.8,3.4,3.2c0.9,1.3,1.3,3.1,1.3,5.3c0,2.4-0.7,4.5-2.2,6.4c-1.4,1.8-3.5,3.3-6.3,4.3
	C118.8,364,115.5,364.6,111.6,364.6z M153.4,364.6c-3.6,0-6.9-0.8-9.9-2.4c-2.9-1.7-5.3-4-7-7c-1.7-3-2.5-6.5-2.5-10.5
	c0-4.1,0.8-7.6,2.5-10.6c1.7-3,4.1-5.3,7-6.9c2.9-1.6,6.2-2.4,9.9-2.4c3.3,0,6.1,0.7,8.6,2.2c2.4,1.4,4.3,3.6,5.7,6.6
	c1.3,2.9,2,6.7,2,11.2c0,4.5-0.6,8.3-1.9,11.2c-1.3,2.9-3.2,5.1-5.6,6.6C159.7,363.9,156.8,364.6,153.4,364.6z M155.4,355.4
	c1.8,0,3.5-0.4,5-1.3c1.5-0.9,2.7-2.1,3.5-3.7c0.9-1.6,1.4-3.6,1.4-5.8c0-2.3-0.5-4.2-1.4-5.8c-0.9-1.6-2-2.8-3.5-3.7
	c-1.5-0.9-3.1-1.3-5-1.3c-1.9,0-3.6,0.4-5,1.3c-1.5,0.9-2.7,2.1-3.6,3.7c-0.9,1.6-1.3,3.5-1.3,5.8c0,2.2,0.4,4.1,1.3,5.8
	c0.9,1.6,2.1,2.8,3.6,3.7C151.8,354.9,153.5,355.4,155.4,355.4z M165.5,364v-7.9l0.2-11.5l-0.7-11.4v-22.5h11.2V364H165.5z
	 M205.9,364.6c-4.4,0-8.3-0.9-11.7-2.6c-3.3-1.7-5.9-4.1-7.7-7.1c-1.8-3-2.7-6.5-2.7-10.3c0-3.9,0.9-7.3,2.7-10.3
	c1.8-3,4.3-5.4,7.4-7.1c3.1-1.7,6.6-2.6,10.6-2.6c3.8,0,7.2,0.8,10.2,2.4c3.1,1.6,5.5,3.9,7.3,6.9c1.8,3,2.7,6.6,2.7,10.7
	c0,0.4,0,0.9-0.1,1.5c0,0.5-0.1,1-0.1,1.5h-31.5v-6.6h25.6l-4.3,1.9c0-2-0.4-3.8-1.2-5.3s-1.9-2.6-3.4-3.5c-1.4-0.9-3.1-1.3-5-1.3
	s-3.6,0.4-5.1,1.3c-1.4,0.8-2.6,2-3.4,3.5c-0.8,1.5-1.2,3.3-1.2,5.3v1.7c0,2.1,0.5,4,1.4,5.6c1,1.6,2.3,2.8,4,3.7
	c1.7,0.8,3.7,1.2,6,1.2c2.1,0,3.9-0.3,5.4-0.9c1.6-0.6,3-1.6,4.3-2.8l6,6.5c-1.8,2-4,3.6-6.7,4.7C212.5,364,209.4,364.6,205.9,364.6
	z M264.7,364.6c-4.4,0-8.3-0.9-11.7-2.6c-3.3-1.7-5.9-4.1-7.7-7.1c-1.8-3-2.7-6.5-2.7-10.3c0-3.9,0.9-7.3,2.7-10.3
	c1.8-3,4.3-5.4,7.4-7.1c3.1-1.7,6.6-2.6,10.6-2.6c3.8,0,7.2,0.8,10.2,2.4c3.1,1.6,5.5,3.9,7.3,6.9c1.8,3,2.7,6.6,2.7,10.7
	c0,0.4,0,0.9-0.1,1.5c0,0.5-0.1,1-0.1,1.5h-31.5v-6.6h25.6l-4.3,1.9c0-2-0.4-3.8-1.2-5.3s-1.9-2.6-3.4-3.5c-1.4-0.9-3.1-1.3-5-1.3
	c-1.9,0-3.6,0.4-5.1,1.3c-1.4,0.8-2.6,2-3.4,3.5c-0.8,1.5-1.2,3.3-1.2,5.3v1.7c0,2.1,0.5,4,1.4,5.6c1,1.6,2.3,2.8,4,3.7
	c1.7,0.8,3.7,1.2,6,1.2c2.1,0,3.9-0.3,5.4-0.9c1.6-0.6,3-1.6,4.3-2.8l6,6.5c-1.8,2-4,3.6-6.7,4.7C271.3,364,268.2,364.6,264.7,364.6
	z M290.9,364v-53.4h11.2V364H290.9z M352.7,364v-7.6l-0.7-1.7v-13.5c0-2.4-0.7-4.3-2.2-5.6c-1.4-1.3-3.7-2-6.7-2
	c-2.1,0-4.1,0.3-6.1,1c-2,0.6-3.6,1.5-5,2.6l-4-7.8c2.1-1.5,4.7-2.6,7.6-3.5c3-0.8,6-1.2,9.1-1.2c5.9,0,10.5,1.4,13.8,4.2
	c3.3,2.8,4.9,7.1,4.9,13V364H352.7z M340.9,364.6c-3,0-5.6-0.5-7.8-1.5c-2.2-1.1-3.8-2.5-5-4.2s-1.7-3.8-1.7-6c0-2.3,0.6-4.3,1.7-6
	c1.2-1.7,3-3.1,5.4-4c2.4-1,5.6-1.5,9.6-1.5h10.3v6.6h-9.1c-2.6,0-4.5,0.4-5.5,1.3c-1,0.9-1.4,1.9-1.4,3.2c0,1.4,0.6,2.6,1.7,3.5
	c1.2,0.8,2.7,1.2,4.7,1.2c1.9,0,3.6-0.4,5-1.3c1.5-0.9,2.6-2.2,3.2-4l1.7,5.2c-0.8,2.5-2.3,4.4-4.5,5.7
	C347.1,363.9,344.3,364.6,340.9,364.6z M396.9,324.7c3.1,0,5.8,0.6,8.2,1.9c2.4,1.2,4.4,3.1,5.8,5.6c1.4,2.5,2.1,5.7,2.1,9.6V364
	h-11.2v-20.4c0-3.1-0.7-5.4-2.1-6.9c-1.3-1.5-3.3-2.2-5.8-2.2c-1.8,0-3.4,0.4-4.8,1.2c-1.4,0.7-2.5,1.8-3.3,3.4
	c-0.8,1.5-1.2,3.5-1.2,5.9V364h-11.2v-38.7h10.7V336l-2-3.2c1.4-2.6,3.4-4.6,6-6S393.6,324.7,396.9,324.7z M398.6,320.5
	c-1.2,0-2.4-0.2-3.3-0.6c-1-0.5-1.8-1-2.6-1.6c-0.8-0.6-1.5-1.2-2.2-1.6c-0.7-0.5-1.3-0.7-2-0.7c-1,0-1.8,0.4-2.4,1.1
	c-0.6,0.7-1,1.7-1.1,3h-5.7c0.1-3.2,0.9-5.8,2.4-7.6c1.5-1.9,3.5-2.9,6-2.9c1.2,0,2.4,0.2,3.3,0.7c1,0.4,1.8,1,2.6,1.6
	c0.8,0.6,1.6,1.2,2.2,1.7c0.7,0.4,1.3,0.6,1.9,0.6c1,0,1.8-0.3,2.4-1c0.6-0.7,1-1.7,1-2.9h5.7c0,3.1-0.8,5.6-2.4,7.5
	C403.2,319.6,401.2,320.5,398.6,320.5z M441.9,364.6c-4.1,0-7.8-0.9-11-2.6c-3.2-1.7-5.7-4.1-7.6-7.1c-1.8-3-2.7-6.5-2.7-10.3
	c0-3.9,0.9-7.3,2.7-10.3c1.9-3,4.4-5.4,7.6-7.1c3.2-1.7,6.9-2.6,11-2.6c4.1,0,7.7,0.9,10.9,2.6c3.2,1.7,5.7,4,7.6,7
	c1.8,3,2.7,6.4,2.7,10.4c0,3.8-0.9,7.3-2.7,10.3c-1.8,3-4.3,5.3-7.6,7.1S445.9,364.6,441.9,364.6z M441.9,355.4c1.9,0,3.6-0.4,5-1.3
	c1.5-0.9,2.7-2.1,3.5-3.7c0.9-1.6,1.3-3.6,1.3-5.8c0-2.3-0.4-4.2-1.3-5.8c-0.9-1.6-2-2.8-3.5-3.7c-1.5-0.9-3.2-1.3-5-1.3
	s-3.6,0.4-5,1.3c-1.5,0.9-2.7,2.1-3.6,3.7c-0.9,1.6-1.3,3.5-1.3,5.8c0,2.2,0.4,4.1,1.3,5.8c0.9,1.6,2.1,2.8,3.6,3.7
	C438.3,354.9,440,355.4,441.9,355.4z M482.2,364v-7.6l19.4-18.4c1.5-1.4,2.7-2.6,3.4-3.7c0.7-1.1,1.2-2.1,1.4-3
	c0.3-0.9,0.4-1.8,0.4-2.5c0-2-0.7-3.6-2.1-4.6c-1.3-1.1-3.3-1.7-6-1.7c-2.1,0-4.1,0.4-5.9,1.2c-1.8,0.8-3.3,2.1-4.5,3.8l-8.5-5.5
	c1.9-2.9,4.6-5.2,8.1-6.8c3.5-1.7,7.4-2.5,12-2.5c3.7,0,7,0.6,9.8,1.9c2.8,1.2,5,2.9,6.6,5.1c1.6,2.2,2.4,4.8,2.4,7.9
	c0,1.6-0.2,3.3-0.6,4.9c-0.4,1.6-1.2,3.3-2.4,5c-1.2,1.8-3,3.8-5.3,6l-16.1,15.2l-2.2-4.2h28.4v9.5H482.2z M546.7,364.9
	c-4.1,0-7.8-1-11.1-3c-3.3-2.1-5.8-5-7.7-8.9s-2.8-8.6-2.8-14.1c0-5.5,0.9-10.2,2.8-14.1s4.4-6.8,7.7-8.9c3.3-2.1,7-3.1,11.1-3.1
	c4.2,0,7.9,1,11.1,3.1c3.3,2,5.8,5,7.7,8.9s2.8,8.6,2.8,14.1c0,5.5-0.9,10.2-2.8,14.1s-4.4,6.9-7.7,8.9
	C554.6,363.9,550.9,364.9,546.7,364.9z M546.7,355c2,0,3.7-0.6,5.1-1.7c1.5-1.1,2.6-2.9,3.5-5.3c0.9-2.4,1.3-5.5,1.3-9.3
	c0-3.8-0.4-6.9-1.3-9.3c-0.8-2.4-2-4.2-3.5-5.3c-1.4-1.1-3.1-1.7-5.1-1.7c-1.9,0-3.6,0.6-5.1,1.7c-1.4,1.1-2.6,2.9-3.5,5.3
	c-0.8,2.4-1.2,5.5-1.2,9.3c0,3.8,0.4,6.9,1.2,9.3c0.9,2.4,2,4.2,3.5,5.3C543.1,354.4,544.8,355,546.7,355z M573.6,364v-7.6
	l19.4-18.4c1.5-1.4,2.7-2.6,3.4-3.7c0.7-1.1,1.2-2.1,1.4-3c0.3-0.9,0.4-1.8,0.4-2.5c0-2-0.7-3.6-2.1-4.6c-1.3-1.1-3.3-1.7-6-1.7
	c-2.1,0-4.1,0.4-5.9,1.2c-1.8,0.8-3.3,2.1-4.5,3.8l-8.5-5.5c1.9-2.9,4.6-5.2,8.1-6.8c3.5-1.7,7.4-2.5,12-2.5c3.7,0,7,0.6,9.8,1.9
	c2.8,1.2,5,2.9,6.6,5.1c1.6,2.2,2.4,4.8,2.4,7.9c0,1.6-0.2,3.3-0.6,4.9c-0.4,1.6-1.2,3.3-2.4,5c-1.2,1.8-3,3.8-5.3,6l-16.1,15.2
	l-2.2-4.2h28.4v9.5H573.6z M638.1,364.9c-4.1,0-7.8-1-11.1-3c-3.3-2.1-5.8-5-7.7-8.9s-2.8-8.6-2.8-14.1c0-5.5,0.9-10.2,2.8-14.1
	s4.4-6.8,7.7-8.9c3.3-2.1,7-3.1,11.1-3.1c4.2,0,7.9,1,11.1,3.1c3.3,2,5.8,5,7.7,8.9s2.8,8.6,2.8,14.1c0,5.5-0.9,10.2-2.8,14.1
	s-4.4,6.9-7.7,8.9C646,363.9,642.3,364.9,638.1,364.9z M638.1,355c2,0,3.7-0.6,5.1-1.7c1.5-1.1,2.6-2.9,3.5-5.3
	c0.9-2.4,1.3-5.5,1.3-9.3c0-3.8-0.4-6.9-1.3-9.3c-0.8-2.4-2-4.2-3.5-5.3c-1.4-1.1-3.1-1.7-5.1-1.7c-1.9,0-3.6,0.6-5.1,1.7
	c-1.4,1.1-2.6,2.9-3.5,5.3c-0.8,2.4-1.2,5.5-1.2,9.3c0,3.8,0.4,6.9,1.2,9.3c0.9,2.4,2,4.2,3.5,5.3C634.5,354.4,636.2,355,638.1,355z
	"/>
</svg>
