<svg width="70" height="70" viewBox="0 0 70 70" fill="none" xmlns="http://www.w3.org/2000/svg">
<path d="M43.75 2.91666H26.25V8.74999H43.75V2.91666ZM32.0833 40.8333H37.9167V23.3333H32.0833V40.8333ZM55.5042 21.5542L59.6458 17.4125C58.3917 15.925 57.0208 14.525 55.5333 13.3L51.3917 17.4417C46.7464 13.7034 40.9626 11.6658 35 11.6667C20.5042 11.6667 8.75 23.4208 8.75 37.9167C8.75 52.4125 20.475 64.1667 35 64.1667C39.9417 64.1693 44.7837 62.7761 48.9683 60.1474C53.1529 57.5187 56.5098 53.7614 58.6525 49.3084C60.7952 44.8553 61.6365 39.8876 61.0795 34.9774C60.5225 30.0671 58.5899 25.4141 55.5042 21.5542ZM35 58.3333C23.7125 58.3333 14.5833 49.2042 14.5833 37.9167C14.5833 26.6292 23.7125 17.5 35 17.5C46.2875 17.5 55.4167 26.6292 55.4167 37.9167C55.4167 49.2042 46.2875 58.3333 35 58.3333Z" fill="#377BCD"/>
</svg>
